SplineFontDB: 3.2
FontName: CSLSans-LightItalic
FullName: CSL Sans Light Italic
FamilyName: CSL Sans Light
Weight: Light
Copyright: Copyright (c) 2019 IBM Corp. with Reserved Font Name "Plex"\n\nCopyright (c) 2019 The HMI Sans Project Authors (https://github.com/somegoodpixels/hmi-sans)\nCopyright (c) 2021 The CSL Sans Project Authors (https://github.com/cssobral2013/CSL-Sans)\nThis Font Software is licensed under the SIL Open Font License, Version 1.1.\nThis license is copied below, and is also available with a FAQ at: http://scripts.sil.org/OFL.
Version: 2.001;January 31, 2022;FontCreator 14.0.0.2808 64-bit
ItalicAngle: -11.3
UnderlinePosition: -138
UnderlineWidth: 43
Ascent: 800
Descent: 200
InvalidEm: 0
sfntRevision: 0x00020041
LayerCount: 2
Layer: 0 1 "Back" 1
Layer: 1 1 "Fore" 0
XUID: [1021 651 537639564 8572]
StyleMap: 0x0001
FSType: 0
OS2Version: 4
OS2_WeightWidthSlopeOnly: 0
OS2_UseTypoMetrics: 0
CreationTime: 1550580404
ModificationTime: 1643660359
PfmFamily: 81
TTFWeight: 300
TTFWidth: 5
LineGap: 0
VLineGap: 0
Panose: 0 0 4 0 0 0 0 0 0 0
OS2TypoAscent: 1000
OS2TypoAOffset: 0
OS2TypoDescent: -220
OS2TypoDOffset: 0
OS2TypoLinegap: 0
OS2WinAscent: 1000
OS2WinAOffset: 0
OS2WinDescent: 220
OS2WinDOffset: 0
HheadAscent: 1000
HheadAOffset: 0
HheadDescent: -220
HheadDOffset: 0
OS2SubXSize: 650
OS2SubYSize: 600
OS2SubXOff: -15
OS2SubYOff: 75
OS2SupXSize: 650
OS2SupYSize: 600
OS2SupXOff: 70
OS2SupYOff: 350
OS2StrikeYSize: 43
OS2StrikeYPos: 307
OS2CapHeight: 698
OS2XHeight: 512
OS2Vendor: 'UKWN'
OS2CodePages: 2000019f.00000000
OS2UnicodeRanges: 20000287.10000013.00000000.00000000
Lookup: 258 0 0 "'kern' Kerning Horizontal lookup 0" { "'kern' Kerning Horizontal lookup 0 per glyph data 0"  "'kern' Kerning Horizontal lookup 0 kerning class 1"  "'kern' Kerning Horizontal lookup 0 kerning class 2"  "'kern' Kerning Horizontal lookup 0 kerning class 3"  } ['kern' ('DFLT' <'dflt' > 'cyrl' <'dflt' > 'grek' <'dflt' > 'latn' <'dflt' > ) ]
DEI: 91125

StartChar: .notdef
Encoding: 65536 -1 0
Width: 472
Flags: W
LayerCount: 2
Fore
SplineSet
440 0 m 1,0,-1
 440 780 l 1,1,-1
 32 780 l 1,2,-1
 32 0 l 1,3,-1
 440 0 l 1,0,-1
397 43 m 1,4,-1
 75 43 l 1,5,-1
 75 737 l 1,6,-1
 397 737 l 1,7,-1
 397 43 l 1,4,-1
EndSplineSet
EndChar

StartChar: exclam
Encoding: 33 33 2
Width: 262
GlyphClass: 1
Flags: W
LayerCount: 2
Fore
SplineSet
130 181 m 1,0,-1
 202 463 l 1,1,-1
 249 698 l 1,2,-1
 189 698 l 1,3,-1
 143 463 l 1,4,-1
 102 181 l 1,5,-1
 130 181 l 1,0,-1
83 -9 m 0,6,7
 127 -9 127 -9 133 32 c 0,8,9
 137 43 137 43 137 60 c 0,10,11
 137 92 137 92 96 92 c 0,12,13
 52 92 52 92 46 51 c 0,14,15
 42 40 42 40 42 23 c 0,16,17
 42 -8 42 -8 83 -9 c 0,6,7
EndSplineSet
EndChar

StartChar: quotedbl
Encoding: 34 34 3
Width: 395
GlyphClass: 7
Flags: W
LayerCount: 2
Fore
SplineSet
182 472 m 1,0,-1
 236 740 l 1,1,-1
 185 740 l 1,2,-1
 131 472 l 1,3,-1
 182 472 l 1,0,-1
349 472 m 1,4,-1
 403 740 l 1,5,-1
 352 740 l 1,6,-1
 298 472 l 1,7,-1
 349 472 l 1,4,-1
EndSplineSet
EndChar

StartChar: numbersign
Encoding: 35 35 4
Width: 692
GlyphClass: 5
Flags: W
LayerCount: 2
Fore
SplineSet
355 0 m 1,0,-1
 434 211 l 1,1,-1
 577 211 l 1,2,-1
 586 254 l 1,3,-1
 450 254 l 1,4,-1
 519 444 l 1,5,-1
 662 444 l 1,6,-1
 671 487 l 1,7,-1
 535 487 l 1,8,-1
 613 698 l 1,9,-1
 564 698 l 1,10,-1
 486 487 l 1,11,-1
 332 487 l 1,12,-1
 411 698 l 1,13,-1
 362 698 l 1,14,-1
 283 487 l 1,15,-1
 140 487 l 1,16,-1
 131 444 l 1,17,-1
 267 444 l 1,18,-1
 198 254 l 1,19,-1
 55 254 l 1,20,-1
 46 211 l 1,21,-1
 182 211 l 1,22,-1
 104 0 l 1,23,-1
 153 0 l 1,24,-1
 231 211 l 1,25,-1
 385 211 l 1,26,-1
 306 0 l 1,27,-1
 355 0 l 1,0,-1
401 254 m 1,28,-1
 247 254 l 1,29,-1
 316 444 l 1,30,-1
 470 444 l 1,31,-1
 401 254 l 1,28,-1
EndSplineSet
EndChar

StartChar: dollar
Encoding: 36 36 5
Width: 562
Flags: W
LayerCount: 2
Fore
SplineSet
277 393 m 1,0,-1
 328 647 l 1,1,-1
 315 647 l 2,2,3
 252 647 252 647 211 622.5 c 128,-1,4
 170 598 170 598 160 549 c 0,5,6
 157 528 157 528 157 518 c 0,7,8
 157 442 157 442 271 396 c 0,9,10
 274 395 274 395 277 393 c 1,0,-1
252 51 m 1,11,-1
 254 51 l 2,12,13
 321 51 321 51 362.5 79.5 c 128,-1,14
 404 108 404 108 414 164 c 0,15,16
 416 183 416 183 416 198 c 0,17,18
 416 276 416 276 306 321 c 1,19,-1
 252 51 l 1,11,-1
317 376 m 1,20,21
 357 358 357 358 386 342 c 0,22,23
 429 316 429 316 452 277 c 0,24,25
 474 240 474 240 474 194 c 0,26,27
 474 101 474 101 413.5 50.5 c 128,-1,28
 353 0 353 0 252 0 c 2,29,-1
 242 0 l 1,30,-1
 225 -82 l 1,31,-1
 182 -82 l 1,32,-1
 199 4 l 1,33,34
 87 21 87 21 18 115 c 1,35,-1
 61 151 l 1,36,37
 96 102 96 102 143 77 c 0,38,39
 172 60 172 60 209 54 c 1,40,-1
 266 338 l 1,41,42
 223 357 223 357 193 373 c 0,43,44
 151 395 151 395 129 429 c 0,45,46
 100 475 100 475 100 521 c 0,47,48
 100 581 100 581 128.5 620.5 c 128,-1,49
 157 660 157 660 206.5 679 c 128,-1,50
 256 698 256 698 318 698 c 0,51,52
 328 698 328 698 338 697 c 1,53,-1
 355 780 l 1,54,-1
 399 780 l 1,55,-1
 381 692 l 1,56,57
 477 674 477 674 531 595 c 1,58,-1
 488 563 l 1,59,60
 445 625 445 625 371 641 c 1,61,-1
 317 376 l 1,20,21
EndSplineSet
EndChar

StartChar: percent
Encoding: 37 37 6
Width: 893
Flags: W
LayerCount: 2
Fore
SplineSet
187 0 m 1,0,-1
 792 698 l 1,1,-1
 734 698 l 1,2,-1
 129 0 l 1,3,-1
 187 0 l 1,0,-1
233 319 m 0,4,5
 323 319 323 319 373 400 c 0,6,7
 417 472 417 472 417 571 c 0,8,9
 417 634 417 634 385 672 c 128,-1,10
 353 710 353 710 295 710 c 0,11,12
 206 710 206 710 156 629 c 1,13,14
 111 548 111 548 111 458 c 0,15,16
 111 395 111 395 143 357 c 128,-1,17
 175 319 175 319 233 319 c 0,4,5
237 356 m 0,18,19
 198 356 198 356 178.5 381 c 128,-1,20
 159 406 159 406 159 447 c 0,21,22
 159 467 159 467 163 489 c 2,23,-1
 174 543 l 2,24,25
 200 673 200 673 291 673 c 0,26,27
 330 673 330 673 349.5 648 c 128,-1,28
 369 623 369 623 369 582 c 0,29,30
 369 563 369 563 365 540 c 2,31,-1
 354 486 l 2,32,33
 329 356 329 356 237 356 c 0,18,19
626 -12 m 0,34,35
 716 -12 716 -12 766 69 c 0,36,37
 810 141 810 141 810 240 c 0,38,39
 810 303 810 303 778 341 c 128,-1,40
 746 379 746 379 688 379 c 0,41,42
 599 379 599 379 549 298 c 1,43,44
 504 217 504 217 504 127 c 0,45,46
 504 64 504 64 536 26 c 128,-1,47
 568 -12 568 -12 626 -12 c 0,34,35
630 25 m 0,48,49
 591 25 591 25 571.5 50 c 128,-1,50
 552 75 552 75 552 116 c 0,51,52
 552 136 552 136 556 158 c 2,53,-1
 567 212 l 2,54,55
 593 342 593 342 684 342 c 0,56,57
 723 342 723 342 742.5 317 c 128,-1,58
 762 292 762 292 762 251 c 0,59,60
 762 232 762 232 758 209 c 2,61,-1
 747 155 l 2,62,63
 722 25 722 25 630 25 c 0,48,49
EndSplineSet
EndChar

StartChar: ampersand
Encoding: 38 38 7
Width: 673
GlyphClass: 3
Flags: W
LayerCount: 2
Fore
SplineSet
220 -12 m 0,0,1
 287 -12 287 -12 345 17 c 128,-1,2
 403 46 403 46 448 97 c 1,3,-1
 521 0 l 1,4,-1
 584 0 l 1,5,-1
 479 139 l 1,6,7
 527 215 527 215 553 312 c 1,8,-1
 630 312 l 1,9,-1
 641 361 l 1,10,-1
 517 361 l 1,11,12
 496 262 496 262 450 180 c 1,13,-1
 311 364 l 1,14,15
 408 411 408 411 465 462.5 c 128,-1,16
 522 514 522 514 522 584 c 0,17,18
 522 644 522 644 480 677 c 128,-1,19
 438 710 438 710 376 710 c 0,20,21
 286 710 286 710 234.5 650.5 c 128,-1,22
 183 591 183 591 183 517 c 0,23,24
 183 447 183 447 238 377 c 1,25,26
 147 334 147 334 94.5 278.5 c 128,-1,27
 42 223 42 223 42 145 c 0,28,29
 42 72 42 72 88.5 30 c 128,-1,30
 135 -12 135 -12 220 -12 c 0,0,1
285 399 m 1,31,32
 236 466 236 466 236 520 c 0,33,34
 236 528 236 528 238 535.5 c 128,-1,35
 240 543 240 543 241 555 c 0,36,37
 251 603 251 603 285 633 c 128,-1,38
 319 663 319 663 371 663 c 0,39,40
 416 663 416 663 441.5 640.5 c 128,-1,41
 467 618 467 618 467 576 c 0,42,43
 467 519 467 519 420 479.5 c 128,-1,44
 373 440 373 440 285 399 c 1,31,32
231 37 m 0,45,46
 168 37 168 37 132.5 65.5 c 128,-1,47
 97 94 97 94 97 151 c 0,48,49
 97 223 97 223 151 270 c 0,50,51
 191 306 191 306 264 341 c 1,52,-1
 419 135 l 1,53,54
 342 37 342 37 231 37 c 0,45,46
EndSplineSet
EndChar

StartChar: quotesingle
Encoding: 39 39 8
Width: 228
Flags: W
LayerCount: 2
Fore
SplineSet
182 472 m 1,0,-1
 236 740 l 1,1,-1
 185 740 l 1,2,-1
 131 472 l 1,3,-1
 182 472 l 1,0,-1
EndSplineSet
EndChar

StartChar: parenleft
Encoding: 40 40 9
Width: 329
Flags: W
LayerCount: 2
Fore
SplineSet
246 -137 m 1,0,1
 137 7 137 7 137 206 c 0,2,3
 137 253 137 253 146 298 c 2,4,-1
 158 363 l 2,5,6
 180 475 180 475 249 580.5 c 128,-1,7
 318 686 318 686 415 760 c 1,8,-1
 359 760 l 1,9,10
 248 677 248 677 170 535 c 0,11,12
 88 382 88 382 88 211 c 0,13,14
 88 99 88 99 118 11 c 128,-1,15
 148 -77 148 -77 197 -137 c 1,16,-1
 246 -137 l 1,0,1
EndSplineSet
EndChar

StartChar: parenright
Encoding: 41 41 10
Width: 329
GlyphClass: 3
Flags: W
LayerCount: 2
Fore
SplineSet
-9 -137 m 1,0,1
 102 -55 102 -55 180 88 c 0,2,3
 261 239 261 239 261 411 c 0,4,5
 261 524 261 524 231 612 c 128,-1,6
 201 700 201 700 153 760 c 1,7,-1
 104 760 l 1,8,9
 212 616 212 616 212 416 c 0,10,11
 212 370 212 370 204 325 c 2,12,-1
 191 260 l 2,13,14
 167 147 167 147 99 42 c 128,-1,15
 31 -63 31 -63 -65 -137 c 1,16,-1
 -9 -137 l 1,0,1
EndSplineSet
EndChar

StartChar: asterisk
Encoding: 42 42 11
Width: 417
Flags: W
LayerCount: 2
Fore
SplineSet
154 402 m 1,0,-1
 264 533 l 1,1,-1
 327 405 l 1,2,-1
 368 433 l 1,3,-1
 300 554 l 1,4,-1
 452 598 l 1,5,-1
 443 644 l 1,6,-1
 295 593 l 1,7,-1
 328 747 l 1,8,-1
 279 747 l 1,9,-1
 252 593 l 1,10,-1
 121 645 l 1,11,-1
 99 598 l 1,12,-1
 234 557 l 1,13,-1
 116 434 l 1,14,-1
 154 402 l 1,0,-1
EndSplineSet
EndChar

StartChar: plus
Encoding: 43 43 12
Width: 600
Flags: W
LayerCount: 2
Fore
SplineSet
288 62 m 1,0,-1
 332 281 l 1,1,-1
 535 281 l 1,2,-1
 545 329 l 1,3,-1
 342 329 l 1,4,-1
 386 548 l 1,5,-1
 333 548 l 1,6,-1
 289 329 l 1,7,-1
 85 329 l 1,8,-1
 75 281 l 1,9,-1
 279 281 l 1,10,-1
 235 62 l 1,11,-1
 288 62 l 1,0,-1
EndSplineSet
EndChar

StartChar: comma
Encoding: 44 44 13
Width: 260
GlyphClass: 3
Flags: W
LayerCount: 2
Fore
SplineSet
17 -138 m 1,0,1
 64 -103 64 -103 92 -55 c 128,-1,2
 120 -7 120 -7 130 34 c 0,3,4
 133 43 133 43 133 60 c 0,5,6
 133 92 133 92 92 92 c 0,7,8
 66 92 66 92 55.5 79 c 128,-1,9
 45 66 45 66 42 50 c 0,10,11
 38 40 38 40 38 24 c 0,12,13
 38 -1 38 -1 68 -6 c 1,14,15
 46 -69 46 -69 -31 -138 c 1,16,-1
 17 -138 l 1,0,1
EndSplineSet
EndChar

StartChar: hyphen
Encoding: 45 45 14
Width: 387
Flags: W
LayerCount: 2
Fore
SplineSet
319 275 m 1,0,-1
 330 333 l 1,1,-1
 88 333 l 1,2,-1
 76 275 l 1,3,-1
 319 275 l 1,0,-1
EndSplineSet
EndChar

StartChar: period
Encoding: 46 46 15
Width: 260
Flags: W
LayerCount: 2
Fore
SplineSet
80 -9 m 0,0,1
 124 -9 124 -9 130 32 c 0,2,3
 134 43 134 43 134 60 c 0,4,5
 134 92 134 92 93 92 c 0,6,7
 49 92 49 92 43 51 c 0,8,9
 39 40 39 40 39 23 c 0,10,11
 39 -8 39 -8 80 -9 c 0,0,1
EndSplineSet
EndChar

StartChar: slash
Encoding: 47 47 16
Width: 348
GlyphClass: 3
Flags: W
LayerCount: 2
Fore
SplineSet
-20 -151 m 1,0,-1
 407 740 l 1,1,-1
 356 740 l 1,2,-1
 -72 -151 l 1,3,-1
 -20 -151 l 1,0,-1
EndSplineSet
EndChar

StartChar: zero
Encoding: 48 48 17
Width: 600
GlyphClass: 5
Flags: W
LayerCount: 2
Fore
SplineSet
255 -12 m 0,0,1
 356 -12 356 -12 429 68 c 0,2,3
 497 144 497 144 528 255 c 0,4,5
 559 371 559 371 559 474 c 0,6,7
 559 584 559 584 513.5 647 c 128,-1,8
 468 710 468 710 375 710 c 0,9,10
 274 710 274 710 201 631 c 0,11,12
 134 554 134 554 102 443 c 0,13,14
 71 328 71 328 71 224 c 0,15,16
 71 114 71 114 116.5 51 c 128,-1,17
 162 -12 162 -12 255 -12 c 0,0,1
261 39 m 0,18,19
 128 39 128 39 128 216 c 0,20,21
 128 263 128 263 138 315 c 2,22,-1
 156 402 l 2,23,24
 180 522 180 522 233.5 590.5 c 128,-1,25
 287 659 287 659 369 659 c 0,26,27
 502 659 502 659 502 482 c 0,28,29
 502 436 502 436 492 383 c 2,30,-1
 474 296 l 2,31,32
 450 176 450 176 395.5 107.5 c 128,-1,33
 341 39 341 39 261 39 c 0,18,19
EndSplineSet
EndChar

StartChar: one
Encoding: 49 49 18
Width: 600
Flags: W
LayerCount: 2
Fore
SplineSet
324 0 m 1,0,-1
 266 0 l 1,1,-1
 393 638 l 1,2,-1
 225 549 l 1,3,-1
 238 612 l 1,4,-1
 397 698 l 1,5,-1
 463 698 l 1,6,-1
 324 0 l 1,0,-1
EndSplineSet
EndChar

StartChar: two
Encoding: 50 50 19
Width: 600
Flags: W
LayerCount: 2
Fore
SplineSet
469 0 m 1,0,-1
 479 52 l 1,1,-1
 108 52 l 1,2,-1
 364 260 l 2,3,4
 450 327 450 327 497 393.5 c 128,-1,5
 544 460 544 460 544 544 c 0,6,7
 544 615 544 615 498 662.5 c 128,-1,8
 452 710 452 710 366 710 c 256,9,10
 280 710 280 710 224 669 c 128,-1,11
 168 628 168 628 135 550 c 1,12,-1
 186 529 l 1,13,14
 213 593 213 593 254.5 625.5 c 128,-1,15
 296 658 296 658 360 658 c 256,16,17
 424 658 424 658 454 622 c 0,18,19
 481 585 481 585 481 543 c 0,20,21
 481 524 481 524 474 488 c 0,22,23
 457 401 457 401 332 300 c 2,24,-1
 47 64 l 1,25,-1
 34 0 l 1,26,-1
 469 0 l 1,0,-1
EndSplineSet
EndChar

StartChar: three
Encoding: 51 51 20
Width: 600
Flags: W
LayerCount: 2
Fore
SplineSet
246 -12 m 0,0,1
 356 -12 356 -12 423 52 c 128,-1,2
 490 116 490 116 490 218 c 0,3,4
 490 279 490 279 457 316.5 c 128,-1,5
 424 354 424 354 372 363 c 1,6,-1
 373 367 l 1,7,8
 445 380 445 380 490.5 430 c 128,-1,9
 536 480 536 480 536 556 c 0,10,11
 536 627 536 627 486.5 668.5 c 128,-1,12
 437 710 437 710 359 710 c 0,13,14
 214 710 214 710 145 599 c 1,15,-1
 186 566 l 1,16,17
 238 658 238 658 352 658 c 0,18,19
 409 658 409 658 441 630 c 128,-1,20
 473 602 473 602 473 551 c 0,21,22
 473 541 473 541 469 517 c 0,23,24
 441 391 441 391 303 391 c 2,25,-1
 223 391 l 1,26,-1
 212 340 l 1,27,-1
 295 340 l 2,28,29
 363 340 363 340 396.5 308 c 128,-1,30
 430 276 430 276 430 223 c 0,31,32
 430 210 430 210 424 179 c 0,33,34
 398 40 398 40 251 40 c 0,35,36
 182 40 182 40 143 64.5 c 128,-1,37
 104 89 104 89 85 136 c 1,38,-1
 38 105 l 1,39,40
 60 53 60 53 112.5 20.5 c 128,-1,41
 165 -12 165 -12 246 -12 c 0,0,1
EndSplineSet
EndChar

StartChar: four
Encoding: 52 52 21
Width: 600
GlyphClass: 2
Flags: W
LayerCount: 2
Fore
SplineSet
391 0 m 1,0,-1
 421 146 l 1,1,-1
 525 146 l 1,2,-1
 534 195 l 1,3,-1
 431 195 l 1,4,-1
 531 698 l 1,5,-1
 449 698 l 1,6,-1
 40 202 l 1,7,-1
 29 146 l 1,8,-1
 364 146 l 1,9,-1
 335 0 l 1,10,-1
 391 0 l 1,0,-1
374 195 m 1,11,-1
 94 195 l 1,12,-1
 459 635 l 1,13,-1
 462 635 l 1,14,-1
 374 195 l 1,11,-1
EndSplineSet
EndChar

StartChar: five
Encoding: 53 53 22
Width: 600
Flags: W
LayerCount: 2
Fore
SplineSet
262 -12 m 0,0,1
 378 -12 378 -12 446.5 62.5 c 128,-1,2
 515 137 515 137 515 252 c 0,3,4
 515 334 515 334 468 380.5 c 128,-1,5
 421 427 421 427 341 427 c 0,6,7
 287 427 287 427 251 408.5 c 128,-1,8
 215 390 215 390 187 348 c 1,9,-1
 182 348 l 1,10,-1
 258 646 l 1,11,-1
 563 646 l 1,12,-1
 573 698 l 1,13,-1
 221 698 l 1,14,-1
 123 314 l 1,15,-1
 174 307 l 1,16,17
 206 340 206 340 240.5 358 c 128,-1,18
 275 376 275 376 324 376 c 0,19,20
 393 376 393 376 424.5 342.5 c 128,-1,21
 456 309 456 309 456 252 c 0,22,23
 456 240 456 240 454 227.5 c 128,-1,24
 452 215 452 215 448 196 c 0,25,26
 417 40 417 40 268 40 c 0,27,28
 204 40 204 40 164.5 64 c 128,-1,29
 125 88 125 88 105 136 c 1,30,-1
 58 105 l 1,31,32
 79 53 79 53 131.5 20.5 c 128,-1,33
 184 -12 184 -12 262 -12 c 0,0,1
EndSplineSet
EndChar

StartChar: six
Encoding: 54 54 23
Width: 600
GlyphClass: 2
Flags: W
LayerCount: 2
Fore
SplineSet
268 -12 m 0,0,1
 376 -12 376 -12 447 62 c 128,-1,2
 518 136 518 136 518 245 c 0,3,4
 518 330 518 330 468.5 378.5 c 128,-1,5
 419 427 419 427 337 427 c 0,6,7
 221 427 221 427 159 320 c 1,8,-1
 155 321 l 1,9,10
 230 540 230 540 505 698 c 1,11,-1
 422 698 l 1,12,13
 279 619 279 619 180 482 c 0,14,15
 132 415 132 415 104 340 c 128,-1,16
 76 265 76 265 76 189 c 0,17,18
 76 95 76 95 124 41.5 c 128,-1,19
 172 -12 172 -12 268 -12 c 0,0,1
271 40 m 0,20,21
 203 40 203 40 168.5 76 c 128,-1,22
 134 112 134 112 134 175 c 0,23,24
 134 192 134 192 139 221 c 0,25,26
 154 290 154 290 201 333 c 128,-1,27
 248 376 248 376 323 376 c 0,28,29
 391 376 391 376 425.5 340 c 128,-1,30
 460 304 460 304 460 241 c 0,31,32
 460 225 460 225 455 195 c 0,33,34
 440 126 440 126 393 83 c 128,-1,35
 346 40 346 40 271 40 c 0,20,21
EndSplineSet
EndChar

StartChar: seven
Encoding: 55 55 24
Width: 600
Flags: W
LayerCount: 2
Fore
SplineSet
196 0 m 1,0,-1
 134 0 l 1,1,-1
 535 647 l 1,2,-1
 159 647 l 1,3,-1
 169 698 l 1,4,-1
 605 698 l 1,5,-1
 594 642 l 1,6,-1
 196 0 l 1,0,-1
EndSplineSet
EndChar

StartChar: eight
Encoding: 56 56 25
Width: 600
Flags: W
LayerCount: 2
Fore
SplineSet
257 -12 m 0,0,1
 373 -12 373 -12 444 51 c 0,2,3
 513 115 513 115 513 217 c 0,4,5
 513 271 513 271 484 308.5 c 128,-1,6
 455 346 455 346 401 361 c 1,7,-1
 402 367 l 1,8,9
 474 386 474 386 515.5 437.5 c 128,-1,10
 557 489 557 489 557 555 c 0,11,12
 557 625 557 625 508.5 667.5 c 128,-1,13
 460 710 460 710 372 710 c 0,14,15
 270 710 270 710 205 652.5 c 128,-1,16
 140 595 140 595 140 505 c 0,17,18
 140 405 140 405 235 373 c 1,19,-1
 234 366 l 1,20,21
 148 353 148 353 100 297 c 0,22,23
 52 238 52 238 52 164 c 0,24,25
 52 86 52 86 105 37 c 128,-1,26
 158 -12 158 -12 257 -12 c 0,0,1
260 39 m 0,27,28
 188 39 188 39 149.5 72 c 128,-1,29
 111 105 111 105 111 159 c 0,30,31
 111 171 111 171 115 195 c 0,32,33
 128 267 128 267 179 304 c 128,-1,34
 230 341 230 341 305 341 c 0,35,36
 377 341 377 341 415.5 308 c 128,-1,37
 454 275 454 275 454 221 c 0,38,39
 454 209 454 209 450 185 c 0,40,41
 437 113 437 113 386 76 c 128,-1,42
 335 39 335 39 260 39 c 0,27,28
330 391 m 0,43,44
 204 391 204 391 198 499 c 0,45,46
 198 507 198 507 199 514.5 c 128,-1,47
 200 522 200 522 202 536 c 0,48,49
 214 594 214 594 257 626.5 c 128,-1,50
 300 659 300 659 367 659 c 0,51,52
 493 659 493 659 499 551 c 0,53,54
 499 543 499 543 498 535.5 c 128,-1,55
 497 528 497 528 495 514 c 0,56,57
 483 456 483 456 440 423.5 c 128,-1,58
 397 391 397 391 330 391 c 0,43,44
EndSplineSet
EndChar

StartChar: nine
Encoding: 57 57 26
Width: 600
GlyphClass: 1
Flags: W
LayerCount: 2
Fore
SplineSet
212 0 m 1,0,1
 355 80 355 80 455 216 c 0,2,3
 558 361 558 361 558 509 c 0,4,5
 558 603 558 603 510 656.5 c 128,-1,6
 462 710 462 710 366 710 c 0,7,8
 258 710 258 710 187 636.5 c 128,-1,9
 116 563 116 563 116 453 c 0,10,11
 116 368 116 368 165.5 319.5 c 128,-1,12
 215 271 215 271 297 271 c 0,13,14
 413 271 413 271 475 378 c 1,15,-1
 479 377 l 1,16,17
 404 159 404 159 129 0 c 1,18,-1
 212 0 l 1,0,1
311 322 m 0,19,20
 243 322 243 322 208.5 358 c 128,-1,21
 174 394 174 394 174 457 c 0,22,23
 174 474 174 474 179 503 c 0,24,25
 194 572 194 572 241 615 c 128,-1,26
 288 658 288 658 363 658 c 0,27,28
 431 658 431 658 465.5 622 c 128,-1,29
 500 586 500 586 500 523 c 0,30,31
 500 507 500 507 495 477 c 0,32,33
 480 408 480 408 433 365 c 128,-1,34
 386 322 386 322 311 322 c 0,19,20
EndSplineSet
EndChar

StartChar: colon
Encoding: 58 58 27
Width: 279
Flags: W
LayerCount: 2
Fore
SplineSet
88 -9 m 0,0,1
 132 -9 132 -9 138 32 c 0,2,3
 142 43 142 43 142 60 c 0,4,5
 142 92 142 92 101 92 c 0,6,7
 57 92 57 92 51 51 c 0,8,9
 47 40 47 40 47 23 c 0,10,11
 47 -8 47 -8 88 -9 c 0,0,1
173 410 m 0,12,13
 217 410 217 410 223 451 c 0,14,15
 227 462 227 462 227 479 c 0,16,17
 227 511 227 511 186 511 c 0,18,19
 142 511 142 511 136 470 c 0,20,21
 132 459 132 459 132 442 c 0,22,23
 132 411 132 411 173 410 c 0,12,13
EndSplineSet
EndChar

StartChar: semicolon
Encoding: 59 59 28
Width: 279
GlyphClass: 2
Flags: W
LayerCount: 2
Fore
SplineSet
25 -138 m 1,0,1
 72 -103 72 -103 100 -55 c 128,-1,2
 128 -7 128 -7 138 34 c 0,3,4
 141 43 141 43 141 60 c 0,5,6
 141 92 141 92 100 92 c 0,7,8
 74 92 74 92 63.5 79 c 128,-1,9
 53 66 53 66 50 50 c 0,10,11
 46 40 46 40 46 24 c 0,12,13
 46 -1 46 -1 76 -6 c 1,14,15
 54 -69 54 -69 -23 -138 c 1,16,-1
 25 -138 l 1,0,1
173 410 m 0,17,18
 217 410 217 410 223 451 c 0,19,20
 227 462 227 462 227 479 c 0,21,22
 227 511 227 511 186 511 c 0,23,24
 142 511 142 511 136 470 c 0,25,26
 132 459 132 459 132 442 c 0,27,28
 132 411 132 411 173 410 c 0,17,18
EndSplineSet
EndChar

StartChar: less
Encoding: 60 60 29
Width: 600
Flags: W
LayerCount: 2
Fore
SplineSet
460 8 m 1,0,-1
 471 64 l 1,1,-1
 153 284 l 1,2,-1
 154 290 l 1,3,-1
 559 506 l 1,4,-1
 571 569 l 1,5,-1
 105 316 l 1,6,-1
 95 263 l 1,7,-1
 460 8 l 1,0,-1
EndSplineSet
EndChar

StartChar: equal
Encoding: 61 61 30
Width: 600
GlyphClass: 2
Flags: W
LayerCount: 2
Fore
SplineSet
550 378 m 1,0,-1
 560 426 l 1,1,-1
 100 426 l 1,2,-1
 90 378 l 1,3,-1
 550 378 l 1,0,-1
512 186 m 1,4,-1
 522 234 l 1,5,-1
 62 234 l 1,6,-1
 52 186 l 1,7,-1
 512 186 l 1,4,-1
EndSplineSet
EndChar

StartChar: greater
Encoding: 62 62 31
Width: 600
GlyphClass: 5
Flags: W
LayerCount: 2
Fore
SplineSet
43 8 m 1,0,-1
 508 263 l 1,1,-1
 519 316 l 1,2,-1
 154 568 l 1,3,-1
 143 511 l 1,4,-1
 461 295 l 1,5,-1
 460 290 l 1,6,-1
 55 70 l 1,7,-1
 43 8 l 1,0,-1
EndSplineSet
EndChar

StartChar: question
Encoding: 63 63 32
Width: 463
GlyphClass: 3
Flags: W
LayerCount: 2
Fore
SplineSet
227 196 m 1,0,-1
 252 322 l 1,1,2
 363 338 363 338 421.5 400.5 c 128,-1,3
 480 463 480 463 480 551 c 0,4,5
 480 625 480 625 432.5 667.5 c 128,-1,6
 385 710 385 710 304 710 c 0,7,8
 150 710 150 710 87 551 c 1,9,-1
 136 533 l 1,10,11
 158 591 158 591 196.5 625 c 128,-1,12
 235 659 235 659 300 659 c 0,13,14
 359 659 359 659 389.5 629 c 128,-1,15
 420 599 420 599 420 548 c 0,16,17
 420 380 420 380 206 364 c 1,18,-1
 173 196 l 1,19,-1
 227 196 l 1,0,-1
165 -9 m 0,20,21
 209 -9 209 -9 215 32 c 0,22,23
 219 43 219 43 219 60 c 0,24,25
 219 92 219 92 178 92 c 0,26,27
 134 92 134 92 128 51 c 0,28,29
 124 40 124 40 124 23 c 0,30,31
 124 -8 124 -8 165 -9 c 0,20,21
EndSplineSet
EndChar

StartChar: at
Encoding: 64 64 33
Width: 870
Flags: W
LayerCount: 2
Fore
SplineSet
588 -121 m 1,0,-1
 597 -77 l 1,1,-1
 365 -77 l 2,2,3
 243 -77 243 -77 177.5 -6 c 128,-1,4
 112 65 112 65 112 191 c 0,5,6
 112 226 112 226 119 267 c 2,7,-1
 131 324 l 2,8,9
 165 477 165 477 269.5 571.5 c 128,-1,10
 374 666 374 666 518 666 c 0,11,12
 638 666 638 666 708 598 c 128,-1,13
 778 530 778 530 778 414 c 0,14,15
 778 384 778 384 772 350 c 2,16,-1
 763 301 l 2,17,18
 745 213 745 213 707.5 162.5 c 128,-1,19
 670 112 670 112 621 112 c 0,20,21
 575 112 575 112 575 152 c 0,22,23
 575 160 575 160 642 498 c 1,24,-1
 592 498 l 1,25,-1
 578 422 l 1,26,-1
 574 422 l 1,27,28
 565 462 565 462 536 485.5 c 128,-1,29
 507 509 507 509 460 509 c 0,30,31
 304 509 304 509 259 297 c 0,32,33
 250 252 250 252 250 220 c 0,34,35
 250 146 250 146 287.5 107.5 c 128,-1,36
 325 69 325 69 383 69 c 0,37,38
 434 69 434 69 470.5 96.5 c 128,-1,39
 507 124 507 124 525 163 c 1,40,-1
 529 163 l 1,41,-1
 529 151 l 2,42,43
 529 69 529 69 614 69 c 0,44,45
 694 69 694 69 747 142 c 0,46,47
 795 213 795 213 815 320 c 0,48,49
 824 379 824 379 824 410 c 0,50,51
 824 550 824 550 741.5 629.5 c 128,-1,52
 659 709 659 709 522 709 c 0,53,54
 353 709 353 709 234 596.5 c 128,-1,55
 115 484 115 484 77 303 c 0,56,57
 65 235 65 235 65 191 c 0,58,59
 65 42 65 42 142.5 -39.5 c 128,-1,60
 220 -121 220 -121 362 -121 c 2,61,-1
 588 -121 l 1,0,-1
399 115 m 0,62,63
 305 115 305 115 302 214 c 0,64,65
 302 235 302 235 306 254 c 2,66,-1
 320 327 l 2,67,68
 333 389 333 389 371 426 c 128,-1,69
 409 463 409 463 466 463 c 0,70,71
 516 463 516 463 545 432 c 0,72,73
 566 409 566 409 566 378 c 0,74,75
 566 368 566 368 539 233 c 0,76,77
 528 185 528 185 488.5 150 c 128,-1,78
 449 115 449 115 399 115 c 0,62,63
EndSplineSet
EndChar

StartChar: A
Encoding: 65 65 34
Width: 612
GlyphClass: 5
Flags: W
LayerCount: 2
Fore
SplineSet
536 0 m 1,0,-1
 426 698 l 1,1,-1
 349 698 l 1,2,-1
 -21 0 l 1,3,-1
 41 0 l 1,4,-1
 154 217 l 1,5,-1
 443 217 l 1,6,-1
 477 0 l 1,7,-1
 536 0 l 1,0,-1
437 268 m 1,8,-1
 181 268 l 1,9,-1
 375 641 l 1,10,-1
 379 641 l 1,11,-1
 437 268 l 1,8,-1
EndSplineSet
EndChar

StartChar: B
Encoding: 66 66 35
Width: 619
GlyphClass: 7
Flags: W
LayerCount: 2
Fore
SplineSet
328 0 m 2,0,1
 426 0 426 0 487.5 66 c 128,-1,2
 549 132 549 132 549 234 c 0,3,4
 549 341 549 341 448 364 c 1,5,-1
 449 368 l 1,6,7
 521 386 521 386 553.5 438 c 128,-1,8
 586 490 586 490 586 554 c 0,9,10
 586 622 586 622 545.5 660 c 128,-1,11
 505 698 505 698 427 698 c 2,12,-1
 184 698 l 1,13,-1
 45 0 l 1,14,-1
 328 0 l 2,0,1
328 52 m 2,15,-1
 113 52 l 1,16,-1
 170 337 l 1,17,-1
 375 337 l 2,18,19
 432 337 432 337 460.5 309.5 c 128,-1,20
 489 282 489 282 489 237 c 2,21,-1
 488 222 l 1,22,-1
 480 174 l 1,23,24
 454 52 454 52 328 52 c 2,15,-1
367 388 m 2,25,-1
 180 388 l 1,26,-1
 231 646 l 1,27,-1
 420 646 l 2,28,29
 474 646 474 646 500 621.5 c 128,-1,30
 526 597 526 597 526 554 c 0,31,32
 526 535 526 535 521 512 c 2,33,-1
 518 494 l 1,34,35
 495 388 495 388 367 388 c 2,25,-1
EndSplineSet
EndChar

StartChar: C
Encoding: 67 67 36
Width: 599
Flags: W
LayerCount: 2
Fore
SplineSet
290 -12 m 0,0,1
 376 -12 376 -12 436 26.5 c 128,-1,2
 496 65 496 65 541 151 c 1,3,-1
 492 175 l 1,4,5
 457 109 457 109 411 74.5 c 128,-1,6
 365 40 365 40 293 40 c 0,7,8
 209 40 209 40 163.5 93.5 c 128,-1,9
 118 147 118 147 118 236 c 0,10,11
 118 271 118 271 126.5 318 c 128,-1,12
 135 365 135 365 144 410 c 0,13,14
 168 524 168 524 233 591 c 128,-1,15
 298 658 298 658 388 658 c 0,16,17
 459 658 459 658 497.5 626 c 128,-1,18
 536 594 536 594 552 536 c 1,19,-1
 605 558 l 1,20,21
 561 710 561 710 394 710 c 0,22,23
 313 710 313 710 250.5 670 c 128,-1,24
 188 630 188 630 145.5 563.5 c 128,-1,25
 103 497 103 497 81.5 414.5 c 128,-1,26
 60 332 60 332 60 248 c 0,27,28
 60 122 60 122 125 55 c 128,-1,29
 190 -12 190 -12 290 -12 c 0,0,1
EndSplineSet
EndChar

StartChar: D
Encoding: 68 68 37
Width: 650
Flags: W
LayerCount: 2
Fore
SplineSet
278 0 m 2,0,1
 362 0 362 0 425.5 38 c 128,-1,2
 489 76 489 76 532 139 c 128,-1,3
 575 202 575 202 596.5 281 c 128,-1,4
 618 360 618 360 618 443 c 0,5,6
 618 568 618 568 556.5 633 c 128,-1,7
 495 698 495 698 382 698 c 2,8,-1
 184 698 l 1,9,-1
 45 0 l 1,10,-1
 278 0 l 2,0,1
279 52 m 2,11,-1
 114 52 l 1,12,-1
 232 646 l 1,13,-1
 378 646 l 2,14,15
 465 646 465 646 511.5 597.5 c 128,-1,16
 558 549 558 549 558 460 c 0,17,18
 558 426 558 426 551 380 c 2,19,-1
 533 294 l 2,20,21
 511 184 511 184 445.5 118 c 128,-1,22
 380 52 380 52 279 52 c 2,11,-1
EndSplineSet
EndChar

StartChar: E
Encoding: 69 69 38
Width: 560
Flags: W
LayerCount: 2
Fore
SplineSet
453 0 m 1,0,-1
 463 52 l 1,1,-1
 114 52 l 1,2,-1
 169 329 l 1,3,-1
 484 329 l 1,4,-1
 494 380 l 1,5,-1
 179 380 l 1,6,-1
 233 646 l 1,7,-1
 572 646 l 1,8,-1
 583 698 l 1,9,-1
 185 698 l 1,10,-1
 45 0 l 1,11,-1
 453 0 l 1,0,-1
EndSplineSet
EndChar

StartChar: F
Encoding: 70 70 39
Width: 537
GlyphClass: 2
Flags: W
LayerCount: 2
Fore
SplineSet
103 0 m 1,0,-1
 169 329 l 1,1,-1
 478 329 l 1,2,-1
 488 380 l 1,3,-1
 179 380 l 1,4,-1
 232 646 l 1,5,-1
 562 646 l 1,6,-1
 573 698 l 1,7,-1
 185 698 l 1,8,-1
 45 0 l 1,9,-1
 103 0 l 1,0,-1
EndSplineSet
EndChar

StartChar: G
Encoding: 71 71 40
Width: 661
Flags: W
LayerCount: 2
Fore
SplineSet
286 -12 m 0,0,1
 361 -12 361 -12 414 20 c 128,-1,2
 467 52 467 52 496 107 c 1,3,-1
 499 107 l 1,4,-1
 478 0 l 1,5,-1
 533 0 l 1,6,-1
 602 349 l 1,7,-1
 387 349 l 1,8,-1
 375 296 l 1,9,-1
 535 296 l 1,10,-1
 520 221 l 2,11,12
 500 130 500 130 439 85 c 0,13,14
 374 40 374 40 300 40 c 0,15,16
 212 40 212 40 165 93 c 128,-1,17
 118 146 118 146 118 240 c 0,18,19
 118 275 118 275 126.5 318.5 c 128,-1,20
 135 362 135 362 143 404 c 0,21,22
 168 521 168 521 234.5 589.5 c 128,-1,23
 301 658 301 658 397 658 c 0,24,25
 473 658 473 658 515 626 c 128,-1,26
 557 594 557 594 576 536 c 1,27,-1
 628 558 l 1,28,29
 608 630 608 630 551.5 670 c 128,-1,30
 495 710 495 710 404 710 c 0,31,32
 293 710 293 710 211 639 c 0,33,34
 134 571 134 571 98 466 c 0,35,36
 60 358 60 358 60 248 c 0,37,38
 60 121 60 121 123 54.5 c 128,-1,39
 186 -12 186 -12 286 -12 c 0,0,1
EndSplineSet
EndChar

StartChar: H
Encoding: 72 72 41
Width: 682
GlyphClass: 5
Flags: W
LayerCount: 2
Fore
SplineSet
534 0 m 1,0,-1
 674 698 l 1,1,-1
 616 698 l 1,2,-1
 552 380 l 1,3,-1
 179 380 l 1,4,-1
 243 698 l 1,5,-1
 185 698 l 1,6,-1
 45 0 l 1,7,-1
 103 0 l 1,8,-1
 169 329 l 1,9,-1
 542 329 l 1,10,-1
 476 0 l 1,11,-1
 534 0 l 1,0,-1
EndSplineSet
EndChar

StartChar: I
Encoding: 73 73 42
Width: 251
Flags: W
LayerCount: 2
Fore
SplineSet
103 0 m 1,0,-1
 243 698 l 1,1,-1
 185 698 l 1,2,-1
 45 0 l 1,3,-1
 103 0 l 1,0,-1
EndSplineSet
EndChar

StartChar: J
Encoding: 74 74 43
Width: 481
GlyphClass: 1
Flags: W
LayerCount: 2
Fore
SplineSet
160 -12 m 0,0,1
 87 -12 87 -12 43.5 28 c 128,-1,2
 0 68 0 68 -4 139 c 1,3,-1
 49 150 l 1,4,5
 53 99 53 99 81.5 69.5 c 128,-1,6
 110 40 110 40 162 40 c 0,7,8
 288 40 288 40 317 193 c 2,9,-1
 418 698 l 1,10,-1
 476 698 l 1,11,-1
 373 183 l 1,12,13
 328 -12 328 -12 160 -12 c 0,0,1
EndSplineSet
EndChar

StartChar: K
Encoding: 75 75 44
Width: 595
GlyphClass: 3
Flags: W
LayerCount: 2
Fore
SplineSet
529 0 m 1,0,-1
 334 398 l 1,1,-1
 653 698 l 1,2,-1
 578 698 l 1,3,-1
 171 314 l 1,4,-1
 166 314 l 1,5,-1
 243 698 l 1,6,-1
 185 698 l 1,7,-1
 45 0 l 1,8,-1
 103 0 l 1,9,-1
 149 230 l 1,10,-1
 290 361 l 1,11,-1
 466 0 l 1,12,-1
 529 0 l 1,0,-1
EndSplineSet
EndChar

StartChar: L
Encoding: 76 76 45
Width: 481
GlyphClass: 1
Flags: W
LayerCount: 2
Fore
SplineSet
405 0 m 1,0,-1
 415 52 l 1,1,-1
 114 52 l 1,2,-1
 243 698 l 1,3,-1
 185 698 l 1,4,-1
 45 0 l 1,5,-1
 405 0 l 1,0,-1
EndSplineSet
EndChar

StartChar: M
Encoding: 77 77 46
Width: 781
GlyphClass: 7
Flags: W
LayerCount: 2
Fore
SplineSet
634 0 m 1,0,-1
 774 698 l 1,1,-1
 692 698 l 1,2,-1
 401 303 l 1,3,-1
 398 303 l 1,4,-1
 261 698 l 1,5,-1
 185 698 l 1,6,-1
 45 0 l 1,7,-1
 102 0 l 1,8,-1
 226 619 l 1,9,-1
 230 619 l 1,10,-1
 381 193 l 1,11,-1
 698 620 l 1,12,-1
 703 620 l 1,13,-1
 577 0 l 1,14,-1
 634 0 l 1,0,-1
EndSplineSet
EndChar

StartChar: N
Encoding: 78 78 47
Width: 681
GlyphClass: 1
Flags: W
LayerCount: 2
Fore
SplineSet
534 0 m 1,0,-1
 674 698 l 1,1,-1
 618 698 l 1,2,-1
 495 83 l 1,3,-1
 491 83 l 1,4,-1
 254 698 l 1,5,-1
 185 698 l 1,6,-1
 45 0 l 1,7,-1
 101 0 l 1,8,-1
 224 615 l 1,9,-1
 228 615 l 1,10,-1
 465 0 l 1,11,-1
 534 0 l 1,0,-1
EndSplineSet
EndChar

StartChar: O
Encoding: 79 79 48
Width: 671
GlyphClass: 1
Flags: W
LayerCount: 2
Fore
SplineSet
295 -12 m 0,0,1
 381 -12 381 -12 446 29.5 c 128,-1,2
 511 71 511 71 554.5 139 c 128,-1,3
 598 207 598 207 619.5 289.5 c 128,-1,4
 641 372 641 372 641 454 c 0,5,6
 641 579 641 579 574.5 644.5 c 128,-1,7
 508 710 508 710 406 710 c 0,8,9
 320 710 320 710 255 668.5 c 128,-1,10
 190 627 190 627 147 559 c 128,-1,11
 104 491 104 491 82 408.5 c 128,-1,12
 60 326 60 326 60 244 c 0,13,14
 60 120 60 120 126.5 54 c 128,-1,15
 193 -12 193 -12 295 -12 c 0,0,1
300 40 m 0,16,17
 212 40 212 40 165 91 c 128,-1,18
 118 142 118 142 118 230 c 0,19,20
 118 265 118 265 126 314 c 2,21,-1
 143 397 l 2,22,23
 168 519 168 519 234.5 588.5 c 128,-1,24
 301 658 301 658 401 658 c 0,25,26
 489 658 489 658 536 607 c 128,-1,27
 583 556 583 556 583 468 c 0,28,29
 583 434 583 434 575 384 c 2,30,-1
 558 301 l 2,31,32
 533 179 533 179 466.5 109.5 c 128,-1,33
 400 40 400 40 300 40 c 0,16,17
EndSplineSet
EndChar

StartChar: P
Encoding: 80 80 49
Width: 586
GlyphClass: 1
Flags: W
LayerCount: 2
Fore
SplineSet
103 0 m 1,0,-1
 165 307 l 1,1,-1
 374 307 l 2,2,3
 478 307 478 307 538.5 371.5 c 128,-1,4
 599 436 599 436 599 538 c 0,5,6
 599 607 599 607 559 652.5 c 128,-1,7
 519 698 519 698 435 698 c 2,8,-1
 185 698 l 1,9,-1
 45 0 l 1,10,-1
 103 0 l 1,0,-1
383 359 m 2,11,-1
 176 359 l 1,12,-1
 232 646 l 1,13,-1
 430 646 l 2,14,15
 489 646 489 646 514 618 c 128,-1,16
 539 590 539 590 539 547 c 0,17,18
 539 537 539 537 537 522 c 0,19,20
 521 359 521 359 383 359 c 2,11,-1
EndSplineSet
EndChar

StartChar: Q
Encoding: 81 81 50
Width: 671
GlyphClass: 3
Flags: W
LayerCount: 2
Fore
SplineSet
300 40 m 0,0,1
 212 40 212 40 165 91 c 128,-1,2
 118 142 118 142 118 230 c 0,3,4
 118 265 118 265 126 314 c 2,5,-1
 143 397 l 2,6,7
 168 519 168 519 234.5 588.5 c 128,-1,8
 301 658 301 658 401 658 c 0,9,10
 489 658 489 658 536 607 c 128,-1,11
 583 556 583 556 583 468 c 0,12,13
 583 434 583 434 575 384 c 2,14,-1
 558 301 l 2,15,16
 533 179 533 179 466.5 109.5 c 128,-1,17
 400 40 400 40 300 40 c 0,0,1
555 139 m 0,19,20
 598 207 598 207 619.5 289.5 c 128,-1,21
 641 372 641 372 641 454 c 0,22,23
 641 579 641 579 574.5 644.5 c 128,-1,24
 508 710 508 710 406 710 c 0,25,26
 320 710 320 710 255 668.5 c 128,-1,27
 190 627 190 627 147 559 c 128,-1,28
 104 491 104 491 82 408.5 c 128,-1,29
 60 326 60 326 60 244 c 0,30,31
 60 120 60 120 126.5 54 c 128,-1,32
 193 -12 193 -12 295 -12 c 0,33,34
 354 -12 354 -12 403 8 c 1,35,-1
 571 -102 l 1,36,-1
 601 -56 l 1,37,-1
 458 38 l 1,38,18
 515 77 515 77 555 139 c 0,19,20
EndSplineSet
EndChar

StartChar: R
Encoding: 82 82 51
Width: 627
GlyphClass: 3
Flags: W
LayerCount: 2
Fore
SplineSet
515 0 m 1,0,-1
 404 312 l 1,1,2
 499 322 499 322 549 385 c 128,-1,3
 599 448 599 448 599 538 c 0,4,5
 599 607 599 607 559 652.5 c 128,-1,6
 519 698 519 698 435 698 c 2,7,-1
 185 698 l 1,8,-1
 45 0 l 1,9,-1
 103 0 l 1,10,-1
 165 309 l 1,11,-1
 346 309 l 1,12,-1
 453 0 l 1,13,-1
 515 0 l 1,0,-1
383 360 m 2,14,-1
 176 360 l 1,15,-1
 232 646 l 1,16,-1
 430 646 l 2,17,18
 489 646 489 646 514 618 c 128,-1,19
 539 590 539 590 539 547 c 0,20,21
 539 522 539 522 528 475 c 0,22,23
 503 360 503 360 383 360 c 2,14,-1
EndSplineSet
EndChar

StartChar: S
Encoding: 83 83 52
Width: 568
GlyphClass: 1
Flags: W
LayerCount: 2
Fore
SplineSet
251 -12 m 0,0,1
 358 -12 358 -12 419.5 41.5 c 128,-1,2
 481 95 481 95 481 189 c 0,3,4
 481 236 481 236 458 275 c 0,5,6
 425 330 425 330 329 373 c 2,7,-1
 271 398 l 2,8,9
 153 445 153 445 153 524 c 0,10,11
 153 534 153 534 156 556 c 0,12,13
 164 600 164 600 198 625 c 0,14,15
 241 657 241 657 316 657 c 0,16,17
 435 657 435 657 495 570 c 1,18,-1
 540 603 l 1,19,20
 467 710 467 710 319 710 c 0,21,22
 219 710 219 710 156.5 663 c 128,-1,23
 94 616 94 616 94 527 c 0,24,25
 94 479 94 479 124.5 431.5 c 128,-1,26
 155 384 155 384 248 345 c 2,27,-1
 306 321 l 2,28,29
 421 274 421 274 421 193 c 0,30,31
 421 177 421 177 419 158 c 0,32,33
 411 109 411 109 378 80 c 0,34,35
 334 41 334 41 253 41 c 0,36,37
 184 41 184 41 137 68 c 128,-1,38
 90 95 90 95 54 144 c 1,39,-1
 9 107 l 1,40,41
 96 -12 96 -12 251 -12 c 0,0,1
EndSplineSet
EndChar

StartChar: T
Encoding: 84 84 53
Width: 552
GlyphClass: 3
Flags: W
LayerCount: 2
Fore
SplineSet
254 0 m 1,0,-1
 383 646 l 1,1,-1
 610 646 l 1,2,-1
 621 698 l 1,3,-1
 108 698 l 1,4,-1
 98 646 l 1,5,-1
 325 646 l 1,6,-1
 196 0 l 1,7,-1
 254 0 l 1,0,-1
EndSplineSet
EndChar

StartChar: U
Encoding: 85 85 54
Width: 650
GlyphClass: 5
Flags: W
LayerCount: 2
Fore
SplineSet
278 -12 m 0,0,1
 403 -12 403 -12 467.5 52.5 c 128,-1,2
 532 117 532 117 563 275 c 2,3,-1
 648 698 l 1,4,-1
 590 698 l 1,5,-1
 506 279 l 2,6,7
 482 149 482 149 431 94.5 c 128,-1,8
 380 40 380 40 284 40 c 0,9,10
 213 40 213 40 176.5 76.5 c 128,-1,11
 140 113 140 113 140 178 c 0,12,13
 140 197 140 197 143 218 c 0,14,15
 145 233 145 233 237 698 c 1,16,-1
 179 698 l 1,17,-1
 97 287 l 2,18,19
 83 223 83 223 83 173 c 0,20,21
 83 83 83 83 134.5 35.5 c 128,-1,22
 186 -12 186 -12 278 -12 c 0,0,1
EndSplineSet
EndChar

StartChar: V
Encoding: 86 86 55
Width: 582
Flags: W
LayerCount: 2
Fore
SplineSet
276 0 m 1,0,-1
 648 698 l 1,1,-1
 586 698 l 1,2,-1
 251 62 l 1,3,-1
 248 62 l 1,4,-1
 171 698 l 1,5,-1
 113 698 l 1,6,-1
 203 0 l 1,7,-1
 276 0 l 1,0,-1
EndSplineSet
EndChar

StartChar: W
Encoding: 87 87 56
Width: 863
Flags: W
LayerCount: 2
Fore
SplineSet
613 0 m 1,0,-1
 933 698 l 1,1,-1
 872 698 l 1,2,-1
 594 76 l 1,3,-1
 591 76 l 1,4,-1
 553 698 l 1,5,-1
 482 698 l 1,6,-1
 196 76 l 1,7,-1
 193 76 l 1,8,-1
 168 698 l 1,9,-1
 110 698 l 1,10,-1
 143 0 l 1,11,-1
 213 0 l 1,12,-1
 503 628 l 1,13,-1
 507 628 l 1,14,-1
 545 0 l 1,15,-1
 613 0 l 1,0,-1
EndSplineSet
EndChar

StartChar: X
Encoding: 88 88 57
Width: 579
Flags: W
LayerCount: 2
Fore
SplineSet
494 0 m 1,0,-1
 339 348 l 1,1,-1
 633 698 l 1,2,-1
 565 698 l 1,3,-1
 316 397 l 1,4,-1
 312 397 l 1,5,-1
 180 698 l 1,6,-1
 119 698 l 1,7,-1
 269 357 l 1,8,-1
 -27 0 l 1,9,-1
 42 0 l 1,10,-1
 295 306 l 1,11,-1
 299 306 l 1,12,-1
 433 0 l 1,13,-1
 494 0 l 1,0,-1
EndSplineSet
EndChar

StartChar: Y
Encoding: 89 89 58
Width: 563
Flags: W
LayerCount: 2
Fore
SplineSet
259 0 m 1,0,-1
 315 281 l 1,1,-1
 635 698 l 1,2,-1
 568 698 l 1,3,-1
 298 343 l 1,4,-1
 294 343 l 1,5,-1
 166 698 l 1,6,-1
 107 698 l 1,7,-1
 257 281 l 1,8,-1
 201 0 l 1,9,-1
 259 0 l 1,0,-1
EndSplineSet
EndChar

StartChar: Z
Encoding: 90 90 59
Width: 555
Flags: W
LayerCount: 2
Fore
SplineSet
468 0 m 1,0,-1
 479 52 l 1,1,-1
 61 52 l 1,2,-1
 583 642 l 1,3,-1
 594 698 l 1,4,-1
 137 698 l 1,5,-1
 126 646 l 1,6,-1
 515 646 l 1,7,-1
 -6 56 l 1,8,-1
 -18 0 l 1,9,-1
 468 0 l 1,0,-1
EndSplineSet
EndChar

StartChar: bracketleft
Encoding: 91 91 60
Width: 311
Flags: W
LayerCount: 2
Fore
SplineSet
165 -138 m 1,0,-1
 173 -94 l 1,1,-1
 79 -94 l 1,2,-1
 241 716 l 1,3,-1
 336 716 l 1,4,-1
 345 760 l 1,5,-1
 200 760 l 1,6,-1
 20 -138 l 1,7,-1
 165 -138 l 1,0,-1
EndSplineSet
EndChar

StartChar: backslash
Encoding: 92 92 61
Width: 348
Flags: W
LayerCount: 2
Fore
SplineSet
255 -151 m 1,0,-1
 184 740 l 1,1,-1
 136 740 l 1,2,-1
 207 -151 l 1,3,-1
 255 -151 l 1,0,-1
EndSplineSet
EndChar

StartChar: bracketright
Encoding: 93 93 62
Width: 311
Flags: W
LayerCount: 2
Fore
SplineSet
134 -138 m 1,0,-1
 314 760 l 1,1,-1
 169 760 l 1,2,-1
 160 716 l 1,3,-1
 255 716 l 1,4,-1
 93 -94 l 1,5,-1
 -2 -94 l 1,6,-1
 -12 -138 l 1,7,-1
 134 -138 l 1,0,-1
EndSplineSet
EndChar

StartChar: asciicircum
Encoding: 94 94 63
Width: 600
Flags: W
LayerCount: 2
Fore
SplineSet
504 306 m 1,0,-1
 548 328 l 1,1,-1
 414 698 l 1,2,-1
 354 698 l 1,3,-1
 74 331 l 1,4,-1
 115 306 l 1,5,-1
 375 642 l 1,6,-1
 378 642 l 1,7,-1
 504 306 l 1,0,-1
EndSplineSet
EndChar

StartChar: underscore
Encoding: 95 95 64
Width: 552
Flags: W
LayerCount: 2
Fore
SplineSet
441 -154 m 1,0,-1
 451 -107 l 1,1,-1
 -44 -107 l 1,2,-1
 -54 -154 l 1,3,-1
 441 -154 l 1,0,-1
EndSplineSet
EndChar

StartChar: grave
Encoding: 96 96 65
Width: 596
Flags: W
LayerCount: 2
Fore
SplineSet
303 586 m 1,0,-1
 336 602 l 1,1,-1
 268 766 l 1,2,-1
 219 742 l 1,3,-1
 303 586 l 1,0,-1
EndSplineSet
EndChar

StartChar: a
Encoding: 97 97 66
Width: 577
Flags: W
LayerCount: 2
Fore
SplineSet
214 -12 m 0,0,1
 274 -12 274 -12 314.5 19 c 128,-1,2
 355 50 355 50 386 112 c 1,3,-1
 389 112 l 1,4,5
 378 54 378 54 378 45 c 0,6,7
 378 0 378 0 428 0 c 2,8,-1
 500 0 l 1,9,-1
 510 49 l 1,10,-1
 432 49 l 1,11,-1
 524 512 l 1,12,-1
 469 512 l 1,13,-1
 452 425 l 1,14,-1
 449 425 l 1,15,16
 436 473 436 473 397.5 498.5 c 128,-1,17
 359 524 359 524 305 524 c 0,18,19
 243 524 243 524 196 494 c 128,-1,20
 149 464 149 464 118 415 c 128,-1,21
 87 366 87 366 71 304.5 c 128,-1,22
 55 243 55 243 55 181 c 0,23,24
 55 93 55 93 98 40.5 c 128,-1,25
 141 -12 141 -12 214 -12 c 0,0,1
227 38 m 0,26,27
 167 38 167 38 139 77.5 c 128,-1,28
 111 117 111 117 111 175 c 0,29,30
 111 210 111 210 116 234 c 2,31,-1
 128 294 l 2,32,33
 145 379 145 379 191.5 426.5 c 128,-1,34
 238 474 238 474 310 474 c 0,35,36
 383 474 383 474 416 432 c 0,37,38
 438 403 438 403 438 368 c 0,39,40
 438 355 438 355 435 341 c 2,41,-1
 411 222 l 2,42,43
 392 133 392 133 335 85 c 1,44,45
 292 38 292 38 227 38 c 0,26,27
EndSplineSet
EndChar

StartChar: b
Encoding: 98 98 67
Width: 565
Flags: W
LayerCount: 2
Fore
SplineSet
262 -12 m 0,0,1
 324 -12 324 -12 371 18 c 128,-1,2
 418 48 418 48 449.5 97.5 c 128,-1,3
 481 147 481 147 496.5 208 c 128,-1,4
 512 269 512 269 512 331 c 0,5,6
 512 417 512 417 470 471 c 0,7,8
 427 524 427 524 353 524 c 0,9,10
 293 524 293 524 252.5 493 c 128,-1,11
 212 462 212 462 181 400 c 1,12,-1
 178 400 l 1,13,-1
 246 740 l 1,14,-1
 191 740 l 1,15,-1
 43 0 l 1,16,-1
 98 0 l 1,17,-1
 115 87 l 1,18,-1
 118 87 l 1,19,20
 131 39 131 39 169.5 13.5 c 128,-1,21
 208 -12 208 -12 262 -12 c 0,0,1
257 38 m 0,22,23
 184 38 184 38 151 80 c 0,24,25
 129 109 129 109 129 144 c 0,26,27
 129 157 129 157 132 171 c 2,28,-1
 156 290 l 2,29,30
 175 380 175 380 232 427 c 1,31,32
 276 474 276 474 340 474 c 0,33,34
 400 474 400 474 428 435 c 128,-1,35
 456 396 456 396 456 337 c 0,36,37
 456 303 456 303 451 278 c 2,38,-1
 439 218 l 2,39,40
 422 133 422 133 375.5 85.5 c 128,-1,41
 329 38 329 38 257 38 c 0,22,23
EndSplineSet
EndChar

StartChar: c
Encoding: 99 99 68
Width: 484
Flags: W
LayerCount: 2
Fore
SplineSet
231 -12 m 0,0,1
 359 -12 359 -12 431 123 c 1,2,-1
 387 144 l 1,3,4
 328 37 328 37 236 37 c 0,5,6
 171 37 171 37 139.5 79 c 128,-1,7
 108 121 108 121 108 184 c 0,8,9
 108 210 108 210 113 236 c 2,10,-1
 127 306 l 2,11,12
 142 385 142 385 187 430 c 128,-1,13
 232 475 232 475 300 475 c 0,14,15
 393 475 393 475 418 386 c 1,16,-1
 464 405 l 1,17,18
 451 459 451 459 409 491.5 c 128,-1,19
 367 524 367 524 302 524 c 0,20,21
 187 524 187 524 120.5 427.5 c 128,-1,22
 54 331 54 331 54 194 c 0,23,24
 54 103 54 103 100 45.5 c 128,-1,25
 146 -12 146 -12 231 -12 c 0,0,1
EndSplineSet
EndChar

StartChar: d
Encoding: 100 100 69
Width: 577
Flags: W
LayerCount: 2
Fore
SplineSet
214 -12 m 0,0,1
 274 -12 274 -12 314.5 19 c 128,-1,2
 355 50 355 50 386 112 c 1,3,-1
 389 112 l 1,4,5
 378 54 378 54 378 45 c 0,6,7
 378 0 378 0 428 0 c 2,8,-1
 500 0 l 1,9,-1
 510 49 l 1,10,-1
 432 49 l 1,11,-1
 570 740 l 1,12,-1
 515 740 l 1,13,-1
 452 425 l 1,14,-1
 449 425 l 1,15,16
 436 473 436 473 397.5 498.5 c 128,-1,17
 359 524 359 524 305 524 c 0,18,19
 243 524 243 524 196 494 c 128,-1,20
 149 464 149 464 118 415 c 128,-1,21
 87 366 87 366 71 304.5 c 128,-1,22
 55 243 55 243 55 181 c 0,23,24
 55 93 55 93 98 40.5 c 128,-1,25
 141 -12 141 -12 214 -12 c 0,0,1
227 38 m 0,26,27
 167 38 167 38 139 77.5 c 128,-1,28
 111 117 111 117 111 175 c 0,29,30
 111 210 111 210 116 234 c 2,31,-1
 128 294 l 2,32,33
 145 379 145 379 191.5 426.5 c 128,-1,34
 238 474 238 474 310 474 c 0,35,36
 383 474 383 474 416 432 c 0,37,38
 438 403 438 403 438 368 c 0,39,40
 438 355 438 355 435 341 c 2,41,-1
 411 222 l 2,42,43
 392 133 392 133 335 85 c 1,44,45
 292 38 292 38 227 38 c 0,26,27
EndSplineSet
EndChar

StartChar: e
Encoding: 101 101 70
Width: 508
Flags: W
LayerCount: 2
Fore
SplineSet
240 -12 m 0,0,1
 367 -12 367 -12 451 106 c 1,2,-1
 413 136 l 1,3,4
 383 90 383 90 340 63.5 c 128,-1,5
 297 37 297 37 243 37 c 0,6,7
 110 37 110 37 109 183 c 0,8,9
 109 212 109 212 112 226 c 1,10,11
 317 230 317 230 399 275 c 0,12,13
 477 316 477 316 477 392 c 0,14,15
 477 457 477 457 429.5 490.5 c 128,-1,16
 382 524 382 524 314 524 c 0,17,18
 255 524 255 524 207 498 c 128,-1,19
 159 472 159 472 125 427 c 0,20,21
 53 329 53 329 53 197 c 0,22,23
 53 93 53 93 101.5 40.5 c 128,-1,24
 150 -12 150 -12 240 -12 c 0,0,1
119 270 m 1,25,-1
 124 294 l 2,26,27
 142 376 142 376 190 426 c 128,-1,28
 238 476 238 476 308 476 c 0,29,30
 359 476 359 476 389.5 456 c 128,-1,31
 420 436 420 436 420 393 c 0,32,33
 420 367 420 367 408 345.5 c 128,-1,34
 396 324 396 324 364 308 c 0,35,36
 302 276 302 276 119 270 c 1,25,-1
EndSplineSet
EndChar

StartChar: f
Encoding: 102 102 71
Width: 297
Flags: W
LayerCount: 2
Fore
SplineSet
4 -200 m 2,0,1
 48 -200 48 -200 68.5 -178.5 c 128,-1,2
 89 -157 89 -157 96 -118 c 2,3,-1
 212 463 l 1,4,-1
 314 463 l 1,5,-1
 324 512 l 1,6,-1
 221 512 l 1,7,-1
 257 691 l 1,8,-1
 362 691 l 1,9,-1
 372 740 l 1,10,-1
 287 740 l 2,11,12
 242 740 242 740 222 718.5 c 128,-1,13
 202 697 202 697 195 658 c 2,14,-1
 166 512 l 1,15,-1
 75 512 l 1,16,-1
 66 463 l 1,17,-1
 157 463 l 1,18,-1
 33 -151 l 1,19,-1
 -60 -151 l 1,20,-1
 -70 -200 l 1,21,-1
 4 -200 l 2,0,1
EndSplineSet
EndChar

StartChar: g
Encoding: 103 103 72
Width: 558
Flags: W
LayerCount: 2
Fore
SplineSet
189 -212 m 0,0,1
 68 -212 68 -212 12 -132 c 1,2,-1
 52 -97 l 1,3,4
 95 -163 95 -163 189 -163 c 0,5,6
 336 -163 336 -163 367 -4 c 2,7,-1
 389 112 l 1,8,-1
 386 112 l 1,9,10
 355 50 355 50 314 19 c 128,-1,11
 273 -12 273 -12 214 -12 c 0,12,13
 141 -12 141 -12 98 41 c 128,-1,14
 55 94 55 94 55 181 c 0,15,16
 55 264 55 264 83 342.5 c 128,-1,17
 111 421 111 421 166.5 472.5 c 128,-1,18
 222 524 222 524 305 524 c 0,19,20
 358 524 358 524 397 498.5 c 128,-1,21
 436 473 436 473 449 425 c 1,22,-1
 452 425 l 1,23,-1
 470 512 l 1,24,-1
 525 512 l 1,25,-1
 420 -12 l 2,26,27
 380 -212 380 -212 189 -212 c 0,0,1
227 38 m 0,28,29
 286 38 286 38 335 85 c 1,30,31
 392 133 392 133 411 222 c 2,32,-1
 435 341 l 2,33,34
 438 354 438 354 438 366 c 0,35,36
 438 386 438 386 429 410.5 c 128,-1,37
 420 435 420 435 390.5 454.5 c 128,-1,38
 361 474 361 474 310 474 c 0,39,40
 238 474 238 474 191.5 426.5 c 128,-1,41
 145 379 145 379 128 294 c 2,42,-1
 116 234 l 2,43,44
 111 208 111 208 111 175 c 0,45,46
 111 117 111 117 138.5 77.5 c 128,-1,47
 166 38 166 38 227 38 c 0,28,29
EndSplineSet
EndChar

StartChar: h
Encoding: 104 104 73
Width: 558
Flags: W
LayerCount: 2
Fore
SplineSet
490 0 m 1,0,-1
 499 49 l 1,1,-1
 421 49 l 1,2,-1
 475 319 l 2,3,4
 482 357 482 357 482 385 c 0,5,6
 482 451 482 451 449 487.5 c 128,-1,7
 416 524 416 524 350 524 c 0,8,9
 291 524 291 524 251 495.5 c 128,-1,10
 211 467 211 467 184 409 c 1,11,-1
 180 409 l 1,12,-1
 246 740 l 1,13,-1
 191 740 l 1,14,-1
 43 0 l 1,15,-1
 98 0 l 1,16,-1
 157 297 l 1,17,18
 177 375 177 375 223 425 c 0,19,20
 273 474 273 474 333 474 c 0,21,22
 426 474 426 474 426 376 c 0,23,24
 426 351 426 351 420 319 c 0,25,26
 369 60 369 60 368 57 c 128,-1,27
 367 54 367 54 367 43 c 0,28,29
 367 0 367 0 415 0 c 2,30,-1
 490 0 l 1,0,-1
EndSplineSet
EndChar

StartChar: i
Encoding: 105 105 74
Width: 254
Flags: W
LayerCount: 2
Fore
SplineSet
204 651 m 0,0,1
 242 651 242 651 247 683 c 2,2,-1
 250 698 l 1,3,-1
 250 705 l 2,4,5
 250 733 250 733 216 733 c 0,6,7
 179 733 179 733 173 701 c 2,8,-1
 170 679 l 2,9,10
 170 651 170 651 204 651 c 0,0,1
176 0 m 1,11,-1
 186 49 l 1,12,-1
 108 49 l 1,13,-1
 201 512 l 1,14,-1
 146 512 l 1,15,16
 56 64 56 64 55 61 c 128,-1,17
 54 58 54 58 54 46 c 0,18,19
 54 0 54 0 105 0 c 2,20,-1
 176 0 l 1,11,-1
EndSplineSet
EndChar

StartChar: j
Encoding: 106 106 75
Width: 244
Flags: W
LayerCount: 2
Fore
SplineSet
-12 -200 m 2,0,1
 28 -200 28 -200 46.5 -182 c 128,-1,2
 65 -164 65 -164 73 -125 c 2,3,-1
 200 512 l 1,4,-1
 145 512 l 1,5,-1
 13 -151 l 1,6,-1
 -71 -151 l 1,7,-1
 -81 -200 l 1,8,-1
 -12 -200 l 2,0,1
203 651 m 0,9,10
 241 651 241 651 247 683 c 2,11,-1
 250 698 l 1,12,-1
 250 705 l 2,13,14
 250 733 250 733 217 733 c 0,15,16
 180 733 180 733 173 701 c 2,17,-1
 170 679 l 2,18,19
 170 651 170 651 203 651 c 0,9,10
EndSplineSet
EndChar

StartChar: k
Encoding: 107 107 76
Width: 503
Flags: W
LayerCount: 2
Fore
SplineSet
449 0 m 1,0,-1
 459 49 l 1,1,-1
 396 49 l 1,2,-1
 277 302 l 1,3,-1
 512 512 l 1,4,-1
 444 512 l 1,5,6
 298 384 298 384 153 254 c 1,7,-1
 149 254 l 1,8,-1
 246 740 l 1,9,-1
 191 740 l 1,10,-1
 43 0 l 1,11,-1
 98 0 l 1,12,-1
 135 184 l 1,13,-1
 233 270 l 1,14,-1
 340 41 l 2,15,16
 349 18 349 18 363 9 c 128,-1,17
 377 0 377 0 403 0 c 2,18,-1
 449 0 l 1,0,-1
EndSplineSet
EndChar

StartChar: l
Encoding: 108 108 77
Width: 253
Flags: W
LayerCount: 2
Fore
SplineSet
179 0 m 1,0,-1
 189 49 l 1,1,-1
 108 49 l 1,2,-1
 246 740 l 1,3,-1
 191 740 l 1,4,5
 56 64 56 64 55 60.5 c 128,-1,6
 54 57 54 57 54 46 c 0,7,8
 54 0 54 0 105 0 c 2,9,-1
 179 0 l 1,0,-1
EndSplineSet
EndChar

StartChar: m
Encoding: 109 109 78
Width: 846
Flags: W
LayerCount: 2
Fore
SplineSet
777 0 m 1,0,-1
 787 49 l 1,1,-1
 709 49 l 1,2,-1
 763 320 l 2,3,4
 770 356 770 356 770 386 c 0,5,6
 770 452 770 452 737.5 488 c 128,-1,7
 705 524 705 524 641 524 c 0,8,9
 527 524 527 524 473 406 c 1,10,-1
 468 406 l 1,11,12
 464 460 464 460 433.5 492 c 128,-1,13
 403 524 403 524 346 524 c 0,14,15
 288 524 288 524 249.5 494.5 c 128,-1,16
 211 465 211 465 184 409 c 1,17,-1
 180 409 l 1,18,-1
 201 512 l 1,19,-1
 145 512 l 1,20,-1
 43 0 l 1,21,-1
 98 0 l 1,22,-1
 157 297 l 2,23,24
 171 357 171 357 214 414 c 0,25,26
 259 474 259 474 328 474 c 0,27,28
 414 474 414 474 414 379 c 0,29,30
 414 355 414 355 407 319 c 2,31,-1
 343 0 l 1,32,-1
 398 0 l 1,33,-1
 459 300 l 2,34,35
 475 375 475 375 519.5 424.5 c 128,-1,36
 564 474 564 474 624 474 c 0,37,38
 714 474 714 474 714 378 c 0,39,40
 714 356 714 356 708 319 c 0,41,42
 654 50 654 50 654 42 c 0,43,44
 654 0 654 0 703 0 c 2,45,-1
 777 0 l 1,0,-1
EndSplineSet
EndChar

StartChar: n
Encoding: 110 110 79
Width: 558
Flags: W
LayerCount: 2
Fore
SplineSet
489 0 m 1,0,-1
 499 49 l 1,1,-1
 421 49 l 1,2,-1
 475 319 l 2,3,4
 482 357 482 357 482 385 c 0,5,6
 482 451 482 451 449 487.5 c 128,-1,7
 416 524 416 524 350 524 c 0,8,9
 291 524 291 524 251 495.5 c 128,-1,10
 211 467 211 467 184 409 c 1,11,-1
 180 409 l 1,12,-1
 201 512 l 1,13,-1
 145 512 l 1,14,-1
 43 0 l 1,15,-1
 98 0 l 1,16,-1
 157 297 l 1,17,18
 177 375 177 375 223 425 c 0,19,20
 273 474 273 474 333 474 c 0,21,22
 426 474 426 474 426 376 c 0,23,24
 426 351 426 351 420 319 c 0,25,26
 366 50 366 50 366 42 c 0,27,28
 366 0 366 0 415 0 c 2,29,-1
 489 0 l 1,0,-1
EndSplineSet
EndChar

StartChar: o
Encoding: 111 111 80
Width: 544
Flags: W
LayerCount: 2
Fore
SplineSet
231 -12 m 0,0,1
 291 -12 291 -12 339.5 15.5 c 128,-1,2
 388 43 388 43 422 90 c 0,3,4
 491 191 491 191 491 324 c 0,5,6
 491 418 491 418 442.5 471 c 128,-1,7
 394 524 394 524 313 524 c 0,8,9
 253 524 253 524 204.5 497 c 128,-1,10
 156 470 156 470 123 423 c 0,11,12
 53 322 53 322 53 188 c 0,13,14
 53 94 53 94 101.5 41 c 128,-1,15
 150 -12 150 -12 231 -12 c 0,0,1
238 37 m 0,16,17
 173 37 173 37 141 76 c 128,-1,18
 109 115 109 115 109 174 c 0,19,20
 109 204 109 204 114 230 c 2,21,-1
 126 291 l 2,22,23
 144 379 144 379 191.5 427 c 128,-1,24
 239 475 239 475 306 475 c 0,25,26
 372 475 372 475 403.5 436 c 128,-1,27
 435 397 435 397 435 338 c 0,28,29
 435 308 435 308 430 282 c 2,30,-1
 418 221 l 2,31,32
 400 133 400 133 352.5 85 c 128,-1,33
 305 37 305 37 238 37 c 0,16,17
EndSplineSet
EndChar

StartChar: p
Encoding: 112 112 81
Width: 566
Flags: W
LayerCount: 2
Fore
SplineSet
57 -200 m 1,0,-1
 114 87 l 1,1,-1
 117 87 l 1,2,3
 130 39 130 39 168.5 13.5 c 128,-1,4
 207 -12 207 -12 261 -12 c 0,5,6
 323 -12 323 -12 370 18 c 128,-1,7
 417 48 417 48 448.5 97.5 c 128,-1,8
 480 147 480 147 495.5 208 c 128,-1,9
 511 269 511 269 511 331 c 0,10,11
 511 417 511 417 469 471 c 0,12,13
 426 524 426 524 352 524 c 0,14,15
 292 524 292 524 251.5 493 c 128,-1,16
 211 462 211 462 180 400 c 1,17,-1
 177 400 l 1,18,-1
 200 512 l 1,19,-1
 145 512 l 1,20,-1
 2 -200 l 1,21,-1
 57 -200 l 1,0,-1
256 38 m 0,22,23
 183 38 183 38 150 80 c 0,24,25
 128 109 128 109 128 144 c 0,26,27
 128 157 128 157 131 171 c 2,28,-1
 155 290 l 2,29,30
 174 380 174 380 231 427 c 1,31,32
 275 474 275 474 339 474 c 0,33,34
 399 474 399 474 427 435 c 128,-1,35
 455 396 455 396 455 337 c 0,36,37
 455 303 455 303 450 278 c 2,38,-1
 438 218 l 2,39,40
 421 133 421 133 374.5 85.5 c 128,-1,41
 328 38 328 38 256 38 c 0,22,23
EndSplineSet
EndChar

StartChar: q
Encoding: 113 113 82
Width: 567
Flags: W
LayerCount: 2
Fore
SplineSet
382 -200 m 1,0,-1
 524 512 l 1,1,-1
 469 512 l 1,2,-1
 452 425 l 1,3,-1
 449 425 l 1,4,5
 436 473 436 473 397.5 498.5 c 128,-1,6
 359 524 359 524 305 524 c 0,7,8
 243 524 243 524 196 494 c 128,-1,9
 149 464 149 464 118 415 c 128,-1,10
 87 366 87 366 71 304.5 c 128,-1,11
 55 243 55 243 55 181 c 0,12,13
 55 93 55 93 98 40.5 c 128,-1,14
 141 -12 141 -12 214 -12 c 0,15,16
 274 -12 274 -12 314.5 19 c 128,-1,17
 355 50 355 50 386 112 c 1,18,-1
 389 112 l 1,19,-1
 327 -200 l 1,20,-1
 382 -200 l 1,0,-1
227 38 m 0,21,22
 167 38 167 38 139 77.5 c 128,-1,23
 111 117 111 117 111 175 c 0,24,25
 111 210 111 210 116 234 c 2,26,-1
 128 294 l 2,27,28
 145 379 145 379 191.5 426.5 c 128,-1,29
 238 474 238 474 310 474 c 0,30,31
 383 474 383 474 416 432 c 0,32,33
 438 403 438 403 438 368 c 0,34,35
 438 355 438 355 435 341 c 2,36,-1
 411 222 l 2,37,38
 392 133 392 133 335 85 c 1,39,40
 292 38 292 38 227 38 c 0,21,22
EndSplineSet
EndChar

StartChar: r
Encoding: 114 114 83
Width: 354
Flags: W
LayerCount: 2
Fore
SplineSet
98 0 m 1,0,-1
 158 302 l 2,1,2
 171 366 171 366 215.5 411.5 c 128,-1,3
 260 457 260 457 332 457 c 2,4,-1
 365 457 l 1,5,-1
 376 512 l 1,6,-1
 344 512 l 2,7,8
 278 512 278 512 241.5 480.5 c 128,-1,9
 205 449 205 449 182 405 c 1,10,-1
 178 405 l 1,11,-1
 201 512 l 1,12,-1
 145 512 l 1,13,-1
 43 0 l 1,14,-1
 98 0 l 1,0,-1
EndSplineSet
EndChar

StartChar: s
Encoding: 115 115 84
Width: 477
Flags: W
LayerCount: 2
Fore
SplineSet
214 -12 m 0,0,1
 299 -12 299 -12 347.5 28.5 c 128,-1,2
 396 69 396 69 396 141 c 0,3,4
 396 231 396 231 271 277 c 2,5,-1
 232 291 l 2,6,7
 140 324 140 324 140 382 c 0,8,9
 140 472 140 472 256 475 c 0,10,11
 345 475 345 475 396 410 c 1,12,-1
 434 445 l 1,13,14
 370 524 370 524 259 524 c 0,15,16
 186 524 186 524 135.5 488 c 128,-1,17
 85 452 85 452 85 381 c 0,18,19
 85 285 85 285 214 242 c 1,20,-1
 254 227 l 2,21,22
 340 198 340 198 340 133 c 0,23,24
 340 40 340 40 218 37 c 0,25,26
 116 37 116 37 59 119 c 1,27,-1
 17 86 l 1,28,29
 88 -12 88 -12 214 -12 c 0,0,1
EndSplineSet
EndChar

StartChar: t
Encoding: 116 116 85
Width: 313
Flags: W
LayerCount: 2
Fore
SplineSet
221 0 m 1,0,-1
 231 49 l 1,1,-1
 125 49 l 1,2,-1
 208 463 l 1,3,-1
 321 463 l 1,4,-1
 331 512 l 1,5,-1
 217 512 l 1,6,-1
 246 655 l 1,7,-1
 194 655 l 1,8,-1
 173 552 l 2,9,10
 170 530 170 530 161.5 521 c 128,-1,11
 153 512 153 512 130 512 c 2,12,-1
 79 512 l 1,13,-1
 69 462 l 1,14,-1
 153 462 l 1,15,-1
 75 73 l 2,16,17
 72 62 72 62 72 45 c 0,18,19
 72 0 72 0 124 0 c 2,20,-1
 221 0 l 1,0,-1
EndSplineSet
EndChar

StartChar: u
Encoding: 117 117 86
Width: 557
Flags: W
LayerCount: 2
Fore
SplineSet
199 -12 m 0,0,1
 256 -12 256 -12 296 16.5 c 128,-1,2
 336 45 336 45 363 103 c 1,3,-1
 367 103 l 1,4,5
 358 54 358 54 358 46 c 0,6,7
 358 25 358 25 370 12.5 c 128,-1,8
 382 0 382 0 407 0 c 2,9,-1
 480 0 l 1,10,-1
 489 49 l 1,11,-1
 412 49 l 1,12,-1
 504 512 l 1,13,-1
 449 512 l 1,14,-1
 390 215 l 2,15,16
 372 142 372 142 324 87 c 0,17,18
 279 38 279 38 215 38 c 0,19,20
 167 38 167 38 145.5 63 c 128,-1,21
 124 88 124 88 124 136 c 0,22,23
 124 167 124 167 129 193 c 2,24,-1
 193 512 l 1,25,-1
 138 512 l 1,26,-1
 74 193 l 2,27,28
 67 156 67 156 67 127 c 0,29,30
 67 61 67 61 100 24.5 c 128,-1,31
 133 -12 133 -12 199 -12 c 0,0,1
EndSplineSet
EndChar

StartChar: v
Encoding: 118 118 87
Width: 475
Flags: W
LayerCount: 2
Fore
SplineSet
218 0 m 1,0,-1
 503 512 l 1,1,-1
 444 512 l 1,2,-1
 197 61 l 1,3,-1
 193 61 l 1,4,-1
 123 512 l 1,5,-1
 69 512 l 1,6,-1
 153 0 l 1,7,-1
 218 0 l 1,0,-1
EndSplineSet
EndChar

StartChar: w
Encoding: 119 119 88
Width: 731
Flags: W
LayerCount: 2
Fore
SplineSet
506 0 m 1,0,-1
 749 512 l 1,1,-1
 695 512 l 1,2,-1
 484 62 l 1,3,-1
 480 62 l 1,4,-1
 439 512 l 1,5,-1
 384 512 l 1,6,-1
 163 60 l 1,7,-1
 159 60 l 1,8,-1
 130 512 l 1,9,-1
 77 512 l 1,10,-1
 115 0 l 1,11,-1
 185 0 l 1,12,-1
 395 429 l 1,13,-1
 399 429 l 1,14,-1
 439 0 l 1,15,-1
 506 0 l 1,0,-1
EndSplineSet
EndChar

StartChar: x
Encoding: 120 120 89
Width: 486
Flags: W
LayerCount: 2
Fore
SplineSet
411 0 m 1,0,-1
 277 257 l 1,1,-1
 501 512 l 1,2,-1
 436 512 l 1,3,-1
 253 300 l 1,4,-1
 249 300 l 1,5,-1
 142 512 l 1,6,-1
 83 512 l 1,7,-1
 211 263 l 1,8,-1
 -20 0 l 1,9,-1
 46 0 l 1,10,-1
 235 221 l 1,11,-1
 239 221 l 1,12,-1
 352 0 l 1,13,-1
 411 0 l 1,0,-1
EndSplineSet
EndChar

StartChar: y
Encoding: 121 121 90
Width: 475
Flags: W
LayerCount: 2
Fore
SplineSet
56 -200 m 2,0,1
 86 -200 86 -200 104 -186.5 c 128,-1,2
 122 -173 122 -173 139 -140 c 2,3,-1
 503 512 l 1,4,-1
 444 512 l 1,5,-1
 199 61 l 1,6,-1
 195 61 l 1,7,-1
 124 512 l 1,8,-1
 70 512 l 1,9,-1
 155 -11 l 1,10,-1
 77 -152 l 1,11,-1
 -12 -152 l 1,12,-1
 -22 -200 l 1,13,-1
 56 -200 l 2,0,1
EndSplineSet
EndChar

StartChar: z
Encoding: 122 122 91
Width: 441
Flags: W
LayerCount: 2
Fore
SplineSet
359 0 m 1,0,-1
 369 49 l 1,1,-1
 72 49 l 1,2,-1
 437 464 l 1,3,-1
 446 512 l 1,4,-1
 97 512 l 1,5,-1
 88 463 l 1,6,-1
 371 463 l 1,7,-1
 6 48 l 1,8,-1
 -3 0 l 1,9,-1
 359 0 l 1,0,-1
EndSplineSet
EndChar

StartChar: braceleft
Encoding: 123 123 92
Width: 324
Flags: W
LayerCount: 2
Fore
SplineSet
184 -138 m 1,0,-1
 195 -93 l 1,1,-1
 98 -93 l 1,2,-1
 154 186 l 2,3,4
 158 202 158 202 158 218 c 0,5,6
 158 292 158 292 82 301 c 1,7,-1
 85 317 l 1,8,9
 183 326 183 326 204 436 c 2,10,-1
 259 715 l 1,11,-1
 355 715 l 1,12,-1
 363 760 l 1,13,-1
 271 760 l 2,14,15
 219 760 219 760 206 699 c 2,16,-1
 153 433 l 2,17,18
 137 344 137 344 43 344 c 1,19,-1
 30 278 l 1,20,21
 107 278 107 278 107 215 c 0,22,23
 107 205 107 205 104 189 c 0,24,25
 49 -87 49 -87 49 -93 c 0,26,27
 49 -113 49 -113 61.5 -125.5 c 128,-1,28
 74 -138 74 -138 98 -138 c 2,29,-1
 184 -138 l 1,0,-1
EndSplineSet
EndChar

StartChar: bar
Encoding: 124 124 93
Width: 277
Flags: W
LayerCount: 2
Fore
SplineSet
84 -138 m 1,0,-1
 264 760 l 1,1,-1
 216 760 l 1,2,-1
 36 -138 l 1,3,-1
 84 -138 l 1,0,-1
EndSplineSet
EndChar

StartChar: braceright
Encoding: 125 125 94
Width: 324
Flags: W
LayerCount: 2
Fore
SplineSet
75 -138 m 2,0,1
 128 -138 128 -138 139 -77 c 2,2,-1
 193 189 l 2,3,4
 210 278 210 278 302 278 c 1,5,-1
 316 344 l 1,6,7
 238 344 238 344 238 407 c 0,8,9
 238 418 238 418 241 433 c 2,10,-1
 296 706 l 1,11,-1
 296 715 l 2,12,13
 296 735 296 735 284 747.5 c 128,-1,14
 272 760 272 760 248 760 c 2,15,-1
 161 760 l 1,16,-1
 151 715 l 1,17,-1
 248 715 l 1,18,-1
 192 436 l 2,19,20
 188 421 188 421 188 404 c 0,21,22
 188 331 188 331 264 320 c 1,23,-1
 260 304 l 1,24,25
 161 295 161 295 142 186 c 2,26,-1
 87 -93 l 1,27,-1
 -9 -93 l 1,28,-1
 -17 -138 l 1,29,-1
 75 -138 l 2,0,1
EndSplineSet
EndChar

StartChar: asciitilde
Encoding: 126 126 95
Width: 600
Flags: W
LayerCount: 2
Fore
SplineSet
416 244 m 0,0,1
 456 244 456 244 485.5 257.5 c 128,-1,2
 515 271 515 271 541 295 c 1,3,-1
 521 329 l 1,4,5
 495 310 495 310 474 301 c 128,-1,6
 453 292 453 292 427 292 c 0,7,8
 398 292 398 292 374 301.5 c 128,-1,9
 350 311 350 311 304 336 c 0,10,11
 282 349 282 349 262 356 c 0,12,13
 236 365 236 365 204 365 c 0,14,15
 164 365 164 365 134.5 351.5 c 128,-1,16
 105 338 105 338 79 314 c 1,17,-1
 99 280 l 1,18,19
 125 299 125 299 146 308 c 128,-1,20
 167 317 167 317 193 317 c 0,21,22
 222 317 222 317 246 307.5 c 128,-1,23
 270 298 270 298 299 282 c 0,24,25
 332 263 332 263 358 253.5 c 128,-1,26
 384 244 384 244 416 244 c 0,0,1
EndSplineSet
EndChar

StartChar: exclamdown
Encoding: 161 161 97
Width: 262
Flags: W
LayerCount: 2
Fore
SplineSet
73 -185 m 1,0,-1
 119 50 l 1,1,-1
 160 331 l 1,2,-1
 132 331 l 1,3,-1
 60 50 l 1,4,-1
 13 -185 l 1,5,-1
 73 -185 l 1,0,-1
166 420 m 0,6,7
 210 420 210 420 216 461 c 0,8,9
 220 472 220 472 220 489 c 0,10,11
 220 521 220 521 179 521 c 0,12,13
 135 521 135 521 129 480 c 0,14,15
 125 469 125 469 125 452 c 0,16,17
 125 421 125 421 166 420 c 0,6,7
EndSplineSet
EndChar

StartChar: cent
Encoding: 162 162 98
Width: 498
Flags: W
LayerCount: 2
Fore
SplineSet
213 -114 m 1,0,-1
 233 -12 l 1,1,2
 360 -9 360 -9 431 123 c 1,3,-1
 387 144 l 1,4,5
 328 38 328 38 243 36 c 1,6,-1
 329 472 l 1,7,8
 398 457 398 457 417 385 c 1,9,-1
 466 406 l 1,10,11
 439 498 439 498 340 520 c 1,12,-1
 362 626 l 1,13,-1
 312 626 l 1,14,-1
 292 523 l 1,15,16
 177 514 177 514 115.5 420.5 c 128,-1,17
 54 327 54 327 54 195 c 0,18,19
 54 114 54 114 88 61 c 128,-1,20
 122 8 122 8 186 -7 c 1,21,-1
 164 -114 l 1,22,-1
 213 -114 l 1,0,-1
196 42 m 1,23,24
 150 54 150 54 129 92.5 c 128,-1,25
 108 131 108 131 108 183 c 0,26,27
 108 212 108 212 113 236 c 2,28,-1
 127 306 l 2,29,30
 157 456 157 456 282 473 c 1,31,-1
 196 42 l 1,23,24
EndSplineSet
EndChar

StartChar: sterling
Encoding: 163 163 99
Width: 578
Flags: W
LayerCount: 2
Fore
SplineSet
456 0 m 1,0,-1
 467 52 l 1,1,-1
 95 52 l 1,2,-1
 96 56 l 1,3,4
 147 83 147 83 181 138.5 c 128,-1,5
 215 194 215 194 220 269 c 0,6,7
 220 291 220 291 219 297 c 1,8,-1
 417 297 l 1,9,-1
 427 346 l 1,10,-1
 216 346 l 1,11,12
 208 405 208 405 208 463 c 0,13,14
 208 559 208 559 258.5 608.5 c 128,-1,15
 309 658 309 658 388 658 c 0,16,17
 498 658 498 658 535 562 c 1,18,-1
 584 593 l 1,19,20
 530 710 530 710 392 710 c 0,21,22
 286 710 286 710 217.5 643 c 128,-1,23
 149 576 149 576 149 468 c 0,24,25
 149 410 149 410 158 346 c 1,26,-1
 81 346 l 1,27,-1
 71 297 l 1,28,-1
 162 297 l 1,29,30
 162 290 162 290 163 284 c 2,31,-1
 163 270 l 2,32,33
 163 212 163 212 135.5 157 c 128,-1,34
 108 102 108 102 43 72 c 1,35,-1
 29 0 l 1,36,-1
 456 0 l 1,0,-1
EndSplineSet
EndChar

StartChar: yen
Encoding: 165 165 100
Width: 583
Flags: W
LayerCount: 2
Fore
SplineSet
269 0 m 1,0,-1
 300 154 l 1,1,-1
 481 154 l 1,2,-1
 491 201 l 1,3,-1
 309 201 l 1,4,-1
 332 315 l 1,5,-1
 514 315 l 1,6,-1
 524 362 l 1,7,-1
 368 362 l 1,8,-1
 632 698 l 1,9,-1
 565 698 l 1,10,-1
 313 371 l 1,11,-1
 309 371 l 1,12,-1
 190 698 l 1,13,-1
 129 698 l 1,14,-1
 256 362 l 1,15,-1
 106 362 l 1,16,-1
 96 315 l 1,17,-1
 275 315 l 1,18,-1
 252 201 l 1,19,-1
 73 201 l 1,20,-1
 63 154 l 1,21,-1
 243 154 l 1,22,-1
 211 0 l 1,23,-1
 269 0 l 1,0,-1
EndSplineSet
EndChar

StartChar: brokenbar
Encoding: 166 166 101
Width: 277
Flags: W
LayerCount: 2
Fore
SplineSet
192 404 m 1,0,-1
 264 760 l 1,1,-1
 216 760 l 1,2,-1
 144 404 l 1,3,-1
 192 404 l 1,0,-1
84 -138 m 1,4,-1
 156 218 l 1,5,-1
 108 218 l 1,6,-1
 36 -138 l 1,7,-1
 84 -138 l 1,4,-1
EndSplineSet
EndChar

StartChar: section
Encoding: 167 167 102
Width: 560
Flags: W
LayerCount: 2
Fore
SplineSet
198 -155 m 0,0,1
 282 -155 282 -155 340.5 -109 c 128,-1,2
 399 -63 399 -63 399 16 c 0,3,4
 399 87 399 87 343 129 c 1,5,-1
 344 136 l 1,6,7
 408 151 408 151 446.5 191 c 128,-1,8
 485 231 485 231 485 294 c 0,9,10
 485 342 485 342 458 372 c 128,-1,11
 431 402 431 402 369 422 c 2,12,-1
 303 444 l 2,13,14
 219 469 219 469 219 545 c 0,15,16
 219 599 219 599 259.5 630 c 128,-1,17
 300 661 300 661 358 661 c 0,18,19
 436 661 436 661 486 615 c 1,20,-1
 524 653 l 1,21,22
 467 710 467 710 363 710 c 0,23,24
 279 710 279 710 220.5 664.5 c 128,-1,25
 162 619 162 619 162 539 c 0,26,27
 162 469 162 469 218 426 c 1,28,-1
 217 419 l 1,29,30
 153 404 153 404 114.5 364 c 128,-1,31
 76 324 76 324 76 261 c 0,32,33
 76 213 76 213 103 183 c 128,-1,34
 130 153 130 153 192 133 c 2,35,-1
 258 111 l 2,36,37
 342 87 342 87 342 10 c 0,38,39
 342 -44 342 -44 302 -75 c 128,-1,40
 262 -106 262 -106 203 -106 c 0,41,42
 125 -106 125 -106 75 -60 c 1,43,-1
 37 -98 l 1,44,45
 95 -155 95 -155 198 -155 c 0,0,1
315 145 m 1,46,-1
 226 175 l 2,47,48
 176 190 176 190 154.5 213 c 128,-1,49
 133 236 133 236 133 278 c 0,50,51
 133 368 133 368 246 410 c 1,52,-1
 335 380 l 2,53,54
 385 364 385 364 406.5 341.5 c 128,-1,55
 428 319 428 319 428 277 c 0,56,57
 428 187 428 187 315 145 c 1,46,-1
EndSplineSet
EndChar

StartChar: dieresis
Encoding: 168 168 103
Width: 596
Flags: W
LayerCount: 2
Fore
SplineSet
223 626 m 0,0,1
 261 626 261 626 266 658 c 2,2,-1
 269 673 l 1,3,-1
 269 680 l 2,4,5
 269 708 269 708 235 708 c 0,6,7
 198 708 198 708 192 676 c 2,8,-1
 189 654 l 2,9,10
 189 626 189 626 223 626 c 0,0,1
405 626 m 0,11,12
 443 626 443 626 448 658 c 2,13,-1
 451 673 l 1,14,-1
 451 680 l 2,15,16
 451 708 451 708 417 708 c 0,17,18
 380 708 380 708 374 676 c 2,19,-1
 371 654 l 2,20,21
 371 626 371 626 405 626 c 0,11,12
EndSplineSet
EndChar

StartChar: copyright
Encoding: 169 169 104
Width: 752
Flags: W
LayerCount: 2
Fore
SplineSet
342 -12 m 0,0,1
 506 -12 506 -12 618 106 c 0,2,3
 670 163 670 163 699.5 240 c 128,-1,4
 729 317 729 317 729 409 c 0,5,6
 729 543 729 543 650 627 c 0,7,8
 571 709 571 709 440 709 c 0,9,10
 277 709 277 709 164 591 c 0,11,12
 112 534 112 534 82.5 457 c 128,-1,13
 53 380 53 380 53 288 c 0,14,15
 53 152 53 152 132.5 70 c 128,-1,16
 212 -12 212 -12 342 -12 c 0,0,1
344 30 m 0,17,18
 232 30 232 30 166 101.5 c 128,-1,19
 100 173 100 173 100 288 c 0,20,21
 100 326 100 326 116 401 c 0,22,23
 140 514 140 514 227 589 c 0,24,25
 317 667 317 667 438 667 c 0,26,27
 548 667 548 667 616 596 c 0,28,29
 682 525 682 525 682 409 c 0,30,31
 682 372 682 372 666 296 c 0,32,33
 642 183 642 183 556 108 c 0,34,35
 466 30 466 30 344 30 c 0,17,18
364 153 m 0,36,37
 412 153 412 153 449.5 177 c 128,-1,38
 487 201 487 201 510 239 c 1,39,-1
 475 265 l 1,40,41
 431 197 431 197 369 197 c 0,42,43
 328 197 328 197 306 224 c 128,-1,44
 284 251 284 251 284 296 c 0,45,46
 284 310 284 310 288 331.5 c 128,-1,47
 292 353 292 353 296 375 c 0,48,49
 324 500 324 500 420 500 c 0,50,51
 486 500 486 500 505 437 c 1,52,-1
 547 454 l 1,53,54
 536 490 536 490 505 516.5 c 128,-1,55
 474 543 474 543 423 543 c 0,56,57
 339 543 339 543 286 473 c 128,-1,58
 233 403 233 403 233 301 c 0,59,60
 233 229 233 229 268.5 191 c 128,-1,61
 304 153 304 153 364 153 c 0,36,37
EndSplineSet
EndChar

StartChar: ordfeminine
Encoding: 170 170 105
Width: 376
Flags: W
LayerCount: 2
Fore
SplineSet
169 356 m 256,0,1
 213 356 213 356 242.5 373.5 c 128,-1,2
 272 391 272 391 287 414 c 1,3,-1
 290 414 l 1,4,5
 286 394 286 394 286 390 c 0,6,7
 286 363 286 363 323 363 c 2,8,-1
 362 363 l 1,9,-1
 370 403 l 1,10,-1
 330 403 l 1,11,-1
 365 581 l 2,12,13
 368 600 368 600 368 612 c 0,14,15
 368 661 368 661 339 685.5 c 128,-1,16
 310 710 310 710 259 710 c 0,17,18
 213 710 213 710 178.5 690.5 c 128,-1,19
 144 671 144 671 123 641 c 1,20,-1
 151 618 l 1,21,22
 190 672 190 672 254 672 c 0,23,24
 324 672 324 672 324 614 c 0,25,26
 324 601 324 601 322 587 c 2,27,-1
 315 550 l 1,28,-1
 234 550 l 2,29,30
 153 550 153 550 115 519 c 128,-1,31
 77 488 77 488 77 434 c 0,32,33
 77 399 77 399 101 377.5 c 128,-1,34
 125 356 125 356 169 356 c 256,0,1
181 393 m 0,35,36
 123 393 123 393 122 438 c 0,37,38
 122 516 122 516 227 516 c 2,39,-1
 308 516 l 1,40,-1
 298 469 l 2,41,42
 290 433 290 433 256.5 413 c 128,-1,43
 223 393 223 393 181 393 c 0,35,36
EndSplineSet
EndChar

StartChar: guillemotleft
Encoding: 171 171 106
Width: 485
Flags: W
LayerCount: 2
Fore
SplineSet
193 89 m 1,0,-1
 217 125 l 1,1,-1
 96 284 l 1,2,-1
 281 443 l 1,3,-1
 270 486 l 1,4,-1
 47 316 l 1,5,-1
 36 263 l 1,6,-1
 193 89 l 1,0,-1
384 89 m 1,7,-1
 408 125 l 1,8,-1
 287 284 l 1,9,-1
 472 443 l 1,10,-1
 461 486 l 1,11,-1
 238 316 l 1,12,-1
 227 263 l 1,13,-1
 384 89 l 1,7,-1
EndSplineSet
EndChar

StartChar: logicalnot
Encoding: 172 172 107
Width: 600
Flags: W
LayerCount: 2
Fore
SplineSet
490 87 m 1,0,-1
 538 329 l 1,1,-1
 78 329 l 1,2,-1
 68 281 l 1,3,-1
 479 281 l 1,4,-1
 441 87 l 1,5,-1
 490 87 l 1,0,-1
EndSplineSet
EndChar

StartChar: u00AD
Encoding: 173 173 108
Width: 387
Flags: W
LayerCount: 2
Fore
SplineSet
319 275 m 1,0,-1
 330 333 l 1,1,-1
 88 333 l 1,2,-1
 76 275 l 1,3,-1
 319 275 l 1,0,-1
EndSplineSet
EndChar

StartChar: registered
Encoding: 174 174 109
Width: 468
Flags: W
LayerCount: 2
Fore
SplineSet
258 298 m 0,0,1
 312 298 312 298 353.5 318.5 c 128,-1,2
 395 339 395 339 424 373 c 128,-1,3
 453 407 453 407 467 450 c 128,-1,4
 481 493 481 493 481 539 c 0,5,6
 481 613 481 613 432 661.5 c 128,-1,7
 383 710 383 710 309 710 c 0,8,9
 207 710 207 710 144 636 c 1,10,11
 86 561 86 561 86 469 c 0,12,13
 86 396 86 396 135.5 347 c 128,-1,14
 185 298 185 298 258 298 c 0,0,1
262 328 m 0,15,16
 198 328 198 328 158 367.5 c 128,-1,17
 118 407 118 407 118 471 c 0,18,19
 118 488 118 488 125 526 c 0,20,21
 139 594 139 594 187 637 c 128,-1,22
 235 680 235 680 305 680 c 0,23,24
 370 680 370 680 409.5 639.5 c 128,-1,25
 449 599 449 599 449 537 c 0,26,27
 449 521 449 521 442 482 c 0,28,29
 428 414 428 414 380.5 371 c 128,-1,30
 333 328 333 328 262 328 c 0,15,16
349 399 m 1,31,-1
 316 487 l 1,32,33
 372 498 372 498 372 558 c 0,34,35
 372 581 372 581 358 595 c 128,-1,36
 344 609 344 609 317 609 c 2,37,-1
 237 609 l 1,38,-1
 195 399 l 1,39,-1
 225 399 l 1,40,-1
 241 484 l 1,41,-1
 288 484 l 1,42,-1
 317 399 l 1,43,-1
 349 399 l 1,31,-1
297 508 m 2,44,-1
 246 508 l 1,45,-1
 261 583 l 1,46,-1
 313 583 l 2,47,48
 340 583 340 583 340 561 c 0,49,50
 340 558 340 558 339 553 c 128,-1,51
 338 548 338 548 335.5 534 c 128,-1,52
 333 520 333 520 323 514 c 128,-1,53
 313 508 313 508 297 508 c 2,44,-1
EndSplineSet
EndChar

StartChar: macron
Encoding: 175 175 110
Width: 596
Flags: W
LayerCount: 2
Fore
SplineSet
448 646 m 1,0,-1
 458 694 l 1,1,-1
 191 694 l 1,2,-1
 181 646 l 1,3,-1
 448 646 l 1,0,-1
EndSplineSet
EndChar

StartChar: degree
Encoding: 176 176 111
Width: 459
Flags: W
LayerCount: 2
Fore
SplineSet
266 369 m 0,0,1
 344 369 344 369 396 423.5 c 128,-1,2
 448 478 448 478 448 560 c 0,3,4
 448 626 448 626 407.5 668 c 128,-1,5
 367 710 367 710 305 710 c 0,6,7
 227 710 227 710 175 656.5 c 128,-1,8
 123 603 123 603 123 520 c 0,9,10
 123 454 123 454 164 411.5 c 128,-1,11
 205 369 205 369 266 369 c 0,0,1
272 416 m 0,12,13
 225 416 225 416 199 446 c 128,-1,14
 173 476 173 476 173 521 c 0,15,16
 173 581 173 581 208.5 622.5 c 128,-1,17
 244 664 244 664 299 664 c 0,18,19
 347 664 347 664 373 633.5 c 128,-1,20
 399 603 399 603 399 558 c 0,21,22
 399 498 399 498 363.5 457 c 128,-1,23
 328 416 328 416 272 416 c 0,12,13
EndSplineSet
EndChar

StartChar: plusminus
Encoding: 177 177 112
Width: 600
Flags: W
LayerCount: 2
Fore
SplineSet
304 138 m 1,0,-1
 346 351 l 1,1,-1
 549 351 l 1,2,-1
 559 399 l 1,3,-1
 356 399 l 1,4,-1
 398 612 l 1,5,-1
 346 612 l 1,6,-1
 303 399 l 1,7,-1
 99 399 l 1,8,-1
 89 351 l 1,9,-1
 294 351 l 1,10,-1
 251 138 l 1,11,-1
 304 138 l 1,0,-1
479 0 m 1,12,-1
 489 48 l 1,13,-1
 28 48 l 1,14,-1
 19 0 l 1,15,-1
 479 0 l 1,12,-1
EndSplineSet
EndChar

StartChar: u00B2
Encoding: 178 178 113
Width: 339
Flags: W
LayerCount: 2
Fore
SplineSet
308 329 m 1,0,-1
 315 366 l 1,1,-1
 107 366 l 1,2,-1
 228 450 l 2,3,4
 276 483 276 483 312 518 c 0,5,6
 351 558 351 558 351 607 c 0,7,8
 351 653 351 653 319 678.5 c 128,-1,9
 287 704 287 704 237 704 c 0,10,11
 137 704 137 704 99 614 c 1,12,-1
 137 598 l 1,13,14
 165 666 165 666 232 666 c 0,15,16
 298 666 298 666 303 606 c 0,17,18
 303 562 303 562 269 529 c 0,19,20
 243 504 243 504 202 476 c 2,21,-1
 57 373 l 1,22,-1
 49 329 l 1,23,-1
 308 329 l 1,0,-1
EndSplineSet
EndChar

StartChar: u00B3
Encoding: 179 179 114
Width: 341
Flags: W
LayerCount: 2
Fore
SplineSet
182 323 m 0,0,1
 248 323 248 323 286.5 356.5 c 128,-1,2
 325 390 325 390 325 443 c 0,3,4
 325 508 325 508 262 518 c 1,5,-1
 262 520 l 1,6,7
 301 526 301 526 326.5 551 c 128,-1,8
 352 576 352 576 352 615 c 0,9,10
 352 653 352 653 324 678.5 c 128,-1,11
 296 704 296 704 244 704 c 0,12,13
 161 704 161 704 115 645 c 1,14,-1
 142 620 l 1,15,16
 179 667 179 667 240 667 c 0,17,18
 273 667 273 667 289.5 652.5 c 128,-1,19
 306 638 306 638 306 615 c 2,20,-1
 304 599 l 2,21,22
 300 574 300 574 280 556.5 c 128,-1,23
 260 539 260 539 211 539 c 2,24,-1
 165 539 l 1,25,-1
 158 502 l 1,26,-1
 205 502 l 2,27,28
 280 502 280 502 280 448 c 0,29,30
 280 435 280 435 279 432.5 c 128,-1,31
 278 430 278 430 278 429 c 0,32,33
 272 396 272 396 250 378 c 128,-1,34
 228 360 228 360 183 360 c 0,35,36
 113 360 113 360 89 410 c 1,37,-1
 56 387 l 1,38,39
 84 323 84 323 182 323 c 0,0,1
EndSplineSet
EndChar

StartChar: acute
Encoding: 180 180 115
Width: 596
Flags: W
LayerCount: 2
Fore
SplineSet
306 586 m 1,0,-1
 439 742 l 1,1,-1
 391 769 l 1,2,-1
 271 605 l 1,3,-1
 306 586 l 1,0,-1
EndSplineSet
EndChar

StartChar: mu
Encoding: 181 181 116
Width: 565
Flags: W
LayerCount: 2
Fore
SplineSet
60 -200 m 1,0,-1
 91 -45 l 1,1,-1
 105 67 l 1,2,-1
 108 67 l 1,3,4
 126 -12 126 -12 211 -12 c 0,5,6
 270 -12 270 -12 307 17.5 c 128,-1,7
 344 47 344 47 372 105 c 1,8,-1
 375 105 l 1,9,-1
 371 83 l 2,10,11
 366 61 366 61 366 47 c 0,12,13
 366 1 366 1 416 0 c 2,14,-1
 487 0 l 1,15,-1
 497 49 l 1,16,-1
 419 49 l 1,17,-1
 512 512 l 1,18,-1
 457 512 l 1,19,-1
 397 215 l 2,20,21
 382 144 382 144 332 87 c 0,22,23
 288 38 288 38 223 38 c 0,24,25
 132 38 132 38 131 133 c 0,26,27
 131 162 131 162 137 193 c 2,28,-1
 201 512 l 1,29,-1
 146 512 l 1,30,-1
 4 -200 l 1,31,-1
 60 -200 l 1,0,-1
EndSplineSet
EndChar

StartChar: paragraph
Encoding: 182 182 117
Width: 614
Flags: W
LayerCount: 2
Fore
SplineSet
380 -149 m 1,0,-1
 541 651 l 1,1,-1
 607 651 l 1,2,-1
 616 698 l 1,3,-1
 335 698 l 2,4,5
 235 698 235 698 166 637.5 c 128,-1,6
 97 577 97 577 97 479 c 0,7,8
 97 407 97 407 143.5 359.5 c 128,-1,9
 190 312 190 312 254 312 c 1,10,-1
 161 -149 l 1,11,-1
 213 -149 l 1,12,-1
 373 651 l 1,13,-1
 489 651 l 1,14,-1
 329 -149 l 1,15,-1
 380 -149 l 1,0,-1
EndSplineSet
EndChar

StartChar: periodcentered
Encoding: 183 183 118
Width: 309
Flags: W
LayerCount: 2
Fore
SplineSet
151 254 m 0,0,1
 195 254 195 254 201 295 c 0,2,3
 205 306 205 306 205 323 c 0,4,5
 205 355 205 355 164 355 c 0,6,7
 120 355 120 355 114 314 c 0,8,9
 110 303 110 303 110 286 c 0,10,11
 110 255 110 255 151 254 c 0,0,1
EndSplineSet
EndChar

StartChar: cedilla
Encoding: 184 184 119
Width: 596
Flags: W
LayerCount: 2
Fore
SplineSet
277 -205 m 0,0,1
 323 -205 323 -205 351 -181 c 128,-1,2
 379 -157 379 -157 379 -120 c 0,3,4
 379 -65 379 -65 321 -65 c 0,5,6
 307 -65 307 -65 297 -67 c 2,7,-1
 291 -68 l 1,8,-1
 289 -66 l 1,9,-1
 318 13 l 1,10,-1
 280 13 l 1,11,-1
 248 -79 l 1,12,-1
 278 -82 l 2,13,14
 332 -86 332 -86 332 -121 c 0,15,16
 332 -161 332 -161 275 -166 c 0,17,18
 233 -166 233 -166 216 -140 c 1,19,-1
 186 -170 l 1,20,21
 196 -185 196 -185 219.5 -195 c 128,-1,22
 243 -205 243 -205 277 -205 c 0,0,1
EndSplineSet
EndChar

StartChar: u00B9
Encoding: 185 185 120
Width: 307
Flags: W
LayerCount: 2
Fore
SplineSet
220 329 m 1,0,-1
 176 329 l 1,1,-1
 241 656 l 1,2,-1
 152 612 l 1,3,-1
 161 655 l 1,4,-1
 245 698 l 1,5,-1
 293 698 l 1,6,-1
 220 329 l 1,0,-1
EndSplineSet
EndChar

StartChar: ordmasculine
Encoding: 186 186 121
Width: 379
Flags: W
LayerCount: 2
Fore
SplineSet
216 356 m 0,0,1
 301 356 301 356 350 426 c 0,2,3
 394 489 394 489 394 580 c 0,4,5
 394 637 394 637 361.5 673.5 c 128,-1,6
 329 710 329 710 273 710 c 0,7,8
 189 710 189 710 140 640 c 0,9,10
 95 570 95 570 95 486 c 0,11,12
 95 429 95 429 127.5 392.5 c 128,-1,13
 160 356 160 356 216 356 c 0,0,1
221 394 m 0,14,15
 179 394 179 394 159 418.5 c 128,-1,16
 139 443 139 443 139 481 c 0,17,18
 139 498 139 498 143 512 c 2,19,-1
 153 561 l 2,20,21
 163 610 163 610 192.5 641 c 128,-1,22
 222 672 222 672 268 672 c 0,23,24
 310 672 310 672 330 647.5 c 128,-1,25
 350 623 350 623 350 585 c 0,26,27
 350 569 350 569 346 554 c 2,28,-1
 336 505 l 2,29,30
 326 456 326 456 296.5 425 c 128,-1,31
 267 394 267 394 221 394 c 0,14,15
EndSplineSet
EndChar

StartChar: guillemotright
Encoding: 187 187 122
Width: 485
Flags: W
LayerCount: 2
Fore
SplineSet
223 89 m 1,0,-1
 447 259 l 1,1,-1
 457 311 l 1,2,-1
 300 486 l 1,3,-1
 276 449 l 1,4,-1
 398 290 l 1,5,-1
 212 132 l 1,6,-1
 223 89 l 1,0,-1
32 89 m 1,7,-1
 256 259 l 1,8,-1
 266 311 l 1,9,-1
 109 486 l 1,10,-1
 85 449 l 1,11,-1
 207 290 l 1,12,-1
 21 132 l 1,13,-1
 32 89 l 1,7,-1
EndSplineSet
EndChar

StartChar: onequarter
Encoding: 188 188 123
Width: 795
Flags: W
LayerCount: 2
Fore
SplineSet
139 0 m 1,0,-1
 746 698 l 1,1,-1
 693 698 l 1,2,-1
 86 0 l 1,3,-1
 139 0 l 1,0,-1
655 0 m 1,4,-1
 672 79 l 1,5,-1
 729 79 l 1,6,-1
 736 114 l 1,7,-1
 679 114 l 1,8,-1
 729 369 l 1,9,-1
 673 369 l 1,10,-1
 442 118 l 1,11,-1
 435 79 l 1,12,-1
 629 79 l 1,13,-1
 613 0 l 1,14,-1
 655 0 l 1,4,-1
636 114 m 1,15,-1
 484 114 l 1,16,-1
 674 319 l 1,17,-1
 677 319 l 1,18,-1
 636 114 l 1,15,-1
220 329 m 1,19,-1
 176 329 l 1,20,-1
 241 656 l 1,21,-1
 152 612 l 1,22,-1
 161 655 l 1,23,-1
 245 698 l 1,24,-1
 293 698 l 1,25,-1
 220 329 l 1,19,-1
EndSplineSet
EndChar

StartChar: onehalf
Encoding: 189 189 124
Width: 810
Flags: W
LayerCount: 2
Fore
SplineSet
139 0 m 1,0,-1
 746 698 l 1,1,-1
 693 698 l 1,2,-1
 86 0 l 1,3,-1
 139 0 l 1,0,-1
717 0 m 1,4,-1
 725 37 l 1,5,-1
 517 37 l 1,6,-1
 638 121 l 2,7,8
 686 154 686 154 722 189 c 0,9,10
 761 229 761 229 761 278 c 0,11,12
 761 324 761 324 729 349.5 c 128,-1,13
 697 375 697 375 647 375 c 0,14,15
 547 375 547 375 509 285 c 1,16,-1
 547 269 l 1,17,18
 574 337 574 337 642 337 c 0,19,20
 708 337 708 337 713 277 c 0,21,22
 713 233 713 233 679 200 c 0,23,24
 653 175 653 175 612 147 c 2,25,-1
 467 44 l 1,26,-1
 458 0 l 1,27,-1
 717 0 l 1,4,-1
220 329 m 1,28,-1
 176 329 l 1,29,-1
 241 656 l 1,30,-1
 152 612 l 1,31,-1
 161 655 l 1,32,-1
 245 698 l 1,33,-1
 293 698 l 1,34,-1
 220 329 l 1,28,-1
EndSplineSet
EndChar

StartChar: threequarters
Encoding: 190 190 125
Width: 819
Flags: W
LayerCount: 2
Fore
SplineSet
182 323 m 0,0,1
 248 323 248 323 286.5 356.5 c 128,-1,2
 325 390 325 390 325 443 c 0,3,4
 325 508 325 508 262 518 c 1,5,-1
 262 520 l 1,6,7
 301 526 301 526 326.5 551 c 128,-1,8
 352 576 352 576 352 615 c 0,9,10
 352 653 352 653 324 678.5 c 128,-1,11
 296 704 296 704 244 704 c 0,12,13
 161 704 161 704 115 645 c 1,14,-1
 142 620 l 1,15,16
 179 667 179 667 240 667 c 0,17,18
 273 667 273 667 289.5 652.5 c 128,-1,19
 306 638 306 638 306 615 c 2,20,-1
 304 599 l 2,21,22
 300 574 300 574 280 556.5 c 128,-1,23
 260 539 260 539 211 539 c 2,24,-1
 165 539 l 1,25,-1
 158 502 l 1,26,-1
 205 502 l 2,27,28
 280 502 280 502 280 448 c 0,29,30
 280 435 280 435 279 432.5 c 128,-1,31
 278 430 278 430 278 429 c 0,32,33
 272 396 272 396 250 378 c 128,-1,34
 228 360 228 360 183 360 c 0,35,36
 113 360 113 360 89 410 c 1,37,-1
 56 387 l 1,38,39
 84 323 84 323 182 323 c 0,0,1
163 0 m 1,40,-1
 770 698 l 1,41,-1
 717 698 l 1,42,-1
 110 0 l 1,43,-1
 163 0 l 1,40,-1
679 0 m 1,44,-1
 696 79 l 1,45,-1
 753 79 l 1,46,-1
 760 114 l 1,47,-1
 703 114 l 1,48,-1
 753 369 l 1,49,-1
 697 369 l 1,50,-1
 466 118 l 1,51,-1
 459 79 l 1,52,-1
 653 79 l 1,53,-1
 637 0 l 1,54,-1
 679 0 l 1,44,-1
660 114 m 1,55,-1
 508 114 l 1,56,-1
 698 319 l 1,57,-1
 701 319 l 1,58,-1
 660 114 l 1,55,-1
EndSplineSet
EndChar

StartChar: questiondown
Encoding: 191 191 126
Width: 463
Flags: W
LayerCount: 2
Fore
SplineSet
162 -198 m 0,0,1
 317 -198 317 -198 379 -40 c 1,2,-1
 330 -21 l 1,3,4
 308 -79 308 -79 269.5 -113 c 128,-1,5
 231 -147 231 -147 166 -147 c 0,6,7
 107 -147 107 -147 76.5 -117 c 128,-1,8
 46 -87 46 -87 46 -36 c 2,9,-1
 47 -16 l 2,10,11
 58 132 58 132 260 148 c 1,12,-1
 293 316 l 1,13,-1
 239 316 l 1,14,-1
 214 190 l 1,15,16
 102 173 102 173 45 112 c 0,17,18
 -14 47 -14 47 -14 -39 c 0,19,20
 -14 -113 -14 -113 33.5 -155.5 c 128,-1,21
 81 -198 81 -198 162 -198 c 0,0,1
288 420 m 0,22,23
 332 420 332 420 338 461 c 0,24,25
 342 472 342 472 342 489 c 0,26,27
 342 521 342 521 301 521 c 0,28,29
 257 521 257 521 251 480 c 0,30,31
 247 469 247 469 247 452 c 0,32,33
 247 421 247 421 288 420 c 0,22,23
EndSplineSet
EndChar

StartChar: Agrave
Encoding: 192 192 127
Width: 612
Flags: W
LayerCount: 2
Fore
SplineSet
536 0 m 1,0,-1
 426 698 l 1,1,-1
 349 698 l 1,2,-1
 -21 0 l 1,3,-1
 41 0 l 1,4,-1
 154 217 l 1,5,-1
 443 217 l 1,6,-1
 477 0 l 1,7,-1
 536 0 l 1,0,-1
437 268 m 1,8,-1
 181 268 l 1,9,-1
 375 641 l 1,10,-1
 379 641 l 1,11,-1
 437 268 l 1,8,-1
400 760 m 1,12,-1
 434 776 l 1,13,-1
 365 942 l 1,14,-1
 316 918 l 1,15,-1
 400 760 l 1,12,-1
EndSplineSet
EndChar

StartChar: Aacute
Encoding: 193 193 128
Width: 612
Flags: W
LayerCount: 2
Fore
SplineSet
536 0 m 1,0,-1
 426 698 l 1,1,-1
 349 698 l 1,2,-1
 -21 0 l 1,3,-1
 41 0 l 1,4,-1
 154 217 l 1,5,-1
 443 217 l 1,6,-1
 477 0 l 1,7,-1
 536 0 l 1,0,-1
437 268 m 1,8,-1
 181 268 l 1,9,-1
 375 641 l 1,10,-1
 379 641 l 1,11,-1
 437 268 l 1,8,-1
401 760 m 1,12,-1
 534 916 l 1,13,-1
 486 943 l 1,14,-1
 367 780 l 1,15,-1
 401 760 l 1,12,-1
EndSplineSet
EndChar

StartChar: Acircumflex
Encoding: 194 194 129
Width: 612
Flags: W
LayerCount: 2
Fore
SplineSet
536 0 m 1,0,-1
 426 698 l 1,1,-1
 349 698 l 1,2,-1
 -21 0 l 1,3,-1
 41 0 l 1,4,-1
 154 217 l 1,5,-1
 443 217 l 1,6,-1
 477 0 l 1,7,-1
 536 0 l 1,0,-1
437 268 m 1,8,-1
 181 268 l 1,9,-1
 375 641 l 1,10,-1
 379 641 l 1,11,-1
 437 268 l 1,8,-1
282 768 m 1,12,-1
 424 888 l 1,13,-1
 522 769 l 1,14,-1
 554 791 l 1,15,-1
 462 930 l 1,16,-1
 396 930 l 1,17,-1
 252 792 l 1,18,-1
 282 768 l 1,12,-1
EndSplineSet
EndChar

StartChar: Atilde
Encoding: 195 195 130
Width: 612
Flags: W
LayerCount: 2
Fore
SplineSet
536 0 m 1,0,-1
 426 698 l 1,1,-1
 349 698 l 1,2,-1
 -21 0 l 1,3,-1
 41 0 l 1,4,-1
 154 217 l 1,5,-1
 443 217 l 1,6,-1
 477 0 l 1,7,-1
 536 0 l 1,0,-1
437 268 m 1,8,-1
 181 268 l 1,9,-1
 375 641 l 1,10,-1
 379 641 l 1,11,-1
 437 268 l 1,8,-1
475 792 m 0,12,13
 526 792 526 792 568 840 c 1,14,-1
 547 868 l 1,15,16
 518 839 518 839 483 839 c 0,17,18
 455 839 455 839 419 863 c 0,19,20
 402 875 402 875 385 883 c 128,-1,21
 368 891 368 891 345 891 c 0,22,23
 294 891 294 891 252 843 c 1,24,-1
 273 815 l 1,25,26
 303 844 303 844 337 844 c 0,27,28
 366 844 366 844 401 820 c 0,29,30
 418 808 418 808 435 800 c 128,-1,31
 452 792 452 792 475 792 c 0,12,13
EndSplineSet
EndChar

StartChar: Adieresis
Encoding: 196 196 131
Width: 612
Flags: W
LayerCount: 2
Fore
SplineSet
536 0 m 1,0,-1
 426 698 l 1,1,-1
 349 698 l 1,2,-1
 -21 0 l 1,3,-1
 41 0 l 1,4,-1
 154 217 l 1,5,-1
 443 217 l 1,6,-1
 477 0 l 1,7,-1
 536 0 l 1,0,-1
437 268 m 1,8,-1
 181 268 l 1,9,-1
 375 641 l 1,10,-1
 379 641 l 1,11,-1
 437 268 l 1,8,-1
315 800 m 0,12,13
 353 800 353 800 358 832 c 2,14,-1
 361 847 l 1,15,-1
 361 854 l 2,16,17
 361 882 361 882 327 882 c 0,18,19
 290 882 290 882 284 850 c 2,20,-1
 281 828 l 2,21,22
 281 800 281 800 315 800 c 0,12,13
497 800 m 0,23,24
 535 800 535 800 540 832 c 2,25,-1
 543 847 l 1,26,-1
 543 854 l 2,27,28
 543 882 543 882 509 882 c 0,29,30
 472 882 472 882 466 850 c 2,31,-1
 463 828 l 2,32,33
 463 800 463 800 497 800 c 0,23,24
EndSplineSet
EndChar

StartChar: Aring
Encoding: 197 197 132
Width: 612
Flags: W
LayerCount: 2
Fore
SplineSet
536 0 m 1,0,-1
 426 698 l 1,1,-1
 349 698 l 1,2,-1
 -21 0 l 1,3,-1
 41 0 l 1,4,-1
 154 217 l 1,5,-1
 443 217 l 1,6,-1
 477 0 l 1,7,-1
 536 0 l 1,0,-1
437 268 m 1,8,-1
 181 268 l 1,9,-1
 375 641 l 1,10,-1
 379 641 l 1,11,-1
 437 268 l 1,8,-1
402 755 m 0,12,13
 457 755 457 755 489.5 788 c 128,-1,14
 522 821 522 821 522 877 c 0,15,16
 522 913 522 913 499.5 939.5 c 128,-1,17
 477 966 477 966 432 966 c 0,18,19
 377 966 377 966 344.5 933 c 128,-1,20
 312 900 312 900 312 844 c 0,21,22
 312 808 312 808 334.5 781.5 c 128,-1,23
 357 755 357 755 402 755 c 0,12,13
407 791 m 0,24,25
 353 791 353 791 353 840 c 0,26,27
 353 851 353 851 357 870 c 0,28,29
 369 930 369 930 427 930 c 0,30,31
 481 930 481 930 481 881 c 0,32,33
 481 871 481 871 477 851 c 0,34,35
 466 791 466 791 407 791 c 0,24,25
EndSplineSet
EndChar

StartChar: AE
Encoding: 198 198 133
Width: 885
Flags: W
LayerCount: 2
Fore
SplineSet
778 0 m 1,0,-1
 788 52 l 1,1,-1
 439 52 l 1,2,-1
 494 329 l 1,3,-1
 809 329 l 1,4,-1
 819 380 l 1,5,-1
 504 380 l 1,6,-1
 558 646 l 1,7,-1
 897 646 l 1,8,-1
 908 698 l 1,9,-1
 464 698 l 1,10,-1
 -34 0 l 1,11,-1
 32 0 l 1,12,-1
 185 216 l 1,13,-1
 413 216 l 1,14,-1
 370 0 l 1,15,-1
 778 0 l 1,0,-1
424 267 m 1,16,-1
 221 267 l 1,17,-1
 490 649 l 1,18,-1
 500 649 l 1,19,-1
 424 267 l 1,16,-1
EndSplineSet
EndChar

StartChar: Ccedilla
Encoding: 199 199 134
Width: 599
Flags: W
LayerCount: 2
Fore
SplineSet
267 -205 m 0,0,1
 314 -205 314 -205 342 -181 c 128,-1,2
 370 -157 370 -157 370 -120 c 0,3,4
 370 -65 370 -65 312 -65 c 0,5,6
 297 -65 297 -65 287 -67 c 2,7,-1
 281 -68 l 1,8,-1
 279 -66 l 1,9,-1
 300 -12 l 1,10,11
 457 -11 457 -11 541 151 c 1,12,-1
 492 175 l 1,13,14
 457 109 457 109 411 74.5 c 128,-1,15
 365 40 365 40 293 40 c 0,16,17
 209 40 209 40 163.5 93.5 c 128,-1,18
 118 147 118 147 118 236 c 0,19,20
 118 271 118 271 126.5 318 c 128,-1,21
 135 365 135 365 144 410 c 0,22,23
 168 524 168 524 233 591 c 128,-1,24
 298 658 298 658 388 658 c 0,25,26
 459 658 459 658 497.5 626 c 128,-1,27
 536 594 536 594 552 536 c 1,28,-1
 605 558 l 1,29,30
 561 710 561 710 394 710 c 0,31,32
 313 710 313 710 250.5 670 c 128,-1,33
 188 630 188 630 145.5 563.5 c 128,-1,34
 103 497 103 497 81.5 414.5 c 128,-1,35
 60 332 60 332 60 248 c 0,36,37
 60 130 60 130 117 65 c 0,38,39
 171 -1 171 -1 263 -11 c 1,40,-1
 238 -79 l 1,41,-1
 269 -82 l 2,42,43
 323 -86 323 -86 323 -121 c 0,44,45
 323 -161 323 -161 266 -166 c 0,46,47
 223 -166 223 -166 206 -140 c 1,48,-1
 176 -170 l 1,49,50
 187 -185 187 -185 210 -195 c 128,-1,51
 233 -205 233 -205 267 -205 c 0,0,1
EndSplineSet
EndChar

StartChar: Egrave
Encoding: 200 200 135
Width: 560
Flags: W
LayerCount: 2
Fore
SplineSet
453 0 m 1,0,-1
 463 52 l 1,1,-1
 114 52 l 1,2,-1
 169 329 l 1,3,-1
 484 329 l 1,4,-1
 494 380 l 1,5,-1
 179 380 l 1,6,-1
 233 646 l 1,7,-1
 572 646 l 1,8,-1
 583 698 l 1,9,-1
 185 698 l 1,10,-1
 45 0 l 1,11,-1
 453 0 l 1,0,-1
393 760 m 1,12,-1
 427 776 l 1,13,-1
 358 942 l 1,14,-1
 309 918 l 1,15,-1
 393 760 l 1,12,-1
EndSplineSet
EndChar

StartChar: Eacute
Encoding: 201 201 136
Width: 560
Flags: W
LayerCount: 2
Fore
SplineSet
453 0 m 1,0,-1
 463 52 l 1,1,-1
 114 52 l 1,2,-1
 169 329 l 1,3,-1
 484 329 l 1,4,-1
 494 380 l 1,5,-1
 179 380 l 1,6,-1
 233 646 l 1,7,-1
 572 646 l 1,8,-1
 583 698 l 1,9,-1
 185 698 l 1,10,-1
 45 0 l 1,11,-1
 453 0 l 1,0,-1
394 760 m 1,12,-1
 527 916 l 1,13,-1
 479 943 l 1,14,-1
 360 780 l 1,15,-1
 394 760 l 1,12,-1
EndSplineSet
EndChar

StartChar: Ecircumflex
Encoding: 202 202 137
Width: 560
Flags: W
LayerCount: 2
Fore
SplineSet
453 0 m 1,0,-1
 463 52 l 1,1,-1
 114 52 l 1,2,-1
 169 329 l 1,3,-1
 484 329 l 1,4,-1
 494 380 l 1,5,-1
 179 380 l 1,6,-1
 233 646 l 1,7,-1
 572 646 l 1,8,-1
 583 698 l 1,9,-1
 185 698 l 1,10,-1
 45 0 l 1,11,-1
 453 0 l 1,0,-1
275 768 m 1,12,-1
 417 888 l 1,13,-1
 515 769 l 1,14,-1
 547 791 l 1,15,-1
 455 930 l 1,16,-1
 389 930 l 1,17,-1
 245 792 l 1,18,-1
 275 768 l 1,12,-1
EndSplineSet
EndChar

StartChar: Edieresis
Encoding: 203 203 138
Width: 560
Flags: W
LayerCount: 2
Fore
SplineSet
453 0 m 1,0,-1
 463 52 l 1,1,-1
 114 52 l 1,2,-1
 169 329 l 1,3,-1
 484 329 l 1,4,-1
 494 380 l 1,5,-1
 179 380 l 1,6,-1
 233 646 l 1,7,-1
 572 646 l 1,8,-1
 583 698 l 1,9,-1
 185 698 l 1,10,-1
 45 0 l 1,11,-1
 453 0 l 1,0,-1
308 800 m 0,12,13
 346 800 346 800 351 832 c 2,14,-1
 354 847 l 1,15,-1
 354 854 l 2,16,17
 354 882 354 882 320 882 c 0,18,19
 283 882 283 882 277 850 c 2,20,-1
 274 828 l 2,21,22
 274 800 274 800 308 800 c 0,12,13
490 800 m 0,23,24
 528 800 528 800 533 832 c 2,25,-1
 536 847 l 1,26,-1
 536 854 l 2,27,28
 536 882 536 882 502 882 c 0,29,30
 465 882 465 882 459 850 c 2,31,-1
 456 828 l 2,32,33
 456 800 456 800 490 800 c 0,23,24
EndSplineSet
EndChar

StartChar: Igrave
Encoding: 204 204 139
Width: 251
Flags: W
LayerCount: 2
Fore
SplineSet
226 760 m 1,0,-1
 260 776 l 1,1,-1
 191 942 l 1,2,-1
 142 918 l 1,3,-1
 226 760 l 1,0,-1
103 0 m 1,4,-1
 243 698 l 1,5,-1
 185 698 l 1,6,-1
 45 0 l 1,7,-1
 103 0 l 1,4,-1
EndSplineSet
EndChar

StartChar: Iacute
Encoding: 205 205 140
Width: 251
Flags: W
LayerCount: 2
Fore
SplineSet
227 760 m 1,0,-1
 360 916 l 1,1,-1
 312 943 l 1,2,-1
 193 780 l 1,3,-1
 227 760 l 1,0,-1
103 0 m 1,4,-1
 243 698 l 1,5,-1
 185 698 l 1,6,-1
 45 0 l 1,7,-1
 103 0 l 1,4,-1
EndSplineSet
EndChar

StartChar: Icircumflex
Encoding: 206 206 141
Width: 251
Flags: W
LayerCount: 2
Fore
SplineSet
108 768 m 1,0,-1
 250 888 l 1,1,-1
 348 769 l 1,2,-1
 380 791 l 1,3,-1
 288 930 l 1,4,-1
 222 930 l 1,5,-1
 78 792 l 1,6,-1
 108 768 l 1,0,-1
103 0 m 1,7,-1
 243 698 l 1,8,-1
 185 698 l 1,9,-1
 45 0 l 1,10,-1
 103 0 l 1,7,-1
EndSplineSet
EndChar

StartChar: Idieresis
Encoding: 207 207 142
Width: 251
Flags: W
LayerCount: 2
Fore
SplineSet
141 800 m 0,0,1
 179 800 179 800 184 832 c 2,2,-1
 187 847 l 1,3,-1
 187 854 l 2,4,5
 187 882 187 882 153 882 c 0,6,7
 116 882 116 882 110 850 c 2,8,-1
 107 828 l 2,9,10
 107 800 107 800 141 800 c 0,0,1
323 800 m 0,11,12
 361 800 361 800 366 832 c 2,13,-1
 369 847 l 1,14,-1
 369 854 l 2,15,16
 369 882 369 882 335 882 c 0,17,18
 298 882 298 882 292 850 c 2,19,-1
 289 828 l 2,20,21
 289 800 289 800 323 800 c 0,11,12
103 0 m 1,22,-1
 243 698 l 1,23,-1
 185 698 l 1,24,-1
 45 0 l 1,25,-1
 103 0 l 1,22,-1
EndSplineSet
EndChar

StartChar: Eth
Encoding: 208 208 143
Width: 653
Flags: W
LayerCount: 2
Fore
SplineSet
281 0 m 2,0,1
 365 0 365 0 428.5 38 c 128,-1,2
 492 76 492 76 535 139 c 128,-1,3
 578 202 578 202 599.5 281 c 128,-1,4
 621 360 621 360 621 443 c 0,5,6
 621 568 621 568 559.5 633 c 128,-1,7
 498 698 498 698 385 698 c 2,8,-1
 187 698 l 1,9,-1
 127 391 l 1,10,-1
 47 391 l 1,11,-1
 38 346 l 1,12,-1
 117 346 l 1,13,-1
 48 0 l 1,14,-1
 281 0 l 2,0,1
282 52 m 2,15,-1
 117 52 l 1,16,-1
 175 346 l 1,17,-1
 321 346 l 1,18,-1
 331 391 l 1,19,-1
 185 391 l 1,20,-1
 235 646 l 1,21,-1
 381 646 l 2,22,23
 468 646 468 646 514.5 597.5 c 128,-1,24
 561 549 561 549 561 460 c 0,25,26
 561 426 561 426 554 380 c 2,27,-1
 536 294 l 2,28,29
 514 185 514 185 448.5 118.5 c 128,-1,30
 383 52 383 52 282 52 c 2,15,-1
EndSplineSet
EndChar

StartChar: Ntilde
Encoding: 209 209 144
Width: 681
Flags: W
LayerCount: 2
Fore
SplineSet
534 0 m 1,0,-1
 674 698 l 1,1,-1
 618 698 l 1,2,-1
 495 83 l 1,3,-1
 491 83 l 1,4,-1
 254 698 l 1,5,-1
 185 698 l 1,6,-1
 45 0 l 1,7,-1
 101 0 l 1,8,-1
 224 615 l 1,9,-1
 228 615 l 1,10,-1
 465 0 l 1,11,-1
 534 0 l 1,0,-1
523 792 m 0,12,13
 574 792 574 792 616 840 c 1,14,-1
 595 868 l 1,15,16
 566 839 566 839 531 839 c 0,17,18
 503 839 503 839 467 863 c 0,19,20
 450 875 450 875 433 883 c 128,-1,21
 416 891 416 891 393 891 c 0,22,23
 342 891 342 891 300 843 c 1,24,-1
 321 815 l 1,25,26
 351 844 351 844 385 844 c 0,27,28
 414 844 414 844 449 820 c 0,29,30
 466 808 466 808 483 800 c 128,-1,31
 500 792 500 792 523 792 c 0,12,13
EndSplineSet
EndChar

StartChar: Ograve
Encoding: 210 210 145
Width: 671
Flags: W
LayerCount: 2
Fore
SplineSet
295 -12 m 0,0,1
 381 -12 381 -12 446 29.5 c 128,-1,2
 511 71 511 71 554.5 139 c 128,-1,3
 598 207 598 207 619.5 289.5 c 128,-1,4
 641 372 641 372 641 454 c 0,5,6
 641 579 641 579 574.5 644.5 c 128,-1,7
 508 710 508 710 406 710 c 0,8,9
 320 710 320 710 255 668.5 c 128,-1,10
 190 627 190 627 147 559 c 128,-1,11
 104 491 104 491 82 408.5 c 128,-1,12
 60 326 60 326 60 244 c 0,13,14
 60 120 60 120 126.5 54 c 128,-1,15
 193 -12 193 -12 295 -12 c 0,0,1
300 40 m 0,16,17
 212 40 212 40 165 91 c 128,-1,18
 118 142 118 142 118 230 c 0,19,20
 118 265 118 265 126 314 c 2,21,-1
 143 397 l 2,22,23
 168 519 168 519 234.5 588.5 c 128,-1,24
 301 658 301 658 401 658 c 0,25,26
 489 658 489 658 536 607 c 128,-1,27
 583 556 583 556 583 468 c 0,28,29
 583 434 583 434 575 384 c 2,30,-1
 558 301 l 2,31,32
 533 179 533 179 466.5 109.5 c 128,-1,33
 400 40 400 40 300 40 c 0,16,17
426 760 m 1,34,-1
 460 776 l 1,35,-1
 391 942 l 1,36,-1
 342 918 l 1,37,-1
 426 760 l 1,34,-1
EndSplineSet
EndChar

StartChar: Oacute
Encoding: 211 211 146
Width: 671
Flags: W
LayerCount: 2
Fore
SplineSet
295 -12 m 0,0,1
 381 -12 381 -12 446 29.5 c 128,-1,2
 511 71 511 71 554.5 139 c 128,-1,3
 598 207 598 207 619.5 289.5 c 128,-1,4
 641 372 641 372 641 454 c 0,5,6
 641 579 641 579 574.5 644.5 c 128,-1,7
 508 710 508 710 406 710 c 0,8,9
 320 710 320 710 255 668.5 c 128,-1,10
 190 627 190 627 147 559 c 128,-1,11
 104 491 104 491 82 408.5 c 128,-1,12
 60 326 60 326 60 244 c 0,13,14
 60 120 60 120 126.5 54 c 128,-1,15
 193 -12 193 -12 295 -12 c 0,0,1
300 40 m 0,16,17
 212 40 212 40 165 91 c 128,-1,18
 118 142 118 142 118 230 c 0,19,20
 118 265 118 265 126 314 c 2,21,-1
 143 397 l 2,22,23
 168 519 168 519 234.5 588.5 c 128,-1,24
 301 658 301 658 401 658 c 0,25,26
 489 658 489 658 536 607 c 128,-1,27
 583 556 583 556 583 468 c 0,28,29
 583 434 583 434 575 384 c 2,30,-1
 558 301 l 2,31,32
 533 179 533 179 466.5 109.5 c 128,-1,33
 400 40 400 40 300 40 c 0,16,17
427 760 m 1,34,-1
 560 916 l 1,35,-1
 512 943 l 1,36,-1
 393 780 l 1,37,-1
 427 760 l 1,34,-1
EndSplineSet
EndChar

StartChar: Ocircumflex
Encoding: 212 212 147
Width: 671
Flags: W
LayerCount: 2
Fore
SplineSet
295 -12 m 0,0,1
 381 -12 381 -12 446 29.5 c 128,-1,2
 511 71 511 71 554.5 139 c 128,-1,3
 598 207 598 207 619.5 289.5 c 128,-1,4
 641 372 641 372 641 454 c 0,5,6
 641 579 641 579 574.5 644.5 c 128,-1,7
 508 710 508 710 406 710 c 0,8,9
 320 710 320 710 255 668.5 c 128,-1,10
 190 627 190 627 147 559 c 128,-1,11
 104 491 104 491 82 408.5 c 128,-1,12
 60 326 60 326 60 244 c 0,13,14
 60 120 60 120 126.5 54 c 128,-1,15
 193 -12 193 -12 295 -12 c 0,0,1
300 40 m 0,16,17
 212 40 212 40 165 91 c 128,-1,18
 118 142 118 142 118 230 c 0,19,20
 118 265 118 265 126 314 c 2,21,-1
 143 397 l 2,22,23
 168 519 168 519 234.5 588.5 c 128,-1,24
 301 658 301 658 401 658 c 0,25,26
 489 658 489 658 536 607 c 128,-1,27
 583 556 583 556 583 468 c 0,28,29
 583 434 583 434 575 384 c 2,30,-1
 558 301 l 2,31,32
 533 179 533 179 466.5 109.5 c 128,-1,33
 400 40 400 40 300 40 c 0,16,17
308 768 m 1,34,-1
 450 888 l 1,35,-1
 548 769 l 1,36,-1
 580 791 l 1,37,-1
 488 930 l 1,38,-1
 422 930 l 1,39,-1
 278 792 l 1,40,-1
 308 768 l 1,34,-1
EndSplineSet
EndChar

StartChar: Otilde
Encoding: 213 213 148
Width: 671
Flags: W
LayerCount: 2
Fore
SplineSet
295 -12 m 0,0,1
 381 -12 381 -12 446 29.5 c 128,-1,2
 511 71 511 71 554.5 139 c 128,-1,3
 598 207 598 207 619.5 289.5 c 128,-1,4
 641 372 641 372 641 454 c 0,5,6
 641 579 641 579 574.5 644.5 c 128,-1,7
 508 710 508 710 406 710 c 0,8,9
 320 710 320 710 255 668.5 c 128,-1,10
 190 627 190 627 147 559 c 128,-1,11
 104 491 104 491 82 408.5 c 128,-1,12
 60 326 60 326 60 244 c 0,13,14
 60 120 60 120 126.5 54 c 128,-1,15
 193 -12 193 -12 295 -12 c 0,0,1
300 40 m 0,16,17
 212 40 212 40 165 91 c 128,-1,18
 118 142 118 142 118 230 c 0,19,20
 118 265 118 265 126 314 c 2,21,-1
 143 397 l 2,22,23
 168 519 168 519 234.5 588.5 c 128,-1,24
 301 658 301 658 401 658 c 0,25,26
 489 658 489 658 536 607 c 128,-1,27
 583 556 583 556 583 468 c 0,28,29
 583 434 583 434 575 384 c 2,30,-1
 558 301 l 2,31,32
 533 179 533 179 466.5 109.5 c 128,-1,33
 400 40 400 40 300 40 c 0,16,17
501 792 m 0,34,35
 552 792 552 792 594 840 c 1,36,-1
 573 868 l 1,37,38
 544 839 544 839 509 839 c 0,39,40
 481 839 481 839 445 863 c 0,41,42
 428 875 428 875 411 883 c 128,-1,43
 394 891 394 891 371 891 c 0,44,45
 320 891 320 891 278 843 c 1,46,-1
 299 815 l 1,47,48
 329 844 329 844 363 844 c 0,49,50
 392 844 392 844 427 820 c 0,51,52
 444 808 444 808 461 800 c 128,-1,53
 478 792 478 792 501 792 c 0,34,35
EndSplineSet
EndChar

StartChar: Odieresis
Encoding: 214 214 149
Width: 671
Flags: W
LayerCount: 2
Fore
SplineSet
295 -12 m 0,0,1
 381 -12 381 -12 446 29.5 c 128,-1,2
 511 71 511 71 554.5 139 c 128,-1,3
 598 207 598 207 619.5 289.5 c 128,-1,4
 641 372 641 372 641 454 c 0,5,6
 641 579 641 579 574.5 644.5 c 128,-1,7
 508 710 508 710 406 710 c 0,8,9
 320 710 320 710 255 668.5 c 128,-1,10
 190 627 190 627 147 559 c 128,-1,11
 104 491 104 491 82 408.5 c 128,-1,12
 60 326 60 326 60 244 c 0,13,14
 60 120 60 120 126.5 54 c 128,-1,15
 193 -12 193 -12 295 -12 c 0,0,1
300 40 m 0,16,17
 212 40 212 40 165 91 c 128,-1,18
 118 142 118 142 118 230 c 0,19,20
 118 265 118 265 126 314 c 2,21,-1
 143 397 l 2,22,23
 168 519 168 519 234.5 588.5 c 128,-1,24
 301 658 301 658 401 658 c 0,25,26
 489 658 489 658 536 607 c 128,-1,27
 583 556 583 556 583 468 c 0,28,29
 583 434 583 434 575 384 c 2,30,-1
 558 301 l 2,31,32
 533 179 533 179 466.5 109.5 c 128,-1,33
 400 40 400 40 300 40 c 0,16,17
341 800 m 0,34,35
 379 800 379 800 384 832 c 2,36,-1
 387 847 l 1,37,-1
 387 854 l 2,38,39
 387 882 387 882 353 882 c 0,40,41
 316 882 316 882 310 850 c 2,42,-1
 307 828 l 2,43,44
 307 800 307 800 341 800 c 0,34,35
523 800 m 0,45,46
 561 800 561 800 566 832 c 2,47,-1
 569 847 l 1,48,-1
 569 854 l 2,49,50
 569 882 569 882 535 882 c 0,51,52
 498 882 498 882 492 850 c 2,53,-1
 489 828 l 2,54,55
 489 800 489 800 523 800 c 0,45,46
EndSplineSet
EndChar

StartChar: multiply
Encoding: 215 215 150
Width: 600
Flags: W
LayerCount: 2
Fore
SplineSet
106 99 m 1,0,-1
 304 269 l 1,1,-1
 434 100 l 1,2,-1
 473 133 l 1,3,-1
 343 303 l 1,4,-1
 541 473 l 1,5,-1
 512 511 l 1,6,-1
 314 342 l 1,7,-1
 184 511 l 1,8,-1
 145 477 l 1,9,-1
 275 308 l 1,10,-1
 76 137 l 1,11,-1
 106 99 l 1,0,-1
EndSplineSet
EndChar

StartChar: Oslash
Encoding: 216 216 151
Width: 671
Flags: W
LayerCount: 2
Fore
SplineSet
40 -41 m 1,0,-1
 126 56 l 1,1,2
 189 -12 189 -12 295 -12 c 0,3,4
 381 -12 381 -12 446 29.5 c 128,-1,5
 511 71 511 71 554.5 139 c 128,-1,6
 598 207 598 207 619.5 289.5 c 128,-1,7
 641 372 641 372 641 454 c 0,8,9
 641 544 641 544 605 601 c 1,10,-1
 698 707 l 1,11,-1
 661 739 l 1,12,-1
 575 642 l 1,13,14
 513 710 513 710 406 710 c 0,15,16
 320 710 320 710 255 668.5 c 128,-1,17
 190 627 190 627 147 559 c 128,-1,18
 104 491 104 491 82 408.5 c 128,-1,19
 60 326 60 326 60 244 c 0,20,21
 60 154 60 154 96 97 c 1,22,-1
 3 -9 l 1,23,-1
 40 -41 l 1,0,-1
135 140 m 1,24,25
 118 181 118 181 118 230 c 0,26,27
 118 265 118 265 126 314 c 2,28,-1
 143 397 l 2,29,30
 168 519 168 519 234.5 588.5 c 128,-1,31
 301 658 301 658 401 658 c 0,32,33
 493 658 493 658 540 599 c 1,34,-1
 135 140 l 1,24,25
300 40 m 0,35,36
 209 40 209 40 161 99 c 1,37,-1
 566 558 l 1,38,39
 583 518 583 518 583 468 c 0,40,41
 583 434 583 434 575 384 c 2,42,-1
 558 301 l 2,43,44
 533 179 533 179 466.5 109.5 c 128,-1,45
 400 40 400 40 300 40 c 0,35,36
EndSplineSet
EndChar

StartChar: Ugrave
Encoding: 217 217 152
Width: 650
Flags: W
LayerCount: 2
Fore
SplineSet
278 -12 m 0,0,1
 403 -12 403 -12 467.5 52.5 c 128,-1,2
 532 117 532 117 563 275 c 2,3,-1
 648 698 l 1,4,-1
 590 698 l 1,5,-1
 506 279 l 2,6,7
 482 149 482 149 431 94.5 c 128,-1,8
 380 40 380 40 284 40 c 0,9,10
 213 40 213 40 176.5 76.5 c 128,-1,11
 140 113 140 113 140 178 c 0,12,13
 140 197 140 197 143 218 c 0,14,15
 145 233 145 233 237 698 c 1,16,-1
 179 698 l 1,17,-1
 97 287 l 2,18,19
 83 223 83 223 83 173 c 0,20,21
 83 83 83 83 134.5 35.5 c 128,-1,22
 186 -12 186 -12 278 -12 c 0,0,1
424 760 m 1,23,-1
 458 776 l 1,24,-1
 389 942 l 1,25,-1
 340 918 l 1,26,-1
 424 760 l 1,23,-1
EndSplineSet
EndChar

StartChar: Uacute
Encoding: 218 218 153
Width: 650
Flags: W
LayerCount: 2
Fore
SplineSet
278 -12 m 0,0,1
 403 -12 403 -12 467.5 52.5 c 128,-1,2
 532 117 532 117 563 275 c 2,3,-1
 648 698 l 1,4,-1
 590 698 l 1,5,-1
 506 279 l 2,6,7
 482 149 482 149 431 94.5 c 128,-1,8
 380 40 380 40 284 40 c 0,9,10
 213 40 213 40 176.5 76.5 c 128,-1,11
 140 113 140 113 140 178 c 0,12,13
 140 197 140 197 143 218 c 0,14,15
 145 233 145 233 237 698 c 1,16,-1
 179 698 l 1,17,-1
 97 287 l 2,18,19
 83 223 83 223 83 173 c 0,20,21
 83 83 83 83 134.5 35.5 c 128,-1,22
 186 -12 186 -12 278 -12 c 0,0,1
425 760 m 1,23,-1
 558 916 l 1,24,-1
 510 943 l 1,25,-1
 391 780 l 1,26,-1
 425 760 l 1,23,-1
EndSplineSet
EndChar

StartChar: Ucircumflex
Encoding: 219 219 154
Width: 650
Flags: W
LayerCount: 2
Fore
SplineSet
278 -12 m 0,0,1
 403 -12 403 -12 467.5 52.5 c 128,-1,2
 532 117 532 117 563 275 c 2,3,-1
 648 698 l 1,4,-1
 590 698 l 1,5,-1
 506 279 l 2,6,7
 482 149 482 149 431 94.5 c 128,-1,8
 380 40 380 40 284 40 c 0,9,10
 213 40 213 40 176.5 76.5 c 128,-1,11
 140 113 140 113 140 178 c 0,12,13
 140 197 140 197 143 218 c 0,14,15
 145 233 145 233 237 698 c 1,16,-1
 179 698 l 1,17,-1
 97 287 l 2,18,19
 83 223 83 223 83 173 c 0,20,21
 83 83 83 83 134.5 35.5 c 128,-1,22
 186 -12 186 -12 278 -12 c 0,0,1
306 768 m 1,23,-1
 448 888 l 1,24,-1
 546 769 l 1,25,-1
 578 791 l 1,26,-1
 486 930 l 1,27,-1
 420 930 l 1,28,-1
 276 792 l 1,29,-1
 306 768 l 1,23,-1
EndSplineSet
EndChar

StartChar: Udieresis
Encoding: 220 220 155
Width: 650
Flags: W
LayerCount: 2
Fore
SplineSet
278 -12 m 0,0,1
 403 -12 403 -12 467.5 52.5 c 128,-1,2
 532 117 532 117 563 275 c 2,3,-1
 648 698 l 1,4,-1
 590 698 l 1,5,-1
 506 279 l 2,6,7
 482 149 482 149 431 94.5 c 128,-1,8
 380 40 380 40 284 40 c 0,9,10
 213 40 213 40 176.5 76.5 c 128,-1,11
 140 113 140 113 140 178 c 0,12,13
 140 197 140 197 143 218 c 0,14,15
 145 233 145 233 237 698 c 1,16,-1
 179 698 l 1,17,-1
 97 287 l 2,18,19
 83 223 83 223 83 173 c 0,20,21
 83 83 83 83 134.5 35.5 c 128,-1,22
 186 -12 186 -12 278 -12 c 0,0,1
339 800 m 0,23,24
 377 800 377 800 382 832 c 2,25,-1
 385 847 l 1,26,-1
 385 854 l 2,27,28
 385 882 385 882 351 882 c 0,29,30
 314 882 314 882 308 850 c 2,31,-1
 305 828 l 2,32,33
 305 800 305 800 339 800 c 0,23,24
521 800 m 0,34,35
 559 800 559 800 564 832 c 2,36,-1
 567 847 l 1,37,-1
 567 854 l 2,38,39
 567 882 567 882 533 882 c 0,40,41
 496 882 496 882 490 850 c 2,42,-1
 487 828 l 2,43,44
 487 800 487 800 521 800 c 0,34,35
EndSplineSet
EndChar

StartChar: Yacute
Encoding: 221 221 156
Width: 563
Flags: W
LayerCount: 2
Fore
SplineSet
259 0 m 1,0,-1
 315 281 l 1,1,-1
 635 698 l 1,2,-1
 568 698 l 1,3,-1
 298 343 l 1,4,-1
 294 343 l 1,5,-1
 166 698 l 1,6,-1
 107 698 l 1,7,-1
 257 281 l 1,8,-1
 201 0 l 1,9,-1
 259 0 l 1,0,-1
376 760 m 1,10,-1
 509 916 l 1,11,-1
 461 943 l 1,12,-1
 342 780 l 1,13,-1
 376 760 l 1,10,-1
EndSplineSet
EndChar

StartChar: Thorn
Encoding: 222 222 157
Width: 589
Flags: W
LayerCount: 2
Fore
SplineSet
102 0 m 1,0,-1
 134 159 l 1,1,-1
 345 159 l 2,2,3
 449 159 449 159 509 223.5 c 128,-1,4
 569 288 569 288 569 390 c 0,5,6
 569 463 569 463 530 504 c 0,7,8
 489 549 489 549 405 549 c 2,9,-1
 213 549 l 1,10,-1
 242 698 l 1,11,-1
 185 698 l 1,12,-1
 44 0 l 1,13,-1
 102 0 l 1,0,-1
353 210 m 2,14,-1
 145 210 l 1,15,-1
 202 498 l 1,16,-1
 400 498 l 2,17,18
 459 498 459 498 484 469.5 c 128,-1,19
 509 441 509 441 509 399 c 0,20,21
 509 378 509 378 499 327 c 0,22,23
 488 272 488 272 450.5 241 c 128,-1,24
 413 210 413 210 353 210 c 2,14,-1
EndSplineSet
EndChar

StartChar: germandbls
Encoding: 223 223 158
Width: 636
Flags: W
LayerCount: 2
Fore
SplineSet
398 -12 m 0,0,1
 475 -12 475 -12 526 30.5 c 128,-1,2
 577 73 577 73 577 149 c 0,3,4
 577 179 577 179 569 199 c 0,5,6
 548 251 548 251 468 275 c 2,7,-1
 424 289 l 2,8,9
 389 300 389 300 374 318 c 128,-1,10
 359 336 359 336 359 369 c 0,11,12
 359 421 359 421 405.5 446 c 128,-1,13
 452 471 452 471 532 471 c 2,14,-1
 565 471 l 1,15,-1
 575 521 l 2,16,17
 581 555 581 555 581 586 c 0,18,19
 581 664 581 664 536 708 c 128,-1,20
 491 752 491 752 413 752 c 0,21,22
 212 752 212 752 165 526 c 2,23,-1
 162 512 l 1,24,-1
 74 512 l 1,25,-1
 65 463 l 1,26,-1
 153 463 l 1,27,-1
 60 0 l 1,28,-1
 116 0 l 1,29,-1
 220 525 l 1,30,31
 250 704 250 704 406 704 c 0,32,33
 526 704 526 704 528 586 c 0,34,35
 528 553 528 553 519 516 c 1,36,37
 423 516 423 516 364 474 c 128,-1,38
 305 432 305 432 305 366 c 0,39,40
 305 336 305 336 313 316 c 0,41,42
 335 262 335 262 415 240 c 1,43,-1
 458 225 l 2,44,45
 493 214 493 214 508 196 c 128,-1,46
 523 178 523 178 523 146 c 0,47,48
 523 92 523 92 488.5 64 c 128,-1,49
 454 36 454 36 398 36 c 0,50,51
 301 36 301 36 246 117 c 1,52,-1
 207 84 l 1,53,54
 238 37 238 37 287.5 12.5 c 128,-1,55
 337 -12 337 -12 398 -12 c 0,0,1
EndSplineSet
EndChar

StartChar: agrave
Encoding: 224 224 159
Width: 577
Flags: W
LayerCount: 2
Fore
SplineSet
214 -12 m 0,0,1
 274 -12 274 -12 314.5 19 c 128,-1,2
 355 50 355 50 386 112 c 1,3,-1
 389 112 l 1,4,5
 378 54 378 54 378 45 c 0,6,7
 378 0 378 0 428 0 c 2,8,-1
 500 0 l 1,9,-1
 510 49 l 1,10,-1
 432 49 l 1,11,-1
 524 512 l 1,12,-1
 469 512 l 1,13,-1
 452 425 l 1,14,-1
 449 425 l 1,15,16
 436 473 436 473 397.5 498.5 c 128,-1,17
 359 524 359 524 305 524 c 0,18,19
 243 524 243 524 196 494 c 128,-1,20
 149 464 149 464 118 415 c 128,-1,21
 87 366 87 366 71 304.5 c 128,-1,22
 55 243 55 243 55 181 c 0,23,24
 55 93 55 93 98 40.5 c 128,-1,25
 141 -12 141 -12 214 -12 c 0,0,1
227 38 m 0,26,27
 167 38 167 38 139 77.5 c 128,-1,28
 111 117 111 117 111 175 c 0,29,30
 111 210 111 210 116 234 c 2,31,-1
 128 294 l 2,32,33
 145 379 145 379 191.5 426.5 c 128,-1,34
 238 474 238 474 310 474 c 0,35,36
 383 474 383 474 416 432 c 0,37,38
 438 403 438 403 438 368 c 0,39,40
 438 355 438 355 435 341 c 2,41,-1
 411 222 l 2,42,43
 392 133 392 133 335 85 c 1,44,45
 292 38 292 38 227 38 c 0,26,27
340 586 m 1,46,-1
 373 602 l 1,47,-1
 305 766 l 1,48,-1
 256 742 l 1,49,-1
 340 586 l 1,46,-1
EndSplineSet
EndChar

StartChar: aacute
Encoding: 225 225 160
Width: 577
Flags: W
LayerCount: 2
Fore
SplineSet
214 -12 m 0,0,1
 274 -12 274 -12 314.5 19 c 128,-1,2
 355 50 355 50 386 112 c 1,3,-1
 389 112 l 1,4,5
 378 54 378 54 378 45 c 0,6,7
 378 0 378 0 428 0 c 2,8,-1
 500 0 l 1,9,-1
 510 49 l 1,10,-1
 432 49 l 1,11,-1
 524 512 l 1,12,-1
 469 512 l 1,13,-1
 452 425 l 1,14,-1
 449 425 l 1,15,16
 436 473 436 473 397.5 498.5 c 128,-1,17
 359 524 359 524 305 524 c 0,18,19
 243 524 243 524 196 494 c 128,-1,20
 149 464 149 464 118 415 c 128,-1,21
 87 366 87 366 71 304.5 c 128,-1,22
 55 243 55 243 55 181 c 0,23,24
 55 93 55 93 98 40.5 c 128,-1,25
 141 -12 141 -12 214 -12 c 0,0,1
227 38 m 0,26,27
 167 38 167 38 139 77.5 c 128,-1,28
 111 117 111 117 111 175 c 0,29,30
 111 210 111 210 116 234 c 2,31,-1
 128 294 l 2,32,33
 145 379 145 379 191.5 426.5 c 128,-1,34
 238 474 238 474 310 474 c 0,35,36
 383 474 383 474 416 432 c 0,37,38
 438 403 438 403 438 368 c 0,39,40
 438 355 438 355 435 341 c 2,41,-1
 411 222 l 2,42,43
 392 133 392 133 335 85 c 1,44,45
 292 38 292 38 227 38 c 0,26,27
343 586 m 1,46,-1
 476 742 l 1,47,-1
 428 769 l 1,48,-1
 308 605 l 1,49,-1
 343 586 l 1,46,-1
EndSplineSet
EndChar

StartChar: acircumflex
Encoding: 226 226 161
Width: 577
Flags: W
LayerCount: 2
Fore
SplineSet
214 -12 m 0,0,1
 274 -12 274 -12 314.5 19 c 128,-1,2
 355 50 355 50 386 112 c 1,3,-1
 389 112 l 1,4,5
 378 54 378 54 378 45 c 0,6,7
 378 0 378 0 428 0 c 2,8,-1
 500 0 l 1,9,-1
 510 49 l 1,10,-1
 432 49 l 1,11,-1
 524 512 l 1,12,-1
 469 512 l 1,13,-1
 452 425 l 1,14,-1
 449 425 l 1,15,16
 436 473 436 473 397.5 498.5 c 128,-1,17
 359 524 359 524 305 524 c 0,18,19
 243 524 243 524 196 494 c 128,-1,20
 149 464 149 464 118 415 c 128,-1,21
 87 366 87 366 71 304.5 c 128,-1,22
 55 243 55 243 55 181 c 0,23,24
 55 93 55 93 98 40.5 c 128,-1,25
 141 -12 141 -12 214 -12 c 0,0,1
227 38 m 0,26,27
 167 38 167 38 139 77.5 c 128,-1,28
 111 117 111 117 111 175 c 0,29,30
 111 210 111 210 116 234 c 2,31,-1
 128 294 l 2,32,33
 145 379 145 379 191.5 426.5 c 128,-1,34
 238 474 238 474 310 474 c 0,35,36
 383 474 383 474 416 432 c 0,37,38
 438 403 438 403 438 368 c 0,39,40
 438 355 438 355 435 341 c 2,41,-1
 411 222 l 2,42,43
 392 133 392 133 335 85 c 1,44,45
 292 38 292 38 227 38 c 0,26,27
464 594 m 1,46,-1
 496 617 l 1,47,-1
 404 756 l 1,48,-1
 338 756 l 1,49,-1
 195 618 l 1,50,-1
 224 594 l 1,51,-1
 366 714 l 1,52,-1
 464 594 l 1,46,-1
EndSplineSet
EndChar

StartChar: atilde
Encoding: 227 227 162
Width: 577
Flags: W
LayerCount: 2
Fore
SplineSet
214 -12 m 0,0,1
 274 -12 274 -12 314.5 19 c 128,-1,2
 355 50 355 50 386 112 c 1,3,-1
 389 112 l 1,4,5
 378 54 378 54 378 45 c 0,6,7
 378 0 378 0 428 0 c 2,8,-1
 500 0 l 1,9,-1
 510 49 l 1,10,-1
 432 49 l 1,11,-1
 524 512 l 1,12,-1
 469 512 l 1,13,-1
 452 425 l 1,14,-1
 449 425 l 1,15,16
 436 473 436 473 397.5 498.5 c 128,-1,17
 359 524 359 524 305 524 c 0,18,19
 243 524 243 524 196 494 c 128,-1,20
 149 464 149 464 118 415 c 128,-1,21
 87 366 87 366 71 304.5 c 128,-1,22
 55 243 55 243 55 181 c 0,23,24
 55 93 55 93 98 40.5 c 128,-1,25
 141 -12 141 -12 214 -12 c 0,0,1
227 38 m 0,26,27
 167 38 167 38 139 77.5 c 128,-1,28
 111 117 111 117 111 175 c 0,29,30
 111 210 111 210 116 234 c 2,31,-1
 128 294 l 2,32,33
 145 379 145 379 191.5 426.5 c 128,-1,34
 238 474 238 474 310 474 c 0,35,36
 383 474 383 474 416 432 c 0,37,38
 438 403 438 403 438 368 c 0,39,40
 438 355 438 355 435 341 c 2,41,-1
 411 222 l 2,42,43
 392 133 392 133 335 85 c 1,44,45
 292 38 292 38 227 38 c 0,26,27
421 618 m 0,46,47
 472 618 472 618 514 666 c 1,48,-1
 493 694 l 1,49,50
 464 665 464 665 429 665 c 0,51,52
 401 665 401 665 365 689 c 0,53,54
 348 701 348 701 331 709 c 128,-1,55
 314 717 314 717 291 717 c 0,56,57
 240 717 240 717 198 669 c 1,58,-1
 219 641 l 1,59,60
 249 670 249 670 283 670 c 0,61,62
 312 670 312 670 347 646 c 0,63,64
 364 634 364 634 381 626 c 128,-1,65
 398 618 398 618 421 618 c 0,46,47
EndSplineSet
EndChar

StartChar: adieresis
Encoding: 228 228 163
Width: 577
Flags: W
LayerCount: 2
Fore
SplineSet
214 -12 m 0,0,1
 274 -12 274 -12 314.5 19 c 128,-1,2
 355 50 355 50 386 112 c 1,3,-1
 389 112 l 1,4,5
 378 54 378 54 378 45 c 0,6,7
 378 0 378 0 428 0 c 2,8,-1
 500 0 l 1,9,-1
 510 49 l 1,10,-1
 432 49 l 1,11,-1
 524 512 l 1,12,-1
 469 512 l 1,13,-1
 452 425 l 1,14,-1
 449 425 l 1,15,16
 436 473 436 473 397.5 498.5 c 128,-1,17
 359 524 359 524 305 524 c 0,18,19
 243 524 243 524 196 494 c 128,-1,20
 149 464 149 464 118 415 c 128,-1,21
 87 366 87 366 71 304.5 c 128,-1,22
 55 243 55 243 55 181 c 0,23,24
 55 93 55 93 98 40.5 c 128,-1,25
 141 -12 141 -12 214 -12 c 0,0,1
227 38 m 0,26,27
 167 38 167 38 139 77.5 c 128,-1,28
 111 117 111 117 111 175 c 0,29,30
 111 210 111 210 116 234 c 2,31,-1
 128 294 l 2,32,33
 145 379 145 379 191.5 426.5 c 128,-1,34
 238 474 238 474 310 474 c 0,35,36
 383 474 383 474 416 432 c 0,37,38
 438 403 438 403 438 368 c 0,39,40
 438 355 438 355 435 341 c 2,41,-1
 411 222 l 2,42,43
 392 133 392 133 335 85 c 1,44,45
 292 38 292 38 227 38 c 0,26,27
260 626 m 0,46,47
 298 626 298 626 303 658 c 2,48,-1
 306 673 l 1,49,-1
 306 680 l 2,50,51
 306 708 306 708 272 708 c 0,52,53
 235 708 235 708 229 676 c 2,54,-1
 226 654 l 2,55,56
 226 626 226 626 260 626 c 0,46,47
442 626 m 0,57,58
 480 626 480 626 485 658 c 2,59,-1
 488 673 l 1,60,-1
 488 680 l 2,61,62
 488 708 488 708 454 708 c 0,63,64
 417 708 417 708 411 676 c 2,65,-1
 408 654 l 2,66,67
 408 626 408 626 442 626 c 0,57,58
EndSplineSet
EndChar

StartChar: aring
Encoding: 229 229 164
Width: 577
Flags: W
LayerCount: 2
Fore
SplineSet
214 -12 m 0,0,1
 274 -12 274 -12 314.5 19 c 128,-1,2
 355 50 355 50 386 112 c 1,3,-1
 389 112 l 1,4,5
 378 54 378 54 378 45 c 0,6,7
 378 0 378 0 428 0 c 2,8,-1
 500 0 l 1,9,-1
 510 49 l 1,10,-1
 432 49 l 1,11,-1
 524 512 l 1,12,-1
 469 512 l 1,13,-1
 452 425 l 1,14,-1
 449 425 l 1,15,16
 436 473 436 473 397.5 498.5 c 128,-1,17
 359 524 359 524 305 524 c 0,18,19
 243 524 243 524 196 494 c 128,-1,20
 149 464 149 464 118 415 c 128,-1,21
 87 366 87 366 71 304.5 c 128,-1,22
 55 243 55 243 55 181 c 0,23,24
 55 93 55 93 98 40.5 c 128,-1,25
 141 -12 141 -12 214 -12 c 0,0,1
227 38 m 0,26,27
 167 38 167 38 139 77.5 c 128,-1,28
 111 117 111 117 111 175 c 0,29,30
 111 210 111 210 116 234 c 2,31,-1
 128 294 l 2,32,33
 145 379 145 379 191.5 426.5 c 128,-1,34
 238 474 238 474 310 474 c 0,35,36
 383 474 383 474 416 432 c 0,37,38
 438 403 438 403 438 368 c 0,39,40
 438 355 438 355 435 341 c 2,41,-1
 411 222 l 2,42,43
 392 133 392 133 335 85 c 1,44,45
 292 38 292 38 227 38 c 0,26,27
344 581 m 0,46,47
 399 581 399 581 431.5 614 c 128,-1,48
 464 647 464 647 464 703 c 0,49,50
 464 739 464 739 441.5 765.5 c 128,-1,51
 419 792 419 792 374 792 c 0,52,53
 319 792 319 792 286.5 759 c 128,-1,54
 254 726 254 726 254 670 c 0,55,56
 254 634 254 634 276.5 607.5 c 128,-1,57
 299 581 299 581 344 581 c 0,46,47
349 617 m 0,58,59
 295 617 295 617 295 666 c 0,60,61
 295 677 295 677 299 696 c 0,62,63
 311 756 311 756 369 756 c 0,64,65
 423 756 423 756 423 707 c 0,66,67
 423 697 423 697 419 677 c 0,68,69
 408 617 408 617 349 617 c 0,58,59
EndSplineSet
EndChar

StartChar: ae
Encoding: 230 230 165
Width: 827
Flags: W
LayerCount: 2
Fore
SplineSet
192 37 m 0,0,1
 90 37 90 37 88 112 c 1,2,-1
 89 126 l 1,3,4
 89 225 89 225 246 229 c 2,5,-1
 377 234 l 1,6,-1
 361 155 l 2,7,8
 349 99 349 99 300.5 68 c 128,-1,9
 252 37 252 37 192 37 c 0,0,1
439 277 m 1,10,11
 454 372 454 372 508 426 c 0,12,13
 558 476 558 476 631 476 c 0,14,15
 739 476 739 476 739 390 c 0,16,17
 739 367 739 367 727 347 c 128,-1,18
 715 327 715 327 683 313 c 0,19,20
 622 282 622 282 439 277 c 1,10,11
559 -12 m 0,21,22
 687 -12 687 -12 771 106 c 1,23,-1
 733 136 l 1,24,25
 666 37 666 37 563 37 c 0,26,27
 496 37 496 37 461.5 77 c 128,-1,28
 427 117 427 117 427 180 c 0,29,30
 427 209 427 209 432 234 c 1,31,32
 632 236 632 236 715 279 c 0,33,34
 796 318 796 318 796 394 c 0,35,36
 796 459 796 459 748 491.5 c 128,-1,37
 700 524 700 524 634 524 c 0,38,39
 573 524 573 524 525.5 495 c 128,-1,40
 478 466 478 466 446 415 c 1,41,-1
 441 415 l 1,42,43
 432 464 432 464 396.5 494 c 128,-1,44
 361 524 361 524 292 524 c 0,45,46
 159 524 159 524 98 423 c 1,47,-1
 134 392 l 1,48,49
 161 433 161 433 195.5 453.5 c 128,-1,50
 230 474 230 474 284 474 c 0,51,52
 401 474 401 474 401 376 c 0,53,54
 401 357 401 357 397 339 c 2,55,-1
 386 276 l 1,56,-1
 249 270 l 2,57,58
 138 265 138 265 85 227.5 c 128,-1,59
 32 190 32 190 32 115 c 0,60,61
 32 -9 32 -9 181 -12 c 0,62,63
 249 -12 249 -12 302 19.5 c 128,-1,64
 355 51 355 51 380 111 c 1,65,-1
 386 111 l 1,66,67
 423 -12 423 -12 559 -12 c 0,21,22
EndSplineSet
EndChar

StartChar: ccedilla
Encoding: 231 231 166
Width: 484
Flags: W
LayerCount: 2
Fore
SplineSet
213 -205 m 0,0,1
 259 -205 259 -205 287.5 -181 c 128,-1,2
 316 -157 316 -157 316 -120 c 0,3,4
 316 -65 316 -65 257 -65 c 0,5,6
 243 -65 243 -65 233 -67 c 2,7,-1
 227 -68 l 1,8,-1
 225 -66 l 1,9,-1
 245 -11 l 1,10,11
 368 0 368 0 431 123 c 1,12,-1
 387 144 l 1,13,14
 328 37 328 37 236 37 c 0,15,16
 171 37 171 37 139.5 79 c 128,-1,17
 108 121 108 121 108 184 c 0,18,19
 108 210 108 210 113 236 c 2,20,-1
 127 306 l 2,21,22
 142 385 142 385 187 430 c 128,-1,23
 232 475 232 475 300 475 c 0,24,25
 393 475 393 475 418 386 c 1,26,-1
 464 405 l 1,27,28
 451 459 451 459 409 491.5 c 128,-1,29
 367 524 367 524 302 524 c 0,30,31
 187 524 187 524 120.5 427.5 c 128,-1,32
 54 331 54 331 54 194 c 0,33,34
 54 108 54 108 94 53 c 128,-1,35
 134 -2 134 -2 209 -11 c 1,36,-1
 184 -79 l 1,37,-1
 215 -82 l 2,38,39
 268 -86 268 -86 268 -121 c 0,40,41
 268 -161 268 -161 212 -166 c 0,42,43
 169 -166 169 -166 152 -140 c 1,44,-1
 122 -170 l 1,45,46
 133 -185 133 -185 156 -195 c 128,-1,47
 179 -205 179 -205 213 -205 c 0,0,1
EndSplineSet
EndChar

StartChar: egrave
Encoding: 232 232 167
Width: 508
Flags: W
LayerCount: 2
Fore
SplineSet
240 -12 m 0,0,1
 367 -12 367 -12 451 106 c 1,2,-1
 413 136 l 1,3,4
 383 90 383 90 340 63.5 c 128,-1,5
 297 37 297 37 243 37 c 0,6,7
 110 37 110 37 109 183 c 0,8,9
 109 212 109 212 112 226 c 1,10,11
 317 230 317 230 399 275 c 0,12,13
 477 316 477 316 477 392 c 0,14,15
 477 457 477 457 429.5 490.5 c 128,-1,16
 382 524 382 524 314 524 c 0,17,18
 255 524 255 524 207 498 c 128,-1,19
 159 472 159 472 125 427 c 0,20,21
 53 329 53 329 53 197 c 0,22,23
 53 93 53 93 101.5 40.5 c 128,-1,24
 150 -12 150 -12 240 -12 c 0,0,1
119 270 m 1,25,-1
 124 294 l 2,26,27
 142 376 142 376 190 426 c 128,-1,28
 238 476 238 476 308 476 c 0,29,30
 359 476 359 476 389.5 456 c 128,-1,31
 420 436 420 436 420 393 c 0,32,33
 420 367 420 367 408 345.5 c 128,-1,34
 396 324 396 324 364 308 c 0,35,36
 302 276 302 276 119 270 c 1,25,-1
327 586 m 1,37,-1
 360 602 l 1,38,-1
 292 766 l 1,39,-1
 243 742 l 1,40,-1
 327 586 l 1,37,-1
EndSplineSet
EndChar

StartChar: eacute
Encoding: 233 233 168
Width: 508
Flags: W
LayerCount: 2
Fore
SplineSet
240 -12 m 0,0,1
 367 -12 367 -12 451 106 c 1,2,-1
 413 136 l 1,3,4
 383 90 383 90 340 63.5 c 128,-1,5
 297 37 297 37 243 37 c 0,6,7
 110 37 110 37 109 183 c 0,8,9
 109 212 109 212 112 226 c 1,10,11
 317 230 317 230 399 275 c 0,12,13
 477 316 477 316 477 392 c 0,14,15
 477 457 477 457 429.5 490.5 c 128,-1,16
 382 524 382 524 314 524 c 0,17,18
 255 524 255 524 207 498 c 128,-1,19
 159 472 159 472 125 427 c 0,20,21
 53 329 53 329 53 197 c 0,22,23
 53 93 53 93 101.5 40.5 c 128,-1,24
 150 -12 150 -12 240 -12 c 0,0,1
119 270 m 1,25,-1
 124 294 l 2,26,27
 142 376 142 376 190 426 c 128,-1,28
 238 476 238 476 308 476 c 0,29,30
 359 476 359 476 389.5 456 c 128,-1,31
 420 436 420 436 420 393 c 0,32,33
 420 367 420 367 408 345.5 c 128,-1,34
 396 324 396 324 364 308 c 0,35,36
 302 276 302 276 119 270 c 1,25,-1
330 586 m 1,37,-1
 463 742 l 1,38,-1
 415 769 l 1,39,-1
 295 605 l 1,40,-1
 330 586 l 1,37,-1
EndSplineSet
EndChar

StartChar: ecircumflex
Encoding: 234 234 169
Width: 508
Flags: W
LayerCount: 2
Fore
SplineSet
240 -12 m 0,0,1
 367 -12 367 -12 451 106 c 1,2,-1
 413 136 l 1,3,4
 383 90 383 90 340 63.5 c 128,-1,5
 297 37 297 37 243 37 c 0,6,7
 110 37 110 37 109 183 c 0,8,9
 109 212 109 212 112 226 c 1,10,11
 317 230 317 230 399 275 c 0,12,13
 477 316 477 316 477 392 c 0,14,15
 477 457 477 457 429.5 490.5 c 128,-1,16
 382 524 382 524 314 524 c 0,17,18
 255 524 255 524 207 498 c 128,-1,19
 159 472 159 472 125 427 c 0,20,21
 53 329 53 329 53 197 c 0,22,23
 53 93 53 93 101.5 40.5 c 128,-1,24
 150 -12 150 -12 240 -12 c 0,0,1
119 270 m 1,25,-1
 124 294 l 2,26,27
 142 376 142 376 190 426 c 128,-1,28
 238 476 238 476 308 476 c 0,29,30
 359 476 359 476 389.5 456 c 128,-1,31
 420 436 420 436 420 393 c 0,32,33
 420 367 420 367 408 345.5 c 128,-1,34
 396 324 396 324 364 308 c 0,35,36
 302 276 302 276 119 270 c 1,25,-1
451 594 m 1,37,-1
 483 617 l 1,38,-1
 391 756 l 1,39,-1
 325 756 l 1,40,-1
 182 618 l 1,41,-1
 211 594 l 1,42,-1
 353 714 l 1,43,-1
 451 594 l 1,37,-1
EndSplineSet
EndChar

StartChar: edieresis
Encoding: 235 235 170
Width: 508
Flags: W
LayerCount: 2
Fore
SplineSet
240 -12 m 0,0,1
 367 -12 367 -12 451 106 c 1,2,-1
 413 136 l 1,3,4
 383 90 383 90 340 63.5 c 128,-1,5
 297 37 297 37 243 37 c 0,6,7
 110 37 110 37 109 183 c 0,8,9
 109 212 109 212 112 226 c 1,10,11
 317 230 317 230 399 275 c 0,12,13
 477 316 477 316 477 392 c 0,14,15
 477 457 477 457 429.5 490.5 c 128,-1,16
 382 524 382 524 314 524 c 0,17,18
 255 524 255 524 207 498 c 128,-1,19
 159 472 159 472 125 427 c 0,20,21
 53 329 53 329 53 197 c 0,22,23
 53 93 53 93 101.5 40.5 c 128,-1,24
 150 -12 150 -12 240 -12 c 0,0,1
119 270 m 1,25,-1
 124 294 l 2,26,27
 142 376 142 376 190 426 c 128,-1,28
 238 476 238 476 308 476 c 0,29,30
 359 476 359 476 389.5 456 c 128,-1,31
 420 436 420 436 420 393 c 0,32,33
 420 367 420 367 408 345.5 c 128,-1,34
 396 324 396 324 364 308 c 0,35,36
 302 276 302 276 119 270 c 1,25,-1
247 626 m 0,37,38
 285 626 285 626 290 658 c 2,39,-1
 293 673 l 1,40,-1
 293 680 l 2,41,42
 293 708 293 708 259 708 c 0,43,44
 222 708 222 708 216 676 c 2,45,-1
 213 654 l 2,46,47
 213 626 213 626 247 626 c 0,37,38
429 626 m 0,48,49
 467 626 467 626 472 658 c 2,50,-1
 475 673 l 1,51,-1
 475 680 l 2,52,53
 475 708 475 708 441 708 c 0,54,55
 404 708 404 708 398 676 c 2,56,-1
 395 654 l 2,57,58
 395 626 395 626 429 626 c 0,48,49
EndSplineSet
EndChar

StartChar: igrave
Encoding: 236 236 171
Width: 253
Flags: W
LayerCount: 2
Fore
SplineSet
176 0 m 1,0,-1
 186 49 l 1,1,-1
 108 49 l 1,2,-1
 201 512 l 1,3,-1
 146 512 l 1,4,5
 56 64 56 64 55 61 c 128,-1,6
 54 58 54 58 54 46 c 0,7,8
 54 0 54 0 105 0 c 2,9,-1
 176 0 l 1,0,-1
189 586 m 1,10,-1
 222 602 l 1,11,-1
 154 766 l 1,12,-1
 105 742 l 1,13,-1
 189 586 l 1,10,-1
EndSplineSet
EndChar

StartChar: iacute
Encoding: 237 237 172
Width: 253
Flags: W
LayerCount: 2
Fore
SplineSet
176 0 m 1,0,-1
 186 49 l 1,1,-1
 108 49 l 1,2,-1
 201 512 l 1,3,-1
 146 512 l 1,4,5
 56 64 56 64 55 61 c 128,-1,6
 54 58 54 58 54 46 c 0,7,8
 54 0 54 0 105 0 c 2,9,-1
 176 0 l 1,0,-1
192 586 m 1,10,-1
 325 742 l 1,11,-1
 277 769 l 1,12,-1
 157 605 l 1,13,-1
 192 586 l 1,10,-1
EndSplineSet
EndChar

StartChar: icircumflex
Encoding: 238 238 173
Width: 253
Flags: W
LayerCount: 2
Fore
SplineSet
176 0 m 1,0,-1
 186 49 l 1,1,-1
 108 49 l 1,2,-1
 201 512 l 1,3,-1
 146 512 l 1,4,5
 56 64 56 64 55 61 c 128,-1,6
 54 58 54 58 54 46 c 0,7,8
 54 0 54 0 105 0 c 2,9,-1
 176 0 l 1,0,-1
313 594 m 1,10,-1
 345 617 l 1,11,-1
 253 756 l 1,12,-1
 187 756 l 1,13,-1
 44 618 l 1,14,-1
 73 594 l 1,15,-1
 215 714 l 1,16,-1
 313 594 l 1,10,-1
EndSplineSet
EndChar

StartChar: idieresis
Encoding: 239 239 174
Width: 253
Flags: W
LayerCount: 2
Fore
SplineSet
176 0 m 1,0,-1
 186 49 l 1,1,-1
 108 49 l 1,2,-1
 201 512 l 1,3,-1
 146 512 l 1,4,5
 56 64 56 64 55 61 c 128,-1,6
 54 58 54 58 54 46 c 0,7,8
 54 0 54 0 105 0 c 2,9,-1
 176 0 l 1,0,-1
109 626 m 0,10,11
 147 626 147 626 152 658 c 2,12,-1
 155 673 l 1,13,-1
 155 680 l 2,14,15
 155 708 155 708 121 708 c 0,16,17
 84 708 84 708 78 676 c 2,18,-1
 75 654 l 2,19,20
 75 626 75 626 109 626 c 0,10,11
291 626 m 0,21,22
 329 626 329 626 334 658 c 2,23,-1
 337 673 l 1,24,-1
 337 680 l 2,25,26
 337 708 337 708 303 708 c 0,27,28
 266 708 266 708 260 676 c 2,29,-1
 257 654 l 2,30,31
 257 626 257 626 291 626 c 0,21,22
EndSplineSet
EndChar

StartChar: eth
Encoding: 240 240 175
Width: 562
Flags: W
LayerCount: 2
Fore
SplineSet
237 -12 m 0,0,1
 356 -12 356 -12 430 83 c 128,-1,2
 504 178 504 178 504 346 c 0,3,4
 504 444 504 444 469 528 c 0,5,6
 436 604 436 604 388 655 c 1,7,-1
 489 719 l 1,8,-1
 469 753 l 1,9,-1
 362 683 l 1,10,11
 324 718 324 718 288 740 c 1,12,-1
 206 740 l 1,13,14
 270 706 270 706 321 658 c 1,15,-1
 226 596 l 1,16,-1
 245 564 l 1,17,-1
 347 629 l 1,18,19
 430 537 430 537 447 416 c 1,20,-1
 443 414 l 1,21,22
 406 505 406 505 299 505 c 0,23,24
 246 505 246 505 201 480.5 c 128,-1,25
 156 456 156 456 123 414 c 0,26,27
 53 322 53 322 53 190 c 0,28,29
 53 100 53 100 102.5 44 c 128,-1,30
 152 -12 152 -12 237 -12 c 0,0,1
246 38 m 0,31,32
 183 38 183 38 145 74 c 128,-1,33
 107 110 107 110 107 176 c 0,34,35
 107 196 107 196 112.5 224.5 c 128,-1,36
 118 253 118 253 123 281 c 0,37,38
 139 362 139 362 188 408.5 c 128,-1,39
 237 455 237 455 305 455 c 0,40,41
 368 455 368 455 406 419 c 128,-1,42
 444 383 444 383 444 317 c 0,43,44
 444 298 444 298 439 269.5 c 128,-1,45
 434 241 434 241 428 212 c 0,46,47
 412 131 412 131 363 84.5 c 128,-1,48
 314 38 314 38 246 38 c 0,31,32
EndSplineSet
EndChar

StartChar: ntilde
Encoding: 241 241 176
Width: 558
Flags: W
LayerCount: 2
Fore
SplineSet
489 0 m 1,0,-1
 499 49 l 1,1,-1
 421 49 l 1,2,-1
 475 319 l 2,3,4
 482 357 482 357 482 385 c 0,5,6
 482 451 482 451 449 487.5 c 128,-1,7
 416 524 416 524 350 524 c 0,8,9
 291 524 291 524 251 495.5 c 128,-1,10
 211 467 211 467 184 409 c 1,11,-1
 180 409 l 1,12,-1
 201 512 l 1,13,-1
 145 512 l 1,14,-1
 43 0 l 1,15,-1
 98 0 l 1,16,-1
 157 297 l 1,17,18
 177 375 177 375 223 425 c 0,19,20
 273 474 273 474 333 474 c 0,21,22
 426 474 426 474 426 376 c 0,23,24
 426 351 426 351 420 319 c 0,25,26
 366 50 366 50 366 42 c 0,27,28
 366 0 366 0 415 0 c 2,29,-1
 489 0 l 1,0,-1
425 618 m 0,30,31
 476 618 476 618 518 666 c 1,32,-1
 497 694 l 1,33,34
 468 665 468 665 433 665 c 0,35,36
 405 665 405 665 369 689 c 0,37,38
 352 701 352 701 335 709 c 128,-1,39
 318 717 318 717 295 717 c 0,40,41
 244 717 244 717 202 669 c 1,42,-1
 223 641 l 1,43,44
 253 670 253 670 287 670 c 0,45,46
 316 670 316 670 351 646 c 0,47,48
 368 634 368 634 385 626 c 128,-1,49
 402 618 402 618 425 618 c 0,30,31
EndSplineSet
EndChar

StartChar: ograve
Encoding: 242 242 177
Width: 544
Flags: W
LayerCount: 2
Fore
SplineSet
231 -12 m 0,0,1
 291 -12 291 -12 339.5 15.5 c 128,-1,2
 388 43 388 43 422 90 c 0,3,4
 491 191 491 191 491 324 c 0,5,6
 491 418 491 418 442.5 471 c 128,-1,7
 394 524 394 524 313 524 c 0,8,9
 253 524 253 524 204.5 497 c 128,-1,10
 156 470 156 470 123 423 c 0,11,12
 53 322 53 322 53 188 c 0,13,14
 53 94 53 94 101.5 41 c 128,-1,15
 150 -12 150 -12 231 -12 c 0,0,1
238 37 m 0,16,17
 173 37 173 37 141 76 c 128,-1,18
 109 115 109 115 109 174 c 0,19,20
 109 204 109 204 114 230 c 2,21,-1
 126 291 l 2,22,23
 144 379 144 379 191.5 427 c 128,-1,24
 239 475 239 475 306 475 c 0,25,26
 372 475 372 475 403.5 436 c 128,-1,27
 435 397 435 397 435 338 c 0,28,29
 435 308 435 308 430 282 c 2,30,-1
 418 221 l 2,31,32
 400 133 400 133 352.5 85 c 128,-1,33
 305 37 305 37 238 37 c 0,16,17
325 586 m 1,34,-1
 358 602 l 1,35,-1
 290 766 l 1,36,-1
 241 742 l 1,37,-1
 325 586 l 1,34,-1
EndSplineSet
EndChar

StartChar: oacute
Encoding: 243 243 178
Width: 544
Flags: W
LayerCount: 2
Fore
SplineSet
231 -12 m 0,0,1
 291 -12 291 -12 339.5 15.5 c 128,-1,2
 388 43 388 43 422 90 c 0,3,4
 491 191 491 191 491 324 c 0,5,6
 491 418 491 418 442.5 471 c 128,-1,7
 394 524 394 524 313 524 c 0,8,9
 253 524 253 524 204.5 497 c 128,-1,10
 156 470 156 470 123 423 c 0,11,12
 53 322 53 322 53 188 c 0,13,14
 53 94 53 94 101.5 41 c 128,-1,15
 150 -12 150 -12 231 -12 c 0,0,1
238 37 m 0,16,17
 173 37 173 37 141 76 c 128,-1,18
 109 115 109 115 109 174 c 0,19,20
 109 204 109 204 114 230 c 2,21,-1
 126 291 l 2,22,23
 144 379 144 379 191.5 427 c 128,-1,24
 239 475 239 475 306 475 c 0,25,26
 372 475 372 475 403.5 436 c 128,-1,27
 435 397 435 397 435 338 c 0,28,29
 435 308 435 308 430 282 c 2,30,-1
 418 221 l 2,31,32
 400 133 400 133 352.5 85 c 128,-1,33
 305 37 305 37 238 37 c 0,16,17
328 586 m 1,34,-1
 461 742 l 1,35,-1
 413 769 l 1,36,-1
 293 605 l 1,37,-1
 328 586 l 1,34,-1
EndSplineSet
EndChar

StartChar: ocircumflex
Encoding: 244 244 179
Width: 544
Flags: W
LayerCount: 2
Fore
SplineSet
231 -12 m 0,0,1
 291 -12 291 -12 339.5 15.5 c 128,-1,2
 388 43 388 43 422 90 c 0,3,4
 491 191 491 191 491 324 c 0,5,6
 491 418 491 418 442.5 471 c 128,-1,7
 394 524 394 524 313 524 c 0,8,9
 253 524 253 524 204.5 497 c 128,-1,10
 156 470 156 470 123 423 c 0,11,12
 53 322 53 322 53 188 c 0,13,14
 53 94 53 94 101.5 41 c 128,-1,15
 150 -12 150 -12 231 -12 c 0,0,1
238 37 m 0,16,17
 173 37 173 37 141 76 c 128,-1,18
 109 115 109 115 109 174 c 0,19,20
 109 204 109 204 114 230 c 2,21,-1
 126 291 l 2,22,23
 144 379 144 379 191.5 427 c 128,-1,24
 239 475 239 475 306 475 c 0,25,26
 372 475 372 475 403.5 436 c 128,-1,27
 435 397 435 397 435 338 c 0,28,29
 435 308 435 308 430 282 c 2,30,-1
 418 221 l 2,31,32
 400 133 400 133 352.5 85 c 128,-1,33
 305 37 305 37 238 37 c 0,16,17
449 594 m 1,34,-1
 481 617 l 1,35,-1
 389 756 l 1,36,-1
 323 756 l 1,37,-1
 180 618 l 1,38,-1
 209 594 l 1,39,-1
 351 714 l 1,40,-1
 449 594 l 1,34,-1
EndSplineSet
EndChar

StartChar: otilde
Encoding: 245 245 180
Width: 544
Flags: W
LayerCount: 2
Fore
SplineSet
231 -12 m 0,0,1
 291 -12 291 -12 339.5 15.5 c 128,-1,2
 388 43 388 43 422 90 c 0,3,4
 491 191 491 191 491 324 c 0,5,6
 491 418 491 418 442.5 471 c 128,-1,7
 394 524 394 524 313 524 c 0,8,9
 253 524 253 524 204.5 497 c 128,-1,10
 156 470 156 470 123 423 c 0,11,12
 53 322 53 322 53 188 c 0,13,14
 53 94 53 94 101.5 41 c 128,-1,15
 150 -12 150 -12 231 -12 c 0,0,1
238 37 m 0,16,17
 173 37 173 37 141 76 c 128,-1,18
 109 115 109 115 109 174 c 0,19,20
 109 204 109 204 114 230 c 2,21,-1
 126 291 l 2,22,23
 144 379 144 379 191.5 427 c 128,-1,24
 239 475 239 475 306 475 c 0,25,26
 372 475 372 475 403.5 436 c 128,-1,27
 435 397 435 397 435 338 c 0,28,29
 435 308 435 308 430 282 c 2,30,-1
 418 221 l 2,31,32
 400 133 400 133 352.5 85 c 128,-1,33
 305 37 305 37 238 37 c 0,16,17
406 618 m 0,34,35
 457 618 457 618 499 666 c 1,36,-1
 478 694 l 1,37,38
 449 665 449 665 414 665 c 0,39,40
 386 665 386 665 350 689 c 0,41,42
 333 701 333 701 316 709 c 128,-1,43
 299 717 299 717 276 717 c 0,44,45
 225 717 225 717 183 669 c 1,46,-1
 204 641 l 1,47,48
 234 670 234 670 268 670 c 0,49,50
 297 670 297 670 332 646 c 0,51,52
 349 634 349 634 366 626 c 128,-1,53
 383 618 383 618 406 618 c 0,34,35
EndSplineSet
EndChar

StartChar: odieresis
Encoding: 246 246 181
Width: 544
Flags: W
LayerCount: 2
Fore
SplineSet
231 -12 m 0,0,1
 291 -12 291 -12 339.5 15.5 c 128,-1,2
 388 43 388 43 422 90 c 0,3,4
 491 191 491 191 491 324 c 0,5,6
 491 418 491 418 442.5 471 c 128,-1,7
 394 524 394 524 313 524 c 0,8,9
 253 524 253 524 204.5 497 c 128,-1,10
 156 470 156 470 123 423 c 0,11,12
 53 322 53 322 53 188 c 0,13,14
 53 94 53 94 101.5 41 c 128,-1,15
 150 -12 150 -12 231 -12 c 0,0,1
238 37 m 0,16,17
 173 37 173 37 141 76 c 128,-1,18
 109 115 109 115 109 174 c 0,19,20
 109 204 109 204 114 230 c 2,21,-1
 126 291 l 2,22,23
 144 379 144 379 191.5 427 c 128,-1,24
 239 475 239 475 306 475 c 0,25,26
 372 475 372 475 403.5 436 c 128,-1,27
 435 397 435 397 435 338 c 0,28,29
 435 308 435 308 430 282 c 2,30,-1
 418 221 l 2,31,32
 400 133 400 133 352.5 85 c 128,-1,33
 305 37 305 37 238 37 c 0,16,17
245 626 m 0,34,35
 283 626 283 626 288 658 c 2,36,-1
 291 673 l 1,37,-1
 291 680 l 2,38,39
 291 708 291 708 257 708 c 0,40,41
 220 708 220 708 214 676 c 2,42,-1
 211 654 l 2,43,44
 211 626 211 626 245 626 c 0,34,35
427 626 m 0,45,46
 465 626 465 626 470 658 c 2,47,-1
 473 673 l 1,48,-1
 473 680 l 2,49,50
 473 708 473 708 439 708 c 0,51,52
 402 708 402 708 396 676 c 2,53,-1
 393 654 l 2,54,55
 393 626 393 626 427 626 c 0,45,46
EndSplineSet
EndChar

StartChar: divide
Encoding: 247 247 182
Width: 600
Flags: W
LayerCount: 2
Fore
SplineSet
535 281 m 1,0,-1
 545 329 l 1,1,-1
 85 329 l 1,2,-1
 75 281 l 1,3,-1
 535 281 l 1,0,-1
265 65 m 0,4,5
 321 65 321 65 321 130 c 0,6,7
 321 161 321 161 280 161 c 0,8,9
 224 161 224 161 224 96 c 0,10,11
 224 65 224 65 265 65 c 0,4,5
341 451 m 0,12,13
 397 451 397 451 397 516 c 0,14,15
 397 547 397 547 356 547 c 0,16,17
 300 547 300 547 300 482 c 0,18,19
 300 451 300 451 341 451 c 0,12,13
EndSplineSet
EndChar

StartChar: oslash
Encoding: 248 248 183
Width: 544
Flags: W
LayerCount: 2
Fore
SplineSet
30 -35 m 1,0,-1
 101 42 l 1,1,2
 149 -12 149 -12 231 -12 c 0,3,4
 291 -12 291 -12 339.5 15.5 c 128,-1,5
 388 43 388 43 422 90 c 0,6,7
 491 191 491 191 491 324 c 0,8,9
 491 389 491 389 466 437 c 1,10,-1
 543 520 l 1,11,-1
 514 547 l 1,12,-1
 443 470 l 1,13,14
 396 524 396 524 313 524 c 0,15,16
 253 524 253 524 204.5 497 c 128,-1,17
 156 470 156 470 123 423 c 0,18,19
 53 322 53 322 53 188 c 0,20,21
 53 122 53 122 78 75 c 1,22,-1
 1 -8 l 1,23,-1
 30 -35 l 1,0,-1
238 37 m 256,24,25
 171 37 171 37 137 81 c 1,26,-1
 426 394 l 1,27,28
 435 368 435 368 435 338 c 256,29,30
 435 308 435 308 430 282 c 2,31,-1
 418 221 l 2,32,33
 400 133 400 133 352.5 85 c 128,-1,34
 305 37 305 37 238 37 c 256,24,25
117 118 m 1,35,36
 109 146 109 146 109 174 c 0,37,38
 109 204 109 204 114 230 c 2,39,-1
 126 291 l 2,40,41
 144 379 144 379 191.5 427 c 128,-1,42
 239 475 239 475 306 475 c 0,43,44
 370 475 370 475 407 431 c 1,45,-1
 117 118 l 1,35,36
EndSplineSet
EndChar

StartChar: ugrave
Encoding: 249 249 184
Width: 557
Flags: W
LayerCount: 2
Fore
SplineSet
199 -12 m 0,0,1
 256 -12 256 -12 296 16.5 c 128,-1,2
 336 45 336 45 363 103 c 1,3,-1
 367 103 l 1,4,5
 358 54 358 54 358 46 c 0,6,7
 358 25 358 25 370 12.5 c 128,-1,8
 382 0 382 0 407 0 c 2,9,-1
 480 0 l 1,10,-1
 489 49 l 1,11,-1
 412 49 l 1,12,-1
 504 512 l 1,13,-1
 449 512 l 1,14,-1
 390 215 l 2,15,16
 372 142 372 142 324 87 c 0,17,18
 279 38 279 38 215 38 c 0,19,20
 167 38 167 38 145.5 63 c 128,-1,21
 124 88 124 88 124 136 c 0,22,23
 124 167 124 167 129 193 c 2,24,-1
 193 512 l 1,25,-1
 138 512 l 1,26,-1
 74 193 l 2,27,28
 67 156 67 156 67 127 c 0,29,30
 67 61 67 61 100 24.5 c 128,-1,31
 133 -12 133 -12 199 -12 c 0,0,1
333 586 m 1,32,-1
 366 602 l 1,33,-1
 298 766 l 1,34,-1
 249 742 l 1,35,-1
 333 586 l 1,32,-1
EndSplineSet
EndChar

StartChar: uacute
Encoding: 250 250 185
Width: 557
Flags: W
LayerCount: 2
Fore
SplineSet
199 -12 m 0,0,1
 256 -12 256 -12 296 16.5 c 128,-1,2
 336 45 336 45 363 103 c 1,3,-1
 367 103 l 1,4,5
 358 54 358 54 358 46 c 0,6,7
 358 25 358 25 370 12.5 c 128,-1,8
 382 0 382 0 407 0 c 2,9,-1
 480 0 l 1,10,-1
 489 49 l 1,11,-1
 412 49 l 1,12,-1
 504 512 l 1,13,-1
 449 512 l 1,14,-1
 390 215 l 2,15,16
 372 142 372 142 324 87 c 0,17,18
 279 38 279 38 215 38 c 0,19,20
 167 38 167 38 145.5 63 c 128,-1,21
 124 88 124 88 124 136 c 0,22,23
 124 167 124 167 129 193 c 2,24,-1
 193 512 l 1,25,-1
 138 512 l 1,26,-1
 74 193 l 2,27,28
 67 156 67 156 67 127 c 0,29,30
 67 61 67 61 100 24.5 c 128,-1,31
 133 -12 133 -12 199 -12 c 0,0,1
336 586 m 1,32,-1
 469 742 l 1,33,-1
 421 769 l 1,34,-1
 301 605 l 1,35,-1
 336 586 l 1,32,-1
EndSplineSet
EndChar

StartChar: ucircumflex
Encoding: 251 251 186
Width: 557
Flags: W
LayerCount: 2
Fore
SplineSet
199 -12 m 0,0,1
 256 -12 256 -12 296 16.5 c 128,-1,2
 336 45 336 45 363 103 c 1,3,-1
 367 103 l 1,4,5
 358 54 358 54 358 46 c 0,6,7
 358 25 358 25 370 12.5 c 128,-1,8
 382 0 382 0 407 0 c 2,9,-1
 480 0 l 1,10,-1
 489 49 l 1,11,-1
 412 49 l 1,12,-1
 504 512 l 1,13,-1
 449 512 l 1,14,-1
 390 215 l 2,15,16
 372 142 372 142 324 87 c 0,17,18
 279 38 279 38 215 38 c 0,19,20
 167 38 167 38 145.5 63 c 128,-1,21
 124 88 124 88 124 136 c 0,22,23
 124 167 124 167 129 193 c 2,24,-1
 193 512 l 1,25,-1
 138 512 l 1,26,-1
 74 193 l 2,27,28
 67 156 67 156 67 127 c 0,29,30
 67 61 67 61 100 24.5 c 128,-1,31
 133 -12 133 -12 199 -12 c 0,0,1
457 594 m 1,32,-1
 489 617 l 1,33,-1
 397 756 l 1,34,-1
 331 756 l 1,35,-1
 188 618 l 1,36,-1
 217 594 l 1,37,-1
 359 714 l 1,38,-1
 457 594 l 1,32,-1
EndSplineSet
EndChar

StartChar: udieresis
Encoding: 252 252 187
Width: 557
Flags: W
LayerCount: 2
Fore
SplineSet
199 -12 m 0,0,1
 256 -12 256 -12 296 16.5 c 128,-1,2
 336 45 336 45 363 103 c 1,3,-1
 367 103 l 1,4,5
 358 54 358 54 358 46 c 0,6,7
 358 25 358 25 370 12.5 c 128,-1,8
 382 0 382 0 407 0 c 2,9,-1
 480 0 l 1,10,-1
 489 49 l 1,11,-1
 412 49 l 1,12,-1
 504 512 l 1,13,-1
 449 512 l 1,14,-1
 390 215 l 2,15,16
 372 142 372 142 324 87 c 0,17,18
 279 38 279 38 215 38 c 0,19,20
 167 38 167 38 145.5 63 c 128,-1,21
 124 88 124 88 124 136 c 0,22,23
 124 167 124 167 129 193 c 2,24,-1
 193 512 l 1,25,-1
 138 512 l 1,26,-1
 74 193 l 2,27,28
 67 156 67 156 67 127 c 0,29,30
 67 61 67 61 100 24.5 c 128,-1,31
 133 -12 133 -12 199 -12 c 0,0,1
253 626 m 0,32,33
 291 626 291 626 296 658 c 2,34,-1
 299 673 l 1,35,-1
 299 680 l 2,36,37
 299 708 299 708 265 708 c 0,38,39
 228 708 228 708 222 676 c 2,40,-1
 219 654 l 2,41,42
 219 626 219 626 253 626 c 0,32,33
435 626 m 0,43,44
 473 626 473 626 478 658 c 2,45,-1
 481 673 l 1,46,-1
 481 680 l 2,47,48
 481 708 481 708 447 708 c 0,49,50
 410 708 410 708 404 676 c 2,51,-1
 401 654 l 2,52,53
 401 626 401 626 435 626 c 0,43,44
EndSplineSet
EndChar

StartChar: yacute
Encoding: 253 253 188
Width: 475
Flags: W
LayerCount: 2
Fore
SplineSet
56 -200 m 2,0,1
 86 -200 86 -200 104 -186.5 c 128,-1,2
 122 -173 122 -173 139 -140 c 2,3,-1
 503 512 l 1,4,-1
 444 512 l 1,5,-1
 199 61 l 1,6,-1
 195 61 l 1,7,-1
 124 512 l 1,8,-1
 70 512 l 1,9,-1
 155 -11 l 1,10,-1
 77 -152 l 1,11,-1
 -12 -152 l 1,12,-1
 -22 -200 l 1,13,-1
 56 -200 l 2,0,1
300 586 m 1,14,-1
 433 742 l 1,15,-1
 385 769 l 1,16,-1
 265 605 l 1,17,-1
 300 586 l 1,14,-1
EndSplineSet
EndChar

StartChar: thorn
Encoding: 254 254 189
Width: 567
Flags: W
LayerCount: 2
Fore
SplineSet
58 -200 m 1,0,-1
 115 87 l 1,1,-1
 118 87 l 1,2,3
 131 39 131 39 169.5 13.5 c 128,-1,4
 208 -12 208 -12 262 -12 c 0,5,6
 324 -12 324 -12 371 18 c 128,-1,7
 418 48 418 48 449.5 97.5 c 128,-1,8
 481 147 481 147 496.5 208 c 128,-1,9
 512 269 512 269 512 331 c 0,10,11
 512 417 512 417 470 471 c 0,12,13
 427 524 427 524 353 524 c 0,14,15
 293 524 293 524 252.5 493 c 128,-1,16
 212 462 212 462 181 400 c 1,17,-1
 178 400 l 1,18,-1
 246 740 l 1,19,-1
 191 740 l 1,20,-1
 3 -200 l 1,21,-1
 58 -200 l 1,0,-1
257 38 m 0,22,23
 184 38 184 38 151 80 c 0,24,25
 129 109 129 109 129 144 c 0,26,27
 129 157 129 157 132 171 c 2,28,-1
 156 290 l 2,29,30
 175 380 175 380 232 427 c 1,31,32
 276 474 276 474 340 474 c 0,33,34
 400 474 400 474 428 435 c 128,-1,35
 456 396 456 396 456 337 c 0,36,37
 456 303 456 303 451 278 c 2,38,-1
 439 218 l 2,39,40
 422 133 422 133 375.5 85.5 c 128,-1,41
 329 38 329 38 257 38 c 0,22,23
EndSplineSet
EndChar

StartChar: ydieresis
Encoding: 255 255 190
Width: 475
Flags: W
LayerCount: 2
Fore
SplineSet
56 -200 m 2,0,1
 86 -200 86 -200 104 -186.5 c 128,-1,2
 122 -173 122 -173 139 -140 c 2,3,-1
 503 512 l 1,4,-1
 444 512 l 1,5,-1
 199 61 l 1,6,-1
 195 61 l 1,7,-1
 124 512 l 1,8,-1
 70 512 l 1,9,-1
 155 -11 l 1,10,-1
 77 -152 l 1,11,-1
 -12 -152 l 1,12,-1
 -22 -200 l 1,13,-1
 56 -200 l 2,0,1
217 626 m 0,14,15
 255 626 255 626 260 658 c 2,16,-1
 263 673 l 1,17,-1
 263 680 l 2,18,19
 263 708 263 708 229 708 c 0,20,21
 192 708 192 708 186 676 c 2,22,-1
 183 654 l 2,23,24
 183 626 183 626 217 626 c 0,14,15
399 626 m 0,25,26
 437 626 437 626 442 658 c 2,27,-1
 445 673 l 1,28,-1
 445 680 l 2,29,30
 445 708 445 708 411 708 c 0,31,32
 374 708 374 708 368 676 c 2,33,-1
 365 654 l 2,34,35
 365 626 365 626 399 626 c 0,25,26
EndSplineSet
EndChar

StartChar: Amacron
Encoding: 256 256 191
Width: 612
Flags: W
LayerCount: 2
Fore
SplineSet
536 0 m 1,0,-1
 426 698 l 1,1,-1
 349 698 l 1,2,-1
 -21 0 l 1,3,-1
 41 0 l 1,4,-1
 154 217 l 1,5,-1
 443 217 l 1,6,-1
 477 0 l 1,7,-1
 536 0 l 1,0,-1
437 268 m 1,8,-1
 181 268 l 1,9,-1
 375 641 l 1,10,-1
 379 641 l 1,11,-1
 437 268 l 1,8,-1
542 820 m 1,12,-1
 551 868 l 1,13,-1
 285 868 l 1,14,-1
 275 820 l 1,15,-1
 542 820 l 1,12,-1
EndSplineSet
EndChar

StartChar: amacron
Encoding: 257 257 192
Width: 577
Flags: W
LayerCount: 2
Fore
SplineSet
214 -12 m 0,0,1
 274 -12 274 -12 314.5 19 c 128,-1,2
 355 50 355 50 386 112 c 1,3,-1
 389 112 l 1,4,5
 378 54 378 54 378 45 c 0,6,7
 378 0 378 0 428 0 c 2,8,-1
 500 0 l 1,9,-1
 510 49 l 1,10,-1
 432 49 l 1,11,-1
 524 512 l 1,12,-1
 469 512 l 1,13,-1
 452 425 l 1,14,-1
 449 425 l 1,15,16
 436 473 436 473 397.5 498.5 c 128,-1,17
 359 524 359 524 305 524 c 0,18,19
 243 524 243 524 196 494 c 128,-1,20
 149 464 149 464 118 415 c 128,-1,21
 87 366 87 366 71 304.5 c 128,-1,22
 55 243 55 243 55 181 c 0,23,24
 55 93 55 93 98 40.5 c 128,-1,25
 141 -12 141 -12 214 -12 c 0,0,1
227 38 m 0,26,27
 167 38 167 38 139 77.5 c 128,-1,28
 111 117 111 117 111 175 c 0,29,30
 111 210 111 210 116 234 c 2,31,-1
 128 294 l 2,32,33
 145 379 145 379 191.5 426.5 c 128,-1,34
 238 474 238 474 310 474 c 0,35,36
 383 474 383 474 416 432 c 0,37,38
 438 403 438 403 438 368 c 0,39,40
 438 355 438 355 435 341 c 2,41,-1
 411 222 l 2,42,43
 392 133 392 133 335 85 c 1,44,45
 292 38 292 38 227 38 c 0,26,27
485 646 m 1,46,-1
 495 694 l 1,47,-1
 228 694 l 1,48,-1
 218 646 l 1,49,-1
 485 646 l 1,46,-1
EndSplineSet
EndChar

StartChar: Abreve
Encoding: 258 258 193
Width: 612
Flags: W
LayerCount: 2
Fore
SplineSet
536 0 m 1,0,-1
 426 698 l 1,1,-1
 349 698 l 1,2,-1
 -21 0 l 1,3,-1
 41 0 l 1,4,-1
 154 217 l 1,5,-1
 443 217 l 1,6,-1
 477 0 l 1,7,-1
 536 0 l 1,0,-1
437 268 m 1,8,-1
 181 268 l 1,9,-1
 375 641 l 1,10,-1
 379 641 l 1,11,-1
 437 268 l 1,8,-1
404 774 m 0,12,13
 437 774 437 774 461 785 c 0,14,15
 520 813 520 813 564 901 c 1,16,-1
 528 916 l 1,17,-1
 508 889 l 2,18,19
 480 850 480 850 457.5 834 c 128,-1,20
 435 818 435 818 405 818 c 0,21,22
 376 818 376 818 358 835.5 c 128,-1,23
 340 853 340 853 326 888 c 2,24,-1
 314 916 l 1,25,-1
 279 901 l 1,26,27
 289 852 289 852 315 814 c 0,28,29
 346 774 346 774 404 774 c 0,12,13
EndSplineSet
EndChar

StartChar: abreve
Encoding: 259 259 194
Width: 577
Flags: W
LayerCount: 2
Fore
SplineSet
214 -12 m 0,0,1
 274 -12 274 -12 314.5 19 c 128,-1,2
 355 50 355 50 386 112 c 1,3,-1
 389 112 l 1,4,5
 378 54 378 54 378 45 c 0,6,7
 378 0 378 0 428 0 c 2,8,-1
 500 0 l 1,9,-1
 510 49 l 1,10,-1
 432 49 l 1,11,-1
 524 512 l 1,12,-1
 469 512 l 1,13,-1
 452 425 l 1,14,-1
 449 425 l 1,15,16
 436 473 436 473 397.5 498.5 c 128,-1,17
 359 524 359 524 305 524 c 0,18,19
 243 524 243 524 196 494 c 128,-1,20
 149 464 149 464 118 415 c 128,-1,21
 87 366 87 366 71 304.5 c 128,-1,22
 55 243 55 243 55 181 c 0,23,24
 55 93 55 93 98 40.5 c 128,-1,25
 141 -12 141 -12 214 -12 c 0,0,1
227 38 m 0,26,27
 167 38 167 38 139 77.5 c 128,-1,28
 111 117 111 117 111 175 c 0,29,30
 111 210 111 210 116 234 c 2,31,-1
 128 294 l 2,32,33
 145 379 145 379 191.5 426.5 c 128,-1,34
 238 474 238 474 310 474 c 0,35,36
 383 474 383 474 416 432 c 0,37,38
 438 403 438 403 438 368 c 0,39,40
 438 355 438 355 435 341 c 2,41,-1
 411 222 l 2,42,43
 392 133 392 133 335 85 c 1,44,45
 292 38 292 38 227 38 c 0,26,27
346 600 m 0,46,47
 379 600 379 600 403 611 c 0,48,49
 462 639 462 639 506 727 c 1,50,-1
 470 742 l 1,51,-1
 450 715 l 2,52,53
 422 677 422 677 399.5 661 c 128,-1,54
 377 645 377 645 347 645 c 0,55,56
 318 645 318 645 300 662 c 128,-1,57
 282 679 282 679 268 714 c 2,58,-1
 256 742 l 1,59,-1
 221 727 l 1,60,61
 231 678 231 678 257 640 c 0,62,63
 288 600 288 600 346 600 c 0,46,47
EndSplineSet
EndChar

StartChar: Aogonek
Encoding: 260 260 195
Width: 612
Flags: W
LayerCount: 2
Fore
SplineSet
443 -205 m 0,0,1
 503 -205 503 -205 532 -170 c 1,2,-1
 505 -139 l 1,3,4
 481 -165 481 -165 446 -165 c 0,5,6
 406 -165 406 -165 406 -127 c 0,7,8
 406 -103 406 -103 432.5 -75 c 128,-1,9
 459 -47 459 -47 536 0 c 1,10,-1
 426 698 l 1,11,-1
 349 698 l 1,12,-1
 -21 0 l 1,13,-1
 41 0 l 1,14,-1
 154 217 l 1,15,-1
 443 217 l 1,16,-1
 476 0 l 1,17,18
 413 -33 413 -33 385 -64.5 c 128,-1,19
 357 -96 357 -96 357 -134 c 256,20,21
 357 -172 357 -172 382.5 -188.5 c 128,-1,22
 408 -205 408 -205 443 -205 c 0,0,1
437 268 m 1,23,-1
 181 268 l 1,24,-1
 375 641 l 1,25,-1
 379 641 l 1,26,-1
 437 268 l 1,23,-1
EndSplineSet
EndChar

StartChar: aogonek
Encoding: 261 261 196
Width: 577
Flags: W
LayerCount: 2
Fore
SplineSet
407 -205 m 0,0,1
 467 -205 467 -205 496 -170 c 1,2,-1
 469 -139 l 1,3,4
 445 -165 445 -165 410 -165 c 0,5,6
 370 -165 370 -165 370 -127 c 0,7,8
 370 -103 370 -103 397 -75 c 128,-1,9
 424 -47 424 -47 500 0 c 1,10,-1
 510 49 l 1,11,-1
 432 49 l 1,12,-1
 524 512 l 1,13,-1
 469 512 l 1,14,-1
 452 425 l 1,15,-1
 449 425 l 1,16,17
 436 473 436 473 397.5 498.5 c 128,-1,18
 359 524 359 524 305 524 c 0,19,20
 243 524 243 524 196 494 c 128,-1,21
 149 464 149 464 118 415 c 128,-1,22
 87 366 87 366 71 304.5 c 128,-1,23
 55 243 55 243 55 181 c 0,24,25
 55 93 55 93 98 40.5 c 128,-1,26
 141 -12 141 -12 214 -12 c 0,27,28
 274 -12 274 -12 314.5 19 c 128,-1,29
 355 50 355 50 386 112 c 1,30,-1
 389 112 l 1,31,32
 378 53 378 53 378 45 c 0,33,34
 378 0 378 0 428 0 c 2,35,-1
 450 0 l 1,36,-1
 451 -4 l 1,37,38
 321 -62 321 -62 321 -134 c 0,39,40
 321 -172 321 -172 346.5 -188.5 c 128,-1,41
 372 -205 372 -205 407 -205 c 0,0,1
227 38 m 0,42,43
 167 38 167 38 139 77.5 c 128,-1,44
 111 117 111 117 111 175 c 0,45,46
 111 210 111 210 116 234 c 2,47,-1
 128 294 l 2,48,49
 145 379 145 379 191.5 426.5 c 128,-1,50
 238 474 238 474 310 474 c 0,51,52
 383 474 383 474 416 432 c 0,53,54
 438 403 438 403 438 368 c 0,55,56
 438 355 438 355 435 341 c 2,57,-1
 411 222 l 2,58,59
 392 133 392 133 335 85 c 1,60,61
 292 38 292 38 227 38 c 0,42,43
EndSplineSet
EndChar

StartChar: Cacute
Encoding: 262 262 197
Width: 599
Flags: W
LayerCount: 2
Fore
SplineSet
290 -12 m 0,0,1
 376 -12 376 -12 436 26.5 c 128,-1,2
 496 65 496 65 541 151 c 1,3,-1
 492 175 l 1,4,5
 457 109 457 109 411 74.5 c 128,-1,6
 365 40 365 40 293 40 c 0,7,8
 209 40 209 40 163.5 93.5 c 128,-1,9
 118 147 118 147 118 236 c 0,10,11
 118 271 118 271 126.5 318 c 128,-1,12
 135 365 135 365 144 410 c 0,13,14
 168 524 168 524 233 591 c 128,-1,15
 298 658 298 658 388 658 c 0,16,17
 459 658 459 658 497.5 626 c 128,-1,18
 536 594 536 594 552 536 c 1,19,-1
 605 558 l 1,20,21
 561 710 561 710 394 710 c 0,22,23
 313 710 313 710 250.5 670 c 128,-1,24
 188 630 188 630 145.5 563.5 c 128,-1,25
 103 497 103 497 81.5 414.5 c 128,-1,26
 60 332 60 332 60 248 c 0,27,28
 60 122 60 122 125 55 c 128,-1,29
 190 -12 190 -12 290 -12 c 0,0,1
410 760 m 1,30,-1
 543 916 l 1,31,-1
 495 943 l 1,32,-1
 376 780 l 1,33,-1
 410 760 l 1,30,-1
EndSplineSet
EndChar

StartChar: cacute
Encoding: 263 263 198
Width: 484
Flags: W
LayerCount: 2
Fore
SplineSet
231 -12 m 0,0,1
 359 -12 359 -12 431 123 c 1,2,-1
 387 144 l 1,3,4
 328 37 328 37 236 37 c 0,5,6
 171 37 171 37 139.5 79 c 128,-1,7
 108 121 108 121 108 184 c 0,8,9
 108 210 108 210 113 236 c 2,10,-1
 127 306 l 2,11,12
 142 385 142 385 187 430 c 128,-1,13
 232 475 232 475 300 475 c 0,14,15
 393 475 393 475 418 386 c 1,16,-1
 464 405 l 1,17,18
 451 459 451 459 409 491.5 c 128,-1,19
 367 524 367 524 302 524 c 0,20,21
 187 524 187 524 120.5 427.5 c 128,-1,22
 54 331 54 331 54 194 c 0,23,24
 54 103 54 103 100 45.5 c 128,-1,25
 146 -12 146 -12 231 -12 c 0,0,1
318 586 m 1,26,-1
 451 742 l 1,27,-1
 403 769 l 1,28,-1
 283 605 l 1,29,-1
 318 586 l 1,26,-1
EndSplineSet
EndChar

StartChar: Ccircumflex
Encoding: 264 264 199
Width: 599
Flags: W
LayerCount: 2
Fore
SplineSet
290 -12 m 0,0,1
 376 -12 376 -12 436 26.5 c 128,-1,2
 496 65 496 65 541 151 c 1,3,-1
 492 175 l 1,4,5
 457 109 457 109 411 74.5 c 128,-1,6
 365 40 365 40 293 40 c 0,7,8
 209 40 209 40 163.5 93.5 c 128,-1,9
 118 147 118 147 118 236 c 0,10,11
 118 271 118 271 126.5 318 c 128,-1,12
 135 365 135 365 144 410 c 0,13,14
 168 524 168 524 233 591 c 128,-1,15
 298 658 298 658 388 658 c 0,16,17
 459 658 459 658 497.5 626 c 128,-1,18
 536 594 536 594 552 536 c 1,19,-1
 605 558 l 1,20,21
 561 710 561 710 394 710 c 0,22,23
 313 710 313 710 250.5 670 c 128,-1,24
 188 630 188 630 145.5 563.5 c 128,-1,25
 103 497 103 497 81.5 414.5 c 128,-1,26
 60 332 60 332 60 248 c 0,27,28
 60 122 60 122 125 55 c 128,-1,29
 190 -12 190 -12 290 -12 c 0,0,1
291 768 m 1,30,-1
 433 888 l 1,31,-1
 531 769 l 1,32,-1
 563 791 l 1,33,-1
 471 930 l 1,34,-1
 405 930 l 1,35,-1
 261 792 l 1,36,-1
 291 768 l 1,30,-1
EndSplineSet
EndChar

StartChar: ccircumflex
Encoding: 265 265 200
Width: 484
Flags: W
LayerCount: 2
Fore
SplineSet
231 -12 m 0,0,1
 359 -12 359 -12 431 123 c 1,2,-1
 387 144 l 1,3,4
 328 37 328 37 236 37 c 0,5,6
 171 37 171 37 139.5 79 c 128,-1,7
 108 121 108 121 108 184 c 0,8,9
 108 210 108 210 113 236 c 2,10,-1
 127 306 l 2,11,12
 142 385 142 385 187 430 c 128,-1,13
 232 475 232 475 300 475 c 0,14,15
 393 475 393 475 418 386 c 1,16,-1
 464 405 l 1,17,18
 451 459 451 459 409 491.5 c 128,-1,19
 367 524 367 524 302 524 c 0,20,21
 187 524 187 524 120.5 427.5 c 128,-1,22
 54 331 54 331 54 194 c 0,23,24
 54 103 54 103 100 45.5 c 128,-1,25
 146 -12 146 -12 231 -12 c 0,0,1
439 594 m 1,26,-1
 471 617 l 1,27,-1
 379 756 l 1,28,-1
 313 756 l 1,29,-1
 170 618 l 1,30,-1
 199 594 l 1,31,-1
 341 714 l 1,32,-1
 439 594 l 1,26,-1
EndSplineSet
EndChar

StartChar: Cdotaccent
Encoding: 266 266 201
Width: 599
Flags: W
LayerCount: 2
Fore
SplineSet
290 -12 m 0,0,1
 376 -12 376 -12 436 26.5 c 128,-1,2
 496 65 496 65 541 151 c 1,3,-1
 492 175 l 1,4,5
 457 109 457 109 411 74.5 c 128,-1,6
 365 40 365 40 293 40 c 0,7,8
 209 40 209 40 163.5 93.5 c 128,-1,9
 118 147 118 147 118 236 c 0,10,11
 118 271 118 271 126.5 318 c 128,-1,12
 135 365 135 365 144 410 c 0,13,14
 168 524 168 524 233 591 c 128,-1,15
 298 658 298 658 388 658 c 0,16,17
 459 658 459 658 497.5 626 c 128,-1,18
 536 594 536 594 552 536 c 1,19,-1
 605 558 l 1,20,21
 561 710 561 710 394 710 c 0,22,23
 313 710 313 710 250.5 670 c 128,-1,24
 188 630 188 630 145.5 563.5 c 128,-1,25
 103 497 103 497 81.5 414.5 c 128,-1,26
 60 332 60 332 60 248 c 0,27,28
 60 122 60 122 125 55 c 128,-1,29
 190 -12 190 -12 290 -12 c 0,0,1
416 799 m 0,30,31
 454 799 454 799 459 831 c 2,32,-1
 462 846 l 1,33,-1
 462 853 l 2,34,35
 462 881 462 881 428 881 c 0,36,37
 391 881 391 881 385 849 c 2,38,-1
 382 827 l 2,39,40
 382 799 382 799 416 799 c 0,30,31
EndSplineSet
EndChar

StartChar: cdotaccent
Encoding: 267 267 202
Width: 484
Flags: W
LayerCount: 2
Fore
SplineSet
231 -12 m 0,0,1
 359 -12 359 -12 431 123 c 1,2,-1
 387 144 l 1,3,4
 328 37 328 37 236 37 c 0,5,6
 171 37 171 37 139.5 79 c 128,-1,7
 108 121 108 121 108 184 c 0,8,9
 108 210 108 210 113 236 c 2,10,-1
 127 306 l 2,11,12
 142 385 142 385 187 430 c 128,-1,13
 232 475 232 475 300 475 c 0,14,15
 393 475 393 475 418 386 c 1,16,-1
 464 405 l 1,17,18
 451 459 451 459 409 491.5 c 128,-1,19
 367 524 367 524 302 524 c 0,20,21
 187 524 187 524 120.5 427.5 c 128,-1,22
 54 331 54 331 54 194 c 0,23,24
 54 103 54 103 100 45.5 c 128,-1,25
 146 -12 146 -12 231 -12 c 0,0,1
327 626 m 0,26,27
 365 626 365 626 370 658 c 2,28,-1
 373 673 l 1,29,-1
 373 680 l 2,30,31
 373 708 373 708 339 708 c 0,32,33
 302 708 302 708 296 676 c 2,34,-1
 293 654 l 2,35,36
 293 626 293 626 327 626 c 0,26,27
EndSplineSet
EndChar

StartChar: Ccaron
Encoding: 268 268 203
Width: 599
Flags: W
LayerCount: 2
Fore
SplineSet
290 -12 m 0,0,1
 376 -12 376 -12 436 26.5 c 128,-1,2
 496 65 496 65 541 151 c 1,3,-1
 492 175 l 1,4,5
 457 109 457 109 411 74.5 c 128,-1,6
 365 40 365 40 293 40 c 0,7,8
 209 40 209 40 163.5 93.5 c 128,-1,9
 118 147 118 147 118 236 c 0,10,11
 118 271 118 271 126.5 318 c 128,-1,12
 135 365 135 365 144 410 c 0,13,14
 168 524 168 524 233 591 c 128,-1,15
 298 658 298 658 388 658 c 0,16,17
 459 658 459 658 497.5 626 c 128,-1,18
 536 594 536 594 552 536 c 1,19,-1
 605 558 l 1,20,21
 561 710 561 710 394 710 c 0,22,23
 313 710 313 710 250.5 670 c 128,-1,24
 188 630 188 630 145.5 563.5 c 128,-1,25
 103 497 103 497 81.5 414.5 c 128,-1,26
 60 332 60 332 60 248 c 0,27,28
 60 122 60 122 125 55 c 128,-1,29
 190 -12 190 -12 290 -12 c 0,0,1
445 774 m 1,30,-1
 588 913 l 1,31,-1
 558 937 l 1,32,-1
 415 816 l 1,33,-1
 319 937 l 1,34,-1
 287 914 l 1,35,-1
 378 774 l 1,36,-1
 445 774 l 1,30,-1
EndSplineSet
EndChar

StartChar: ccaron
Encoding: 269 269 204
Width: 484
Flags: W
LayerCount: 2
Fore
SplineSet
231 -12 m 0,0,1
 359 -12 359 -12 431 123 c 1,2,-1
 387 144 l 1,3,4
 328 37 328 37 236 37 c 0,5,6
 171 37 171 37 139.5 79 c 128,-1,7
 108 121 108 121 108 184 c 0,8,9
 108 210 108 210 113 236 c 2,10,-1
 127 306 l 2,11,12
 142 385 142 385 187 430 c 128,-1,13
 232 475 232 475 300 475 c 0,14,15
 393 475 393 475 418 386 c 1,16,-1
 464 405 l 1,17,18
 451 459 451 459 409 491.5 c 128,-1,19
 367 524 367 524 302 524 c 0,20,21
 187 524 187 524 120.5 427.5 c 128,-1,22
 54 331 54 331 54 194 c 0,23,24
 54 103 54 103 100 45.5 c 128,-1,25
 146 -12 146 -12 231 -12 c 0,0,1
354 601 m 1,26,-1
 497 739 l 1,27,-1
 467 763 l 1,28,-1
 323 643 l 1,29,-1
 228 763 l 1,30,-1
 195 740 l 1,31,-1
 287 601 l 1,32,-1
 354 601 l 1,26,-1
EndSplineSet
EndChar

StartChar: Dcaron
Encoding: 270 270 205
Width: 650
Flags: W
LayerCount: 2
Fore
SplineSet
278 0 m 2,0,1
 362 0 362 0 425.5 38 c 128,-1,2
 489 76 489 76 532 139 c 128,-1,3
 575 202 575 202 596.5 281 c 128,-1,4
 618 360 618 360 618 443 c 0,5,6
 618 568 618 568 556.5 633 c 128,-1,7
 495 698 495 698 382 698 c 2,8,-1
 184 698 l 1,9,-1
 45 0 l 1,10,-1
 278 0 l 2,0,1
279 52 m 2,11,-1
 114 52 l 1,12,-1
 232 646 l 1,13,-1
 378 646 l 2,14,15
 465 646 465 646 511.5 597.5 c 128,-1,16
 558 549 558 549 558 460 c 0,17,18
 558 426 558 426 551 380 c 2,19,-1
 533 294 l 2,20,21
 511 184 511 184 445.5 118 c 128,-1,22
 380 52 380 52 279 52 c 2,11,-1
424 774 m 1,23,-1
 567 913 l 1,24,-1
 537 937 l 1,25,-1
 394 816 l 1,26,-1
 298 937 l 1,27,-1
 266 914 l 1,28,-1
 357 774 l 1,29,-1
 424 774 l 1,23,-1
EndSplineSet
EndChar

StartChar: dcaron
Encoding: 271 271 206
Width: 577
Flags: W
LayerCount: 2
Fore
SplineSet
214 -12 m 0,0,1
 274 -12 274 -12 314.5 19 c 128,-1,2
 355 50 355 50 386 112 c 1,3,-1
 389 112 l 1,4,5
 378 54 378 54 378 45 c 0,6,7
 378 0 378 0 428 0 c 2,8,-1
 500 0 l 1,9,-1
 510 49 l 1,10,-1
 432 49 l 1,11,-1
 570 740 l 1,12,-1
 515 740 l 1,13,-1
 452 425 l 1,14,-1
 449 425 l 1,15,16
 436 473 436 473 397.5 498.5 c 128,-1,17
 359 524 359 524 305 524 c 0,18,19
 243 524 243 524 196 494 c 128,-1,20
 149 464 149 464 118 415 c 128,-1,21
 87 366 87 366 71 304.5 c 128,-1,22
 55 243 55 243 55 181 c 0,23,24
 55 93 55 93 98 40.5 c 128,-1,25
 141 -12 141 -12 214 -12 c 0,0,1
227 38 m 0,26,27
 167 38 167 38 139 77.5 c 128,-1,28
 111 117 111 117 111 175 c 0,29,30
 111 210 111 210 116 234 c 2,31,-1
 128 294 l 2,32,33
 145 379 145 379 191.5 426.5 c 128,-1,34
 238 474 238 474 310 474 c 0,35,36
 383 474 383 474 416 432 c 0,37,38
 438 403 438 403 438 368 c 0,39,40
 438 355 438 355 435 341 c 2,41,-1
 411 222 l 2,42,43
 392 133 392 133 335 85 c 1,44,45
 292 38 292 38 227 38 c 0,26,27
641 559 m 1,46,-1
 708 740 l 1,47,-1
 641 740 l 1,48,-1
 602 559 l 1,49,-1
 641 559 l 1,46,-1
EndSplineSet
EndChar

StartChar: Dcroat
Encoding: 272 272 207
Width: 653
Flags: W
LayerCount: 2
Fore
SplineSet
281 0 m 2,0,1
 365 0 365 0 428.5 38 c 128,-1,2
 492 76 492 76 535 139 c 128,-1,3
 578 202 578 202 599.5 281 c 128,-1,4
 621 360 621 360 621 443 c 0,5,6
 621 568 621 568 559.5 633 c 128,-1,7
 498 698 498 698 385 698 c 2,8,-1
 187 698 l 1,9,-1
 127 391 l 1,10,-1
 47 391 l 1,11,-1
 38 346 l 1,12,-1
 117 346 l 1,13,-1
 48 0 l 1,14,-1
 281 0 l 2,0,1
282 52 m 2,15,-1
 117 52 l 1,16,-1
 175 346 l 1,17,-1
 321 346 l 1,18,-1
 331 391 l 1,19,-1
 185 391 l 1,20,-1
 235 646 l 1,21,-1
 381 646 l 2,22,23
 468 646 468 646 514.5 597.5 c 128,-1,24
 561 549 561 549 561 460 c 0,25,26
 561 426 561 426 554 380 c 2,27,-1
 536 294 l 2,28,29
 514 185 514 185 448.5 118.5 c 128,-1,30
 383 52 383 52 282 52 c 2,15,-1
EndSplineSet
EndChar

StartChar: dcroat
Encoding: 273 273 208
Width: 578
Flags: W
LayerCount: 2
Fore
SplineSet
214 -12 m 0,0,1
 274 -12 274 -12 314.5 19 c 128,-1,2
 355 50 355 50 386 112 c 1,3,-1
 389 112 l 1,4,-1
 380 68 l 2,5,6
 378 56 378 56 378 45 c 0,7,8
 378 0 378 0 428 0 c 2,9,-1
 500 0 l 1,10,-1
 510 49 l 1,11,-1
 432 49 l 1,12,-1
 545 617 l 1,13,-1
 608 617 l 1,14,-1
 617 660 l 1,15,-1
 554 660 l 1,16,-1
 570 740 l 1,17,-1
 515 740 l 1,18,-1
 499 660 l 1,19,-1
 347 660 l 1,20,-1
 338 617 l 1,21,-1
 490 617 l 1,22,-1
 452 425 l 1,23,-1
 449 425 l 1,24,25
 436 473 436 473 397.5 498.5 c 128,-1,26
 359 524 359 524 305 524 c 0,27,28
 243 524 243 524 196 494 c 128,-1,29
 149 464 149 464 118 415 c 128,-1,30
 87 366 87 366 71 304.5 c 128,-1,31
 55 243 55 243 55 181 c 0,32,33
 55 93 55 93 98 40.5 c 128,-1,34
 141 -12 141 -12 214 -12 c 0,0,1
227 38 m 0,35,36
 167 38 167 38 139 77.5 c 128,-1,37
 111 117 111 117 111 175 c 0,38,39
 111 210 111 210 116 234 c 2,40,-1
 128 294 l 2,41,42
 145 379 145 379 191.5 426.5 c 128,-1,43
 238 474 238 474 310 474 c 0,44,45
 383 474 383 474 416 432 c 0,46,47
 438 403 438 403 438 368 c 0,48,49
 438 355 438 355 435 341 c 2,50,-1
 411 222 l 2,51,52
 392 133 392 133 335 85 c 1,53,54
 292 38 292 38 227 38 c 0,35,36
EndSplineSet
EndChar

StartChar: Emacron
Encoding: 274 274 209
Width: 560
Flags: W
LayerCount: 2
Fore
SplineSet
453 0 m 1,0,-1
 463 52 l 1,1,-1
 114 52 l 1,2,-1
 169 329 l 1,3,-1
 484 329 l 1,4,-1
 494 380 l 1,5,-1
 179 380 l 1,6,-1
 233 646 l 1,7,-1
 572 646 l 1,8,-1
 583 698 l 1,9,-1
 185 698 l 1,10,-1
 45 0 l 1,11,-1
 453 0 l 1,0,-1
535 820 m 1,12,-1
 544 868 l 1,13,-1
 278 868 l 1,14,-1
 268 820 l 1,15,-1
 535 820 l 1,12,-1
EndSplineSet
EndChar

StartChar: emacron
Encoding: 275 275 210
Width: 508
Flags: W
LayerCount: 2
Fore
SplineSet
240 -12 m 0,0,1
 367 -12 367 -12 451 106 c 1,2,-1
 413 136 l 1,3,4
 383 90 383 90 340 63.5 c 128,-1,5
 297 37 297 37 243 37 c 0,6,7
 110 37 110 37 109 183 c 0,8,9
 109 212 109 212 112 226 c 1,10,11
 317 230 317 230 399 275 c 0,12,13
 477 316 477 316 477 392 c 0,14,15
 477 457 477 457 429.5 490.5 c 128,-1,16
 382 524 382 524 314 524 c 0,17,18
 255 524 255 524 207 498 c 128,-1,19
 159 472 159 472 125 427 c 0,20,21
 53 329 53 329 53 197 c 0,22,23
 53 93 53 93 101.5 40.5 c 128,-1,24
 150 -12 150 -12 240 -12 c 0,0,1
119 270 m 1,25,-1
 124 294 l 2,26,27
 142 376 142 376 190 426 c 128,-1,28
 238 476 238 476 308 476 c 0,29,30
 359 476 359 476 389.5 456 c 128,-1,31
 420 436 420 436 420 393 c 0,32,33
 420 367 420 367 408 345.5 c 128,-1,34
 396 324 396 324 364 308 c 0,35,36
 302 276 302 276 119 270 c 1,25,-1
472 646 m 1,37,-1
 482 694 l 1,38,-1
 215 694 l 1,39,-1
 205 646 l 1,40,-1
 472 646 l 1,37,-1
EndSplineSet
EndChar

StartChar: Ebreve
Encoding: 276 276 211
Width: 560
Flags: W
LayerCount: 2
Fore
SplineSet
453 0 m 1,0,-1
 463 52 l 1,1,-1
 114 52 l 1,2,-1
 169 329 l 1,3,-1
 484 329 l 1,4,-1
 494 380 l 1,5,-1
 179 380 l 1,6,-1
 233 646 l 1,7,-1
 572 646 l 1,8,-1
 583 698 l 1,9,-1
 185 698 l 1,10,-1
 45 0 l 1,11,-1
 453 0 l 1,0,-1
397 774 m 0,12,13
 430 774 430 774 454 785 c 0,14,15
 513 813 513 813 557 901 c 1,16,-1
 521 916 l 1,17,-1
 501 889 l 2,18,19
 473 850 473 850 450.5 834 c 128,-1,20
 428 818 428 818 398 818 c 0,21,22
 369 818 369 818 351 835.5 c 128,-1,23
 333 853 333 853 319 888 c 2,24,-1
 307 916 l 1,25,-1
 272 901 l 1,26,27
 282 852 282 852 308 814 c 0,28,29
 339 774 339 774 397 774 c 0,12,13
EndSplineSet
EndChar

StartChar: ebreve
Encoding: 277 277 212
Width: 508
Flags: W
LayerCount: 2
Fore
SplineSet
240 -12 m 0,0,1
 367 -12 367 -12 451 106 c 1,2,-1
 413 136 l 1,3,4
 383 90 383 90 340 63.5 c 128,-1,5
 297 37 297 37 243 37 c 0,6,7
 110 37 110 37 109 183 c 0,8,9
 109 212 109 212 112 226 c 1,10,11
 317 230 317 230 399 275 c 0,12,13
 477 316 477 316 477 392 c 0,14,15
 477 457 477 457 429.5 490.5 c 128,-1,16
 382 524 382 524 314 524 c 0,17,18
 255 524 255 524 207 498 c 128,-1,19
 159 472 159 472 125 427 c 0,20,21
 53 329 53 329 53 197 c 0,22,23
 53 93 53 93 101.5 40.5 c 128,-1,24
 150 -12 150 -12 240 -12 c 0,0,1
119 270 m 1,25,-1
 124 294 l 2,26,27
 142 376 142 376 190 426 c 128,-1,28
 238 476 238 476 308 476 c 0,29,30
 359 476 359 476 389.5 456 c 128,-1,31
 420 436 420 436 420 393 c 0,32,33
 420 367 420 367 408 345.5 c 128,-1,34
 396 324 396 324 364 308 c 0,35,36
 302 276 302 276 119 270 c 1,25,-1
333 600 m 0,37,38
 366 600 366 600 390 611 c 0,39,40
 449 639 449 639 493 727 c 1,41,-1
 457 742 l 1,42,-1
 437 715 l 2,43,44
 409 677 409 677 386.5 661 c 128,-1,45
 364 645 364 645 334 645 c 0,46,47
 305 645 305 645 287 662 c 128,-1,48
 269 679 269 679 255 714 c 2,49,-1
 243 742 l 1,50,-1
 208 727 l 1,51,52
 218 678 218 678 244 640 c 0,53,54
 275 600 275 600 333 600 c 0,37,38
EndSplineSet
EndChar

StartChar: Edotaccent
Encoding: 278 278 213
Width: 560
Flags: W
LayerCount: 2
Fore
SplineSet
453 0 m 1,0,-1
 463 52 l 1,1,-1
 114 52 l 1,2,-1
 169 329 l 1,3,-1
 484 329 l 1,4,-1
 494 380 l 1,5,-1
 179 380 l 1,6,-1
 233 646 l 1,7,-1
 572 646 l 1,8,-1
 583 698 l 1,9,-1
 185 698 l 1,10,-1
 45 0 l 1,11,-1
 453 0 l 1,0,-1
400 799 m 0,12,13
 438 799 438 799 443 831 c 2,14,-1
 446 846 l 1,15,-1
 446 853 l 2,16,17
 446 881 446 881 412 881 c 0,18,19
 375 881 375 881 369 849 c 2,20,-1
 366 827 l 2,21,22
 366 799 366 799 400 799 c 0,12,13
EndSplineSet
EndChar

StartChar: edotaccent
Encoding: 279 279 214
Width: 508
Flags: W
LayerCount: 2
Fore
SplineSet
240 -12 m 0,0,1
 367 -12 367 -12 451 106 c 1,2,-1
 413 136 l 1,3,4
 383 90 383 90 340 63.5 c 128,-1,5
 297 37 297 37 243 37 c 0,6,7
 110 37 110 37 109 183 c 0,8,9
 109 212 109 212 112 226 c 1,10,11
 317 230 317 230 399 275 c 0,12,13
 477 316 477 316 477 392 c 0,14,15
 477 457 477 457 429.5 490.5 c 128,-1,16
 382 524 382 524 314 524 c 0,17,18
 255 524 255 524 207 498 c 128,-1,19
 159 472 159 472 125 427 c 0,20,21
 53 329 53 329 53 197 c 0,22,23
 53 93 53 93 101.5 40.5 c 128,-1,24
 150 -12 150 -12 240 -12 c 0,0,1
119 270 m 1,25,-1
 124 294 l 2,26,27
 142 376 142 376 190 426 c 128,-1,28
 238 476 238 476 308 476 c 0,29,30
 359 476 359 476 389.5 456 c 128,-1,31
 420 436 420 436 420 393 c 0,32,33
 420 367 420 367 408 345.5 c 128,-1,34
 396 324 396 324 364 308 c 0,35,36
 302 276 302 276 119 270 c 1,25,-1
339 626 m 0,37,38
 377 626 377 626 382 658 c 2,39,-1
 385 673 l 1,40,-1
 385 680 l 2,41,42
 385 708 385 708 351 708 c 0,43,44
 314 708 314 708 308 676 c 2,45,-1
 305 654 l 2,46,47
 305 626 305 626 339 626 c 0,37,38
EndSplineSet
EndChar

StartChar: Eogonek
Encoding: 280 280 215
Width: 560
Flags: W
LayerCount: 2
Fore
SplineSet
361 -205 m 0,0,1
 419 -205 419 -205 450 -170 c 1,2,-1
 422 -139 l 1,3,4
 399 -165 399 -165 364 -165 c 0,5,6
 324 -165 324 -165 324 -127 c 0,7,8
 324 -103 324 -103 350.5 -75 c 128,-1,9
 377 -47 377 -47 453 0 c 1,10,-1
 463 52 l 1,11,-1
 114 52 l 1,12,-1
 169 329 l 1,13,-1
 484 329 l 1,14,-1
 494 380 l 1,15,-1
 179 380 l 1,16,-1
 233 646 l 1,17,-1
 572 646 l 1,18,-1
 583 698 l 1,19,-1
 185 698 l 1,20,-1
 45 0 l 1,21,-1
 403 0 l 1,22,-1
 404 -4 l 1,23,24
 274 -62 274 -62 274 -134 c 0,25,26
 274 -172 274 -172 300 -188.5 c 128,-1,27
 326 -205 326 -205 361 -205 c 0,0,1
EndSplineSet
EndChar

StartChar: eogonek
Encoding: 281 281 216
Width: 509
Flags: W
LayerCount: 2
Fore
SplineSet
239 -205 m 0,0,1
 297 -205 297 -205 328 -170 c 1,2,-1
 300 -139 l 1,3,4
 277 -165 277 -165 242 -165 c 0,5,6
 202 -165 202 -165 202 -127 c 0,7,8
 202 -91 202 -91 235.5 -61.5 c 128,-1,9
 269 -32 269 -32 337 8 c 0,10,11
 368 25 368 25 397.5 47.5 c 128,-1,12
 427 70 427 70 452 106 c 1,13,-1
 414 136 l 1,14,15
 384 90 384 90 341 63.5 c 128,-1,16
 298 37 298 37 244 37 c 0,17,18
 111 37 111 37 109 183 c 0,19,20
 109 212 109 212 112 226 c 1,21,22
 318 230 318 230 400 275 c 0,23,24
 478 316 478 316 478 392 c 0,25,26
 478 457 478 457 430.5 490.5 c 128,-1,27
 383 524 383 524 315 524 c 0,28,29
 256 524 256 524 208 498 c 128,-1,30
 160 472 160 472 126 427 c 0,31,32
 54 329 54 329 54 197 c 0,33,34
 54 94 54 94 102.5 41 c 128,-1,35
 151 -12 151 -12 239 -12 c 0,36,37
 251 -12 251 -12 260 -10 c 1,38,-1
 261 -13 l 1,39,40
 152 -64 152 -64 152 -134 c 0,41,42
 152 -172 152 -172 178 -188.5 c 128,-1,43
 204 -205 204 -205 239 -205 c 0,0,1
119 270 m 1,44,-1
 124 294 l 2,45,46
 139 375 139 375 189 425.5 c 128,-1,47
 239 476 239 476 309 476 c 0,48,49
 360 476 360 476 390.5 456 c 128,-1,50
 421 436 421 436 421 393 c 0,51,52
 421 367 421 367 408.5 345.5 c 128,-1,53
 396 324 396 324 364 308 c 0,54,55
 302 276 302 276 119 270 c 1,44,-1
EndSplineSet
EndChar

StartChar: Ecaron
Encoding: 282 282 217
Width: 560
Flags: W
LayerCount: 2
Fore
SplineSet
453 0 m 1,0,-1
 463 52 l 1,1,-1
 114 52 l 1,2,-1
 169 329 l 1,3,-1
 484 329 l 1,4,-1
 494 380 l 1,5,-1
 179 380 l 1,6,-1
 233 646 l 1,7,-1
 572 646 l 1,8,-1
 583 698 l 1,9,-1
 185 698 l 1,10,-1
 45 0 l 1,11,-1
 453 0 l 1,0,-1
429 774 m 1,12,-1
 572 913 l 1,13,-1
 542 937 l 1,14,-1
 399 816 l 1,15,-1
 303 937 l 1,16,-1
 271 914 l 1,17,-1
 362 774 l 1,18,-1
 429 774 l 1,12,-1
EndSplineSet
EndChar

StartChar: ecaron
Encoding: 283 283 218
Width: 508
Flags: W
LayerCount: 2
Fore
SplineSet
240 -12 m 0,0,1
 367 -12 367 -12 451 106 c 1,2,-1
 413 136 l 1,3,4
 383 90 383 90 340 63.5 c 128,-1,5
 297 37 297 37 243 37 c 0,6,7
 110 37 110 37 109 183 c 0,8,9
 109 212 109 212 112 226 c 1,10,11
 317 230 317 230 399 275 c 0,12,13
 477 316 477 316 477 392 c 0,14,15
 477 457 477 457 429.5 490.5 c 128,-1,16
 382 524 382 524 314 524 c 0,17,18
 255 524 255 524 207 498 c 128,-1,19
 159 472 159 472 125 427 c 0,20,21
 53 329 53 329 53 197 c 0,22,23
 53 93 53 93 101.5 40.5 c 128,-1,24
 150 -12 150 -12 240 -12 c 0,0,1
119 270 m 1,25,-1
 124 294 l 2,26,27
 142 376 142 376 190 426 c 128,-1,28
 238 476 238 476 308 476 c 0,29,30
 359 476 359 476 389.5 456 c 128,-1,31
 420 436 420 436 420 393 c 0,32,33
 420 367 420 367 408 345.5 c 128,-1,34
 396 324 396 324 364 308 c 0,35,36
 302 276 302 276 119 270 c 1,25,-1
366 601 m 1,37,-1
 509 739 l 1,38,-1
 479 763 l 1,39,-1
 335 643 l 1,40,-1
 240 763 l 1,41,-1
 207 740 l 1,42,-1
 299 601 l 1,43,-1
 366 601 l 1,37,-1
EndSplineSet
EndChar

StartChar: Gcircumflex
Encoding: 284 284 219
Width: 661
Flags: W
LayerCount: 2
Fore
SplineSet
286 -12 m 0,0,1
 361 -12 361 -12 414 20 c 128,-1,2
 467 52 467 52 496 107 c 1,3,-1
 499 107 l 1,4,-1
 478 0 l 1,5,-1
 533 0 l 1,6,-1
 602 349 l 1,7,-1
 387 349 l 1,8,-1
 375 296 l 1,9,-1
 535 296 l 1,10,-1
 520 221 l 2,11,12
 500 130 500 130 439 85 c 0,13,14
 374 40 374 40 300 40 c 0,15,16
 212 40 212 40 165 93 c 128,-1,17
 118 146 118 146 118 240 c 0,18,19
 118 275 118 275 126.5 318.5 c 128,-1,20
 135 362 135 362 143 404 c 0,21,22
 168 521 168 521 234.5 589.5 c 128,-1,23
 301 658 301 658 397 658 c 0,24,25
 473 658 473 658 515 626 c 128,-1,26
 557 594 557 594 576 536 c 1,27,-1
 628 558 l 1,28,29
 608 630 608 630 551.5 670 c 128,-1,30
 495 710 495 710 404 710 c 0,31,32
 293 710 293 710 211 639 c 0,33,34
 134 571 134 571 98 466 c 0,35,36
 60 358 60 358 60 248 c 0,37,38
 60 121 60 121 123 54.5 c 128,-1,39
 186 -12 186 -12 286 -12 c 0,0,1
304 768 m 1,40,-1
 446 888 l 1,41,-1
 544 769 l 1,42,-1
 576 791 l 1,43,-1
 484 930 l 1,44,-1
 418 930 l 1,45,-1
 274 792 l 1,46,-1
 304 768 l 1,40,-1
EndSplineSet
EndChar

StartChar: gcircumflex
Encoding: 285 285 220
Width: 558
Flags: W
LayerCount: 2
Fore
SplineSet
465 594 m 1,0,-1
 367 714 l 1,1,-1
 225 594 l 1,2,-1
 196 618 l 1,3,-1
 339 756 l 1,4,-1
 405 756 l 1,5,-1
 497 617 l 1,6,-1
 465 594 l 1,0,-1
189 -212 m 0,7,8
 68 -212 68 -212 12 -132 c 1,9,-1
 52 -97 l 1,10,11
 95 -163 95 -163 189 -163 c 0,12,13
 336 -163 336 -163 367 -4 c 2,14,-1
 389 112 l 1,15,-1
 386 112 l 1,16,17
 355 50 355 50 314 19 c 128,-1,18
 273 -12 273 -12 214 -12 c 0,19,20
 141 -12 141 -12 98 41 c 128,-1,21
 55 94 55 94 55 181 c 0,22,23
 55 264 55 264 83 342.5 c 128,-1,24
 111 421 111 421 166.5 472.5 c 128,-1,25
 222 524 222 524 305 524 c 0,26,27
 358 524 358 524 397 498.5 c 128,-1,28
 436 473 436 473 449 425 c 1,29,-1
 452 425 l 1,30,-1
 470 512 l 1,31,-1
 525 512 l 1,32,-1
 420 -12 l 2,33,34
 380 -212 380 -212 189 -212 c 0,7,8
227 38 m 0,35,36
 286 38 286 38 335 85 c 1,37,38
 392 133 392 133 411 222 c 2,39,-1
 435 341 l 2,40,41
 438 354 438 354 438 366 c 0,42,43
 438 386 438 386 429 410.5 c 128,-1,44
 420 435 420 435 390.5 454.5 c 128,-1,45
 361 474 361 474 310 474 c 0,46,47
 238 474 238 474 191.5 426.5 c 128,-1,48
 145 379 145 379 128 294 c 2,49,-1
 116 234 l 2,50,51
 111 208 111 208 111 175 c 0,52,53
 111 117 111 117 138.5 77.5 c 128,-1,54
 166 38 166 38 227 38 c 0,35,36
EndSplineSet
EndChar

StartChar: Gbreve
Encoding: 286 286 221
Width: 661
Flags: W
LayerCount: 2
Fore
SplineSet
286 -12 m 0,0,1
 361 -12 361 -12 414 20 c 128,-1,2
 467 52 467 52 496 107 c 1,3,-1
 499 107 l 1,4,-1
 478 0 l 1,5,-1
 533 0 l 1,6,-1
 602 349 l 1,7,-1
 387 349 l 1,8,-1
 375 296 l 1,9,-1
 535 296 l 1,10,-1
 520 221 l 2,11,12
 500 130 500 130 439 85 c 0,13,14
 374 40 374 40 300 40 c 0,15,16
 212 40 212 40 165 93 c 128,-1,17
 118 146 118 146 118 240 c 0,18,19
 118 275 118 275 126.5 318.5 c 128,-1,20
 135 362 135 362 143 404 c 0,21,22
 168 521 168 521 234.5 589.5 c 128,-1,23
 301 658 301 658 397 658 c 0,24,25
 473 658 473 658 515 626 c 128,-1,26
 557 594 557 594 576 536 c 1,27,-1
 628 558 l 1,28,29
 608 630 608 630 551.5 670 c 128,-1,30
 495 710 495 710 404 710 c 0,31,32
 293 710 293 710 211 639 c 0,33,34
 134 571 134 571 98 466 c 0,35,36
 60 358 60 358 60 248 c 0,37,38
 60 121 60 121 123 54.5 c 128,-1,39
 186 -12 186 -12 286 -12 c 0,0,1
426 774 m 0,40,41
 459 774 459 774 483 785 c 0,42,43
 542 813 542 813 586 901 c 1,44,-1
 550 916 l 1,45,-1
 530 889 l 2,46,47
 502 850 502 850 479.5 834 c 128,-1,48
 457 818 457 818 427 818 c 0,49,50
 398 818 398 818 380 835.5 c 128,-1,51
 362 853 362 853 348 888 c 2,52,-1
 336 916 l 1,53,-1
 301 901 l 1,54,55
 311 852 311 852 337 814 c 0,56,57
 368 774 368 774 426 774 c 0,40,41
EndSplineSet
EndChar

StartChar: gbreve
Encoding: 287 287 222
Width: 558
Flags: W
LayerCount: 2
Fore
SplineSet
347 600 m 0,0,1
 305 600 305 600 280 619 c 128,-1,2
 255 638 255 638 242 666.5 c 128,-1,3
 229 695 229 695 222 727 c 1,4,-1
 257 742 l 1,5,-1
 269 714 l 2,6,7
 283 679 283 679 301 662 c 128,-1,8
 319 645 319 645 348 645 c 0,9,10
 378 645 378 645 400.5 661 c 128,-1,11
 423 677 423 677 451 715 c 2,12,-1
 471 742 l 1,13,-1
 507 727 l 1,14,15
 490 696 490 696 469.5 667 c 128,-1,16
 449 638 449 638 420 619 c 128,-1,17
 391 600 391 600 347 600 c 0,0,1
189 -212 m 0,18,19
 68 -212 68 -212 12 -132 c 1,20,-1
 52 -97 l 1,21,22
 95 -163 95 -163 189 -163 c 0,23,24
 336 -163 336 -163 367 -4 c 2,25,-1
 389 112 l 1,26,-1
 386 112 l 1,27,28
 355 50 355 50 314 19 c 128,-1,29
 273 -12 273 -12 214 -12 c 0,30,31
 141 -12 141 -12 98 41 c 128,-1,32
 55 94 55 94 55 181 c 0,33,34
 55 264 55 264 83 342.5 c 128,-1,35
 111 421 111 421 166.5 472.5 c 128,-1,36
 222 524 222 524 305 524 c 0,37,38
 358 524 358 524 397 498.5 c 128,-1,39
 436 473 436 473 449 425 c 1,40,-1
 452 425 l 1,41,-1
 470 512 l 1,42,-1
 525 512 l 1,43,-1
 420 -12 l 2,44,45
 380 -212 380 -212 189 -212 c 0,18,19
227 38 m 0,46,47
 286 38 286 38 335 85 c 1,48,49
 392 133 392 133 411 222 c 2,50,-1
 435 341 l 2,51,52
 438 354 438 354 438 366 c 0,53,54
 438 386 438 386 429 410.5 c 128,-1,55
 420 435 420 435 390.5 454.5 c 128,-1,56
 361 474 361 474 310 474 c 0,57,58
 238 474 238 474 191.5 426.5 c 128,-1,59
 145 379 145 379 128 294 c 2,60,-1
 116 234 l 2,61,62
 111 208 111 208 111 175 c 0,63,64
 111 117 111 117 138.5 77.5 c 128,-1,65
 166 38 166 38 227 38 c 0,46,47
EndSplineSet
EndChar

StartChar: Gdotaccent
Encoding: 288 288 223
Width: 661
Flags: W
LayerCount: 2
Fore
SplineSet
286 -12 m 0,0,1
 361 -12 361 -12 414 20 c 128,-1,2
 467 52 467 52 496 107 c 1,3,-1
 499 107 l 1,4,-1
 478 0 l 1,5,-1
 533 0 l 1,6,-1
 602 349 l 1,7,-1
 387 349 l 1,8,-1
 375 296 l 1,9,-1
 535 296 l 1,10,-1
 520 221 l 2,11,12
 500 130 500 130 439 85 c 0,13,14
 374 40 374 40 300 40 c 0,15,16
 212 40 212 40 165 93 c 128,-1,17
 118 146 118 146 118 240 c 0,18,19
 118 275 118 275 126.5 318.5 c 128,-1,20
 135 362 135 362 143 404 c 0,21,22
 168 521 168 521 234.5 589.5 c 128,-1,23
 301 658 301 658 397 658 c 0,24,25
 473 658 473 658 515 626 c 128,-1,26
 557 594 557 594 576 536 c 1,27,-1
 628 558 l 1,28,29
 608 630 608 630 551.5 670 c 128,-1,30
 495 710 495 710 404 710 c 0,31,32
 293 710 293 710 211 639 c 0,33,34
 134 571 134 571 98 466 c 0,35,36
 60 358 60 358 60 248 c 0,37,38
 60 121 60 121 123 54.5 c 128,-1,39
 186 -12 186 -12 286 -12 c 0,0,1
429 799 m 0,40,41
 467 799 467 799 472 831 c 2,42,-1
 475 846 l 1,43,-1
 475 853 l 2,44,45
 475 881 475 881 441 881 c 0,46,47
 404 881 404 881 398 849 c 2,48,-1
 395 827 l 2,49,50
 395 799 395 799 429 799 c 0,40,41
EndSplineSet
EndChar

StartChar: gdotaccent
Encoding: 289 289 224
Width: 558
Flags: W
LayerCount: 2
Fore
SplineSet
353 626 m 0,0,1
 319 626 319 626 319 654 c 0,2,3
 319 662 319 662 322 676 c 0,4,5
 326 708 326 708 365 708 c 0,6,7
 399 708 399 708 399 680 c 0,8,9
 399 672 399 672 396 658 c 0,10,11
 392 626 392 626 353 626 c 0,0,1
189 -212 m 0,12,13
 68 -212 68 -212 12 -132 c 1,14,-1
 52 -97 l 1,15,16
 95 -163 95 -163 189 -163 c 0,17,18
 336 -163 336 -163 367 -4 c 2,19,-1
 389 112 l 1,20,-1
 386 112 l 1,21,22
 355 50 355 50 314 19 c 128,-1,23
 273 -12 273 -12 214 -12 c 0,24,25
 141 -12 141 -12 98 41 c 128,-1,26
 55 94 55 94 55 181 c 0,27,28
 55 264 55 264 83 342.5 c 128,-1,29
 111 421 111 421 166.5 472.5 c 128,-1,30
 222 524 222 524 305 524 c 0,31,32
 358 524 358 524 397 498.5 c 128,-1,33
 436 473 436 473 449 425 c 1,34,-1
 452 425 l 1,35,-1
 470 512 l 1,36,-1
 525 512 l 1,37,-1
 420 -12 l 2,38,39
 380 -212 380 -212 189 -212 c 0,12,13
227 38 m 0,40,41
 286 38 286 38 335 85 c 1,42,43
 392 133 392 133 411 222 c 2,44,-1
 435 341 l 2,45,46
 438 354 438 354 438 366 c 0,47,48
 438 386 438 386 429 410.5 c 128,-1,49
 420 435 420 435 390.5 454.5 c 128,-1,50
 361 474 361 474 310 474 c 0,51,52
 238 474 238 474 191.5 426.5 c 128,-1,53
 145 379 145 379 128 294 c 2,54,-1
 116 234 l 2,55,56
 111 208 111 208 111 175 c 0,57,58
 111 117 111 117 138.5 77.5 c 128,-1,59
 166 38 166 38 227 38 c 0,40,41
EndSplineSet
EndChar

StartChar: u0122
Encoding: 290 290 225
Width: 661
Flags: W
LayerCount: 2
Fore
SplineSet
286 -12 m 0,0,1
 361 -12 361 -12 414 20 c 128,-1,2
 467 52 467 52 496 107 c 1,3,-1
 499 107 l 1,4,-1
 478 0 l 1,5,-1
 533 0 l 1,6,-1
 602 349 l 1,7,-1
 387 349 l 1,8,-1
 375 296 l 1,9,-1
 535 296 l 1,10,-1
 520 221 l 2,11,12
 500 130 500 130 439 85 c 0,13,14
 374 40 374 40 300 40 c 0,15,16
 212 40 212 40 165 93 c 128,-1,17
 118 146 118 146 118 240 c 0,18,19
 118 275 118 275 126.5 318.5 c 128,-1,20
 135 362 135 362 143 404 c 0,21,22
 168 521 168 521 234.5 589.5 c 128,-1,23
 301 658 301 658 397 658 c 0,24,25
 473 658 473 658 515 626 c 128,-1,26
 557 594 557 594 576 536 c 1,27,-1
 628 558 l 1,28,29
 608 630 608 630 551.5 670 c 128,-1,30
 495 710 495 710 404 710 c 0,31,32
 293 710 293 710 211 639 c 0,33,34
 134 571 134 571 98 466 c 0,35,36
 60 358 60 358 60 248 c 0,37,38
 60 121 60 121 123 54.5 c 128,-1,39
 186 -12 186 -12 286 -12 c 0,0,1
236 -232 m 1,40,41
 288 -181 288 -181 302 -116 c 0,42,43
 305 -100 305 -100 305 -94 c 0,44,45
 305 -66 305 -66 271 -66 c 0,46,47
 250 -66 250 -66 240 -75 c 0,48,49
 224 -88 224 -88 224 -122 c 0,50,51
 224 -144 224 -144 251 -148 c 1,52,53
 238 -186 238 -186 195 -232 c 1,54,-1
 236 -232 l 1,40,41
EndSplineSet
EndChar

StartChar: u0123
Encoding: 291 291 226
Width: 558
Flags: W
LayerCount: 2
Fore
SplineSet
346 597 m 0,0,1
 312 597 312 597 312 625 c 0,2,3
 312 633 312 633 315 647 c 0,4,5
 329 713 329 713 381 763 c 1,6,-1
 422 763 l 1,7,8
 379 717 379 717 366 679 c 1,9,10
 393 674 393 674 393 653 c 0,11,12
 393 597 393 597 346 597 c 0,0,1
189 -212 m 0,13,14
 68 -212 68 -212 12 -132 c 1,15,-1
 52 -97 l 1,16,17
 95 -163 95 -163 189 -163 c 0,18,19
 336 -163 336 -163 367 -4 c 2,20,-1
 389 112 l 1,21,-1
 386 112 l 1,22,23
 355 50 355 50 314 19 c 128,-1,24
 273 -12 273 -12 214 -12 c 0,25,26
 141 -12 141 -12 98 41 c 128,-1,27
 55 94 55 94 55 181 c 0,28,29
 55 264 55 264 83 342.5 c 128,-1,30
 111 421 111 421 166.5 472.5 c 128,-1,31
 222 524 222 524 305 524 c 0,32,33
 358 524 358 524 397 498.5 c 128,-1,34
 436 473 436 473 449 425 c 1,35,-1
 452 425 l 1,36,-1
 470 512 l 1,37,-1
 525 512 l 1,38,-1
 420 -12 l 2,39,40
 380 -212 380 -212 189 -212 c 0,13,14
227 38 m 0,41,42
 286 38 286 38 335 85 c 1,43,44
 392 133 392 133 411 222 c 2,45,-1
 435 341 l 2,46,47
 438 354 438 354 438 366 c 0,48,49
 438 386 438 386 429 410.5 c 128,-1,50
 420 435 420 435 390.5 454.5 c 128,-1,51
 361 474 361 474 310 474 c 0,52,53
 238 474 238 474 191.5 426.5 c 128,-1,54
 145 379 145 379 128 294 c 2,55,-1
 116 234 l 2,56,57
 111 208 111 208 111 175 c 0,58,59
 111 117 111 117 138.5 77.5 c 128,-1,60
 166 38 166 38 227 38 c 0,41,42
EndSplineSet
EndChar

StartChar: Hcircumflex
Encoding: 292 292 227
Width: 682
Flags: W
LayerCount: 2
Fore
SplineSet
534 0 m 1,0,-1
 674 698 l 1,1,-1
 616 698 l 1,2,-1
 552 380 l 1,3,-1
 179 380 l 1,4,-1
 243 698 l 1,5,-1
 185 698 l 1,6,-1
 45 0 l 1,7,-1
 103 0 l 1,8,-1
 169 329 l 1,9,-1
 542 329 l 1,10,-1
 476 0 l 1,11,-1
 534 0 l 1,0,-1
327 768 m 1,12,-1
 469 888 l 1,13,-1
 567 769 l 1,14,-1
 599 791 l 1,15,-1
 507 930 l 1,16,-1
 441 930 l 1,17,-1
 297 792 l 1,18,-1
 327 768 l 1,12,-1
EndSplineSet
EndChar

StartChar: hcircumflex
Encoding: 293 293 228
Width: 558
Flags: W
LayerCount: 2
Fore
SplineSet
490 0 m 1,0,-1
 499 49 l 1,1,-1
 421 49 l 1,2,-1
 475 319 l 2,3,4
 482 357 482 357 482 385 c 0,5,6
 482 451 482 451 449 487.5 c 128,-1,7
 416 524 416 524 350 524 c 0,8,9
 291 524 291 524 251 495.5 c 128,-1,10
 211 467 211 467 184 409 c 1,11,-1
 180 409 l 1,12,-1
 246 740 l 1,13,-1
 191 740 l 1,14,-1
 43 0 l 1,15,-1
 98 0 l 1,16,-1
 157 297 l 1,17,18
 177 375 177 375 223 425 c 0,19,20
 273 474 273 474 333 474 c 0,21,22
 426 474 426 474 426 376 c 0,23,24
 426 351 426 351 420 319 c 0,25,26
 369 60 369 60 368 57 c 128,-1,27
 367 54 367 54 367 43 c 0,28,29
 367 0 367 0 415 0 c 2,30,-1
 490 0 l 1,0,-1
344 748 m 1,31,-1
 376 771 l 1,32,-1
 284 910 l 1,33,-1
 218 910 l 1,34,-1
 75 772 l 1,35,-1
 104 748 l 1,36,-1
 246 868 l 1,37,-1
 344 748 l 1,31,-1
EndSplineSet
EndChar

StartChar: Hbar
Encoding: 294 294 229
Width: 688
Flags: W
LayerCount: 2
Fore
SplineSet
537 0 m 1,0,-1
 643 527 l 1,1,-1
 716 527 l 1,2,-1
 725 572 l 1,3,-1
 652 572 l 1,4,-1
 677 698 l 1,5,-1
 619 698 l 1,6,-1
 594 572 l 1,7,-1
 221 572 l 1,8,-1
 246 698 l 1,9,-1
 188 698 l 1,10,-1
 163 572 l 1,11,-1
 90 572 l 1,12,-1
 81 527 l 1,13,-1
 153 527 l 1,14,-1
 48 0 l 1,15,-1
 106 0 l 1,16,-1
 172 329 l 1,17,-1
 545 329 l 1,18,-1
 479 0 l 1,19,-1
 537 0 l 1,0,-1
555 380 m 1,20,-1
 182 380 l 1,21,-1
 211 527 l 1,22,-1
 585 527 l 1,23,-1
 555 380 l 1,20,-1
EndSplineSet
EndChar

StartChar: hbar
Encoding: 295 295 230
Width: 560
Flags: W
LayerCount: 2
Fore
SplineSet
492 0 m 1,0,-1
 501 49 l 1,1,-1
 423 49 l 1,2,-1
 477 319 l 2,3,4
 484 357 484 357 484 385 c 0,5,6
 484 451 484 451 451 487.5 c 128,-1,7
 418 524 418 524 352 524 c 0,8,9
 293 524 293 524 253 495.5 c 128,-1,10
 213 467 213 467 186 409 c 1,11,-1
 182 409 l 1,12,-1
 223 617 l 1,13,-1
 374 617 l 1,14,-1
 383 661 l 1,15,-1
 232 661 l 1,16,-1
 248 740 l 1,17,-1
 192 740 l 1,18,-1
 177 661 l 1,19,-1
 113 661 l 1,20,-1
 104 617 l 1,21,-1
 168 617 l 1,22,-1
 44 0 l 1,23,-1
 99 0 l 1,24,-1
 159 297 l 1,25,26
 179 375 179 375 225 425 c 0,27,28
 275 474 275 474 335 474 c 0,29,30
 428 474 428 474 428 376 c 0,31,32
 428 351 428 351 422 319 c 0,33,34
 371 60 371 60 370 57 c 128,-1,35
 369 54 369 54 369 43 c 0,36,37
 369 0 369 0 417 0 c 2,38,-1
 492 0 l 1,0,-1
EndSplineSet
EndChar

StartChar: Itilde
Encoding: 296 296 231
Width: 251
Flags: W
LayerCount: 2
Fore
SplineSet
301 792 m 0,0,1
 352 792 352 792 394 840 c 1,2,-1
 373 868 l 1,3,4
 344 839 344 839 309 839 c 0,5,6
 281 839 281 839 245 863 c 0,7,8
 228 875 228 875 211 883 c 128,-1,9
 194 891 194 891 171 891 c 0,10,11
 120 891 120 891 78 843 c 1,12,-1
 99 815 l 1,13,14
 129 844 129 844 163 844 c 0,15,16
 192 844 192 844 227 820 c 0,17,18
 244 808 244 808 261 800 c 128,-1,19
 278 792 278 792 301 792 c 0,0,1
103 0 m 1,20,-1
 243 698 l 1,21,-1
 185 698 l 1,22,-1
 45 0 l 1,23,-1
 103 0 l 1,20,-1
EndSplineSet
EndChar

StartChar: itilde
Encoding: 297 297 232
Width: 253
Flags: W
LayerCount: 2
Fore
SplineSet
176 0 m 1,0,-1
 186 49 l 1,1,-1
 108 49 l 1,2,-1
 201 512 l 1,3,-1
 146 512 l 1,4,5
 56 64 56 64 55 61 c 128,-1,6
 54 58 54 58 54 46 c 0,7,8
 54 0 54 0 105 0 c 2,9,-1
 176 0 l 1,0,-1
270 618 m 0,10,11
 321 618 321 618 363 666 c 1,12,-1
 342 694 l 1,13,14
 313 665 313 665 278 665 c 0,15,16
 250 665 250 665 214 689 c 0,17,18
 197 701 197 701 180 709 c 128,-1,19
 163 717 163 717 140 717 c 0,20,21
 89 717 89 717 47 669 c 1,22,-1
 68 641 l 1,23,24
 98 670 98 670 132 670 c 0,25,26
 161 670 161 670 196 646 c 0,27,28
 213 634 213 634 230 626 c 128,-1,29
 247 618 247 618 270 618 c 0,10,11
EndSplineSet
EndChar

StartChar: Imacron
Encoding: 298 298 233
Width: 251
Flags: W
LayerCount: 2
Fore
SplineSet
368 820 m 1,0,-1
 377 868 l 1,1,-1
 111 868 l 1,2,-1
 101 820 l 1,3,-1
 368 820 l 1,0,-1
103 0 m 1,4,-1
 243 698 l 1,5,-1
 185 698 l 1,6,-1
 45 0 l 1,7,-1
 103 0 l 1,4,-1
EndSplineSet
EndChar

StartChar: imacron
Encoding: 299 299 234
Width: 253
Flags: W
LayerCount: 2
Fore
SplineSet
176 0 m 1,0,-1
 186 49 l 1,1,-1
 108 49 l 1,2,-1
 201 512 l 1,3,-1
 146 512 l 1,4,5
 56 64 56 64 55 61 c 128,-1,6
 54 58 54 58 54 46 c 0,7,8
 54 0 54 0 105 0 c 2,9,-1
 176 0 l 1,0,-1
334 646 m 1,10,-1
 344 694 l 1,11,-1
 77 694 l 1,12,-1
 67 646 l 1,13,-1
 334 646 l 1,10,-1
EndSplineSet
EndChar

StartChar: Ibreve
Encoding: 300 300 235
Width: 251
Flags: W
LayerCount: 2
Fore
SplineSet
230 774 m 0,0,1
 263 774 263 774 287 785 c 0,2,3
 346 813 346 813 390 901 c 1,4,-1
 354 916 l 1,5,-1
 334 889 l 2,6,7
 306 850 306 850 283.5 834 c 128,-1,8
 261 818 261 818 231 818 c 0,9,10
 202 818 202 818 184 835.5 c 128,-1,11
 166 853 166 853 152 888 c 2,12,-1
 140 916 l 1,13,-1
 105 901 l 1,14,15
 115 852 115 852 141 814 c 0,16,17
 172 774 172 774 230 774 c 0,0,1
103 0 m 1,18,-1
 243 698 l 1,19,-1
 185 698 l 1,20,-1
 45 0 l 1,21,-1
 103 0 l 1,18,-1
EndSplineSet
EndChar

StartChar: ibreve
Encoding: 301 301 236
Width: 253
Flags: W
LayerCount: 2
Fore
SplineSet
176 0 m 1,0,-1
 186 49 l 1,1,-1
 108 49 l 1,2,-1
 201 512 l 1,3,-1
 146 512 l 1,4,5
 56 64 56 64 55 61 c 128,-1,6
 54 58 54 58 54 46 c 0,7,8
 54 0 54 0 105 0 c 2,9,-1
 176 0 l 1,0,-1
195 600 m 0,10,11
 228 600 228 600 252 611 c 0,12,13
 311 639 311 639 355 727 c 1,14,-1
 319 742 l 1,15,-1
 299 715 l 2,16,17
 271 677 271 677 248.5 661 c 128,-1,18
 226 645 226 645 196 645 c 0,19,20
 167 645 167 645 149 662 c 128,-1,21
 131 679 131 679 117 714 c 2,22,-1
 105 742 l 1,23,-1
 70 727 l 1,24,25
 80 678 80 678 106 640 c 0,26,27
 137 600 137 600 195 600 c 0,10,11
EndSplineSet
EndChar

StartChar: Iogonek
Encoding: 302 302 237
Width: 251
Flags: W
LayerCount: 2
Fore
SplineSet
11 -205 m 0,0,1
 69 -205 69 -205 100 -170 c 1,2,-1
 72 -139 l 1,3,4
 46 -165 46 -165 14 -165 c 0,5,6
 -26 -165 -26 -165 -26 -127 c 0,7,8
 -26 -103 -26 -103 0.5 -75 c 128,-1,9
 27 -47 27 -47 103 0 c 1,10,-1
 243 698 l 1,11,-1
 185 698 l 1,12,-1
 45 0 l 1,13,-1
 53 0 l 1,14,-1
 54 -4 l 1,15,16
 -76 -62 -76 -62 -76 -134 c 0,17,18
 -76 -172 -76 -172 -50 -188.5 c 128,-1,19
 -24 -205 -24 -205 11 -205 c 0,0,1
EndSplineSet
EndChar

StartChar: iogonek
Encoding: 303 303 238
Width: 253
Flags: W
LayerCount: 2
Fore
SplineSet
83 -205 m 0,0,1
 143 -205 143 -205 172 -170 c 1,2,-1
 145 -139 l 1,3,4
 119 -165 119 -165 86 -165 c 0,5,6
 46 -165 46 -165 46 -127 c 0,7,8
 46 -103 46 -103 73 -75 c 128,-1,9
 100 -47 100 -47 176 0 c 1,10,-1
 186 49 l 1,11,-1
 108 49 l 1,12,-1
 201 512 l 1,13,-1
 146 512 l 1,14,15
 56 64 56 64 55 61 c 128,-1,16
 54 58 54 58 54 46 c 0,17,18
 54 0 54 0 105 0 c 2,19,-1
 127 0 l 1,20,-1
 128 -4 l 1,21,22
 -3 -62 -3 -62 -3 -134 c 0,23,24
 -3 -172 -3 -172 22.5 -188.5 c 128,-1,25
 48 -205 48 -205 83 -205 c 0,0,1
204 651 m 0,26,27
 242 651 242 651 247 683 c 2,28,-1
 250 698 l 1,29,-1
 250 705 l 2,30,31
 250 733 250 733 217 733 c 0,32,33
 180 733 180 733 173 701 c 2,34,-1
 172 695 l 2,35,36
 170 684 170 684 170 679 c 0,37,38
 170 651 170 651 204 651 c 0,26,27
EndSplineSet
EndChar

StartChar: Idotaccent
Encoding: 304 304 239
Width: 251
Flags: W
LayerCount: 2
Fore
SplineSet
233 799 m 0,0,1
 271 799 271 799 276 831 c 2,2,-1
 279 846 l 1,3,-1
 279 853 l 2,4,5
 279 881 279 881 245 881 c 0,6,7
 208 881 208 881 202 849 c 2,8,-1
 199 827 l 2,9,10
 199 799 199 799 233 799 c 0,0,1
103 0 m 1,11,-1
 243 698 l 1,12,-1
 185 698 l 1,13,-1
 45 0 l 1,14,-1
 103 0 l 1,11,-1
EndSplineSet
EndChar

StartChar: dotlessi
Encoding: 305 305 240
Width: 253
Flags: W
LayerCount: 2
Fore
SplineSet
176 0 m 1,0,-1
 186 49 l 1,1,-1
 108 49 l 1,2,-1
 201 512 l 1,3,-1
 146 512 l 1,4,5
 56 64 56 64 55 61 c 128,-1,6
 54 58 54 58 54 46 c 0,7,8
 54 0 54 0 105 0 c 2,9,-1
 176 0 l 1,0,-1
EndSplineSet
EndChar

StartChar: ij
Encoding: 307 307 242
Width: 498
Flags: W
LayerCount: 2
Fore
SplineSet
204 651 m 0,0,1
 242 651 242 651 247 683 c 2,2,-1
 250 698 l 1,3,-1
 250 705 l 2,4,5
 250 733 250 733 216 733 c 0,6,7
 179 733 179 733 173 701 c 2,8,-1
 170 679 l 2,9,10
 170 651 170 651 204 651 c 0,0,1
176 0 m 1,11,-1
 186 49 l 1,12,-1
 108 49 l 1,13,-1
 201 512 l 1,14,-1
 146 512 l 1,15,16
 56 64 56 64 55 61 c 128,-1,17
 54 58 54 58 54 46 c 0,18,19
 54 0 54 0 105 0 c 2,20,-1
 176 0 l 1,11,-1
242 -200 m 2,21,22
 282 -200 282 -200 300.5 -182 c 128,-1,23
 319 -164 319 -164 327 -125 c 2,24,-1
 454 512 l 1,25,-1
 399 512 l 1,26,-1
 267 -151 l 1,27,-1
 183 -151 l 1,28,-1
 173 -200 l 1,29,-1
 242 -200 l 2,21,22
457 651 m 0,30,31
 495 651 495 651 501 683 c 2,32,-1
 504 698 l 1,33,-1
 504 705 l 2,34,35
 504 733 504 733 471 733 c 0,36,37
 434 733 434 733 427 701 c 2,38,-1
 424 679 l 2,39,40
 424 651 424 651 457 651 c 0,30,31
EndSplineSet
EndChar

StartChar: Jcircumflex
Encoding: 308 308 243
Width: 481
Flags: W
LayerCount: 2
Fore
SplineSet
210 768 m 1,0,-1
 180 792 l 1,1,-1
 324 930 l 1,2,-1
 390 930 l 1,3,-1
 482 791 l 1,4,-1
 450 769 l 1,5,-1
 352 888 l 1,6,-1
 210 768 l 1,0,-1
160 -12 m 0,7,8
 87 -12 87 -12 43.5 28 c 128,-1,9
 0 68 0 68 -4 139 c 1,10,-1
 49 150 l 1,11,12
 53 99 53 99 81.5 69.5 c 128,-1,13
 110 40 110 40 162 40 c 0,14,15
 288 40 288 40 317 193 c 2,16,-1
 418 698 l 1,17,-1
 476 698 l 1,18,-1
 373 183 l 1,19,20
 328 -12 328 -12 160 -12 c 0,7,8
EndSplineSet
EndChar

StartChar: jcircumflex
Encoding: 309 309 244
Width: 244
Flags: W
LayerCount: 2
Fore
SplineSet
-12 -200 m 2,0,1
 28 -200 28 -200 46.5 -182 c 128,-1,2
 65 -164 65 -164 73 -125 c 2,3,-1
 200 512 l 1,4,-1
 145 512 l 1,5,-1
 13 -151 l 1,6,-1
 -71 -151 l 1,7,-1
 -81 -200 l 1,8,-1
 -12 -200 l 2,0,1
313 594 m 1,9,-1
 345 617 l 1,10,-1
 253 756 l 1,11,-1
 187 756 l 1,12,-1
 44 618 l 1,13,-1
 73 594 l 1,14,-1
 215 714 l 1,15,-1
 313 594 l 1,9,-1
EndSplineSet
EndChar

StartChar: u0136
Encoding: 310 310 245
Width: 595
Flags: W
LayerCount: 2
Fore
SplineSet
529 0 m 1,0,-1
 334 398 l 1,1,-1
 653 698 l 1,2,-1
 578 698 l 1,3,-1
 171 314 l 1,4,-1
 166 314 l 1,5,-1
 243 698 l 1,6,-1
 185 698 l 1,7,-1
 45 0 l 1,8,-1
 103 0 l 1,9,-1
 149 230 l 1,10,-1
 290 361 l 1,11,-1
 466 0 l 1,12,-1
 529 0 l 1,0,-1
212 -232 m 1,13,14
 264 -181 264 -181 278 -116 c 0,15,16
 281 -100 281 -100 281 -94 c 0,17,18
 281 -66 281 -66 247 -66 c 0,19,20
 226 -66 226 -66 216 -75 c 0,21,22
 200 -88 200 -88 200 -122 c 0,23,24
 200 -144 200 -144 227 -148 c 1,25,26
 214 -186 214 -186 171 -232 c 1,27,-1
 212 -232 l 1,13,14
EndSplineSet
EndChar

StartChar: u0137
Encoding: 311 311 246
Width: 503
Flags: W
LayerCount: 2
Fore
SplineSet
449 0 m 1,0,-1
 459 49 l 1,1,-1
 396 49 l 1,2,-1
 277 302 l 1,3,-1
 512 512 l 1,4,-1
 444 512 l 1,5,6
 298 384 298 384 153 254 c 1,7,-1
 149 254 l 1,8,-1
 246 740 l 1,9,-1
 191 740 l 1,10,-1
 43 0 l 1,11,-1
 98 0 l 1,12,-1
 135 184 l 1,13,-1
 233 270 l 1,14,-1
 340 41 l 2,15,16
 349 18 349 18 363 9 c 128,-1,17
 377 0 377 0 403 0 c 2,18,-1
 449 0 l 1,0,-1
186 -232 m 1,19,20
 238 -181 238 -181 252 -116 c 0,21,22
 255 -100 255 -100 255 -94 c 0,23,24
 255 -66 255 -66 221 -66 c 0,25,26
 200 -66 200 -66 190 -75 c 0,27,28
 174 -88 174 -88 174 -122 c 0,29,30
 174 -144 174 -144 201 -148 c 1,31,32
 188 -186 188 -186 145 -232 c 1,33,-1
 186 -232 l 1,19,20
EndSplineSet
EndChar

StartChar: kgreenlandic
Encoding: 312 312 247
Width: 509
Flags: W
LayerCount: 2
Fore
SplineSet
446 0 m 1,0,-1
 455 49 l 1,1,-1
 393 49 l 1,2,-1
 280 288 l 1,3,-1
 530 512 l 1,4,-1
 462 512 l 1,5,6
 305 373 305 373 149 233 c 1,7,-1
 144 233 l 1,8,-1
 201 512 l 1,9,-1
 146 512 l 1,10,-1
 43 0 l 1,11,-1
 98 0 l 1,12,-1
 130 163 l 1,13,-1
 236 255 l 1,14,-1
 336 41 l 2,15,16
 347 18 347 18 360.5 9 c 128,-1,17
 374 0 374 0 400 0 c 2,18,-1
 446 0 l 1,0,-1
EndSplineSet
EndChar

StartChar: Lacute
Encoding: 313 313 248
Width: 481
Flags: W
LayerCount: 2
Fore
SplineSet
405 0 m 1,0,-1
 415 52 l 1,1,-1
 114 52 l 1,2,-1
 243 698 l 1,3,-1
 185 698 l 1,4,-1
 45 0 l 1,5,-1
 405 0 l 1,0,-1
234 760 m 1,6,-1
 367 916 l 1,7,-1
 319 943 l 1,8,-1
 200 780 l 1,9,-1
 234 760 l 1,6,-1
EndSplineSet
EndChar

StartChar: lacute
Encoding: 314 314 249
Width: 253
Flags: W
LayerCount: 2
Fore
SplineSet
179 0 m 1,0,-1
 189 49 l 1,1,-1
 108 49 l 1,2,-1
 246 740 l 1,3,-1
 191 740 l 1,4,5
 56 64 56 64 55 60.5 c 128,-1,6
 54 57 54 57 54 46 c 0,7,8
 54 0 54 0 105 0 c 2,9,-1
 179 0 l 1,0,-1
231 786 m 1,10,-1
 364 942 l 1,11,-1
 316 969 l 1,12,-1
 196 805 l 1,13,-1
 231 786 l 1,10,-1
EndSplineSet
EndChar

StartChar: u013B
Encoding: 315 315 250
Width: 481
Flags: W
LayerCount: 2
Fore
SplineSet
405 0 m 1,0,-1
 415 52 l 1,1,-1
 114 52 l 1,2,-1
 243 698 l 1,3,-1
 185 698 l 1,4,-1
 45 0 l 1,5,-1
 405 0 l 1,0,-1
178 -232 m 1,6,7
 230 -181 230 -181 244 -116 c 0,8,9
 247 -100 247 -100 247 -94 c 0,10,11
 247 -66 247 -66 213 -66 c 0,12,13
 192 -66 192 -66 182 -75 c 0,14,15
 166 -88 166 -88 166 -122 c 0,16,17
 166 -144 166 -144 193 -148 c 1,18,19
 180 -186 180 -186 137 -232 c 1,20,-1
 178 -232 l 1,6,7
EndSplineSet
EndChar

StartChar: u013C
Encoding: 316 316 251
Width: 253
Flags: W
LayerCount: 2
Fore
SplineSet
179 0 m 1,0,-1
 189 49 l 1,1,-1
 108 49 l 1,2,-1
 246 740 l 1,3,-1
 191 740 l 1,4,5
 56 64 56 64 55 60.5 c 128,-1,6
 54 57 54 57 54 46 c 0,7,8
 54 0 54 0 105 0 c 2,9,-1
 179 0 l 1,0,-1
62 -232 m 1,10,11
 114 -181 114 -181 128 -116 c 0,12,13
 131 -100 131 -100 131 -94 c 0,14,15
 131 -66 131 -66 97 -66 c 0,16,17
 76 -66 76 -66 66 -75 c 0,18,19
 50 -88 50 -88 50 -122 c 0,20,21
 50 -144 50 -144 77 -148 c 1,22,23
 64 -186 64 -186 21 -232 c 1,24,-1
 62 -232 l 1,10,11
EndSplineSet
EndChar

StartChar: Lcaron
Encoding: 317 317 252
Width: 481
Flags: W
LayerCount: 2
Fore
SplineSet
405 0 m 1,0,-1
 415 52 l 1,1,-1
 114 52 l 1,2,-1
 243 698 l 1,3,-1
 185 698 l 1,4,-1
 45 0 l 1,5,-1
 405 0 l 1,0,-1
345 559 m 1,6,-1
 412 740 l 1,7,-1
 345 740 l 1,8,-1
 306 559 l 1,9,-1
 345 559 l 1,6,-1
EndSplineSet
EndChar

StartChar: lcaron
Encoding: 318 318 253
Width: 253
Flags: W
LayerCount: 2
Fore
SplineSet
179 0 m 1,0,-1
 189 49 l 1,1,-1
 108 49 l 1,2,-1
 246 740 l 1,3,-1
 191 740 l 1,4,5
 56 64 56 64 55 60.5 c 128,-1,6
 54 57 54 57 54 46 c 0,7,8
 54 0 54 0 105 0 c 2,9,-1
 179 0 l 1,0,-1
321 559 m 1,10,-1
 388 740 l 1,11,-1
 321 740 l 1,12,-1
 282 559 l 1,13,-1
 321 559 l 1,10,-1
EndSplineSet
EndChar

StartChar: Ldot
Encoding: 319 319 254
Width: 481
Flags: W
LayerCount: 2
Fore
SplineSet
405 0 m 1,0,-1
 415 52 l 1,1,-1
 114 52 l 1,2,-1
 243 698 l 1,3,-1
 185 698 l 1,4,-1
 45 0 l 1,5,-1
 405 0 l 1,0,-1
364 284 m 0,6,7
 402 284 402 284 407 316 c 2,8,-1
 410 331 l 1,9,-1
 410 338 l 2,10,11
 410 366 410 366 376 366 c 0,12,13
 339 366 339 366 333 334 c 2,14,-1
 330 312 l 2,15,16
 330 284 330 284 364 284 c 0,6,7
EndSplineSet
EndChar

StartChar: ldot
Encoding: 320 320 255
Width: 322
Flags: W
LayerCount: 2
Fore
SplineSet
179 0 m 1,0,-1
 189 49 l 1,1,-1
 108 49 l 1,2,-1
 246 740 l 1,3,-1
 191 740 l 1,4,5
 56 64 56 64 55 60.5 c 128,-1,6
 54 57 54 57 54 46 c 0,7,8
 54 0 54 0 105 0 c 2,9,-1
 179 0 l 1,0,-1
282 249 m 0,10,11
 320 249 320 249 325 281 c 2,12,-1
 328 296 l 1,13,-1
 328 303 l 2,14,15
 328 331 328 331 294 331 c 0,16,17
 257 331 257 331 251 299 c 2,18,-1
 248 277 l 2,19,20
 248 249 248 249 282 249 c 0,10,11
EndSplineSet
EndChar

StartChar: Lslash
Encoding: 321 321 256
Width: 487
Flags: W
LayerCount: 2
Fore
SplineSet
409 0 m 1,0,-1
 420 52 l 1,1,-1
 117 52 l 1,2,-1
 167 301 l 1,3,-1
 361 362 l 1,4,-1
 370 415 l 1,5,-1
 177 354 l 1,6,-1
 246 698 l 1,7,-1
 188 698 l 1,8,-1
 115 334 l 1,9,-1
 11 301 l 1,10,-1
 3 250 l 1,11,-1
 105 282 l 1,12,-1
 48 0 l 1,13,-1
 409 0 l 1,0,-1
EndSplineSet
EndChar

StartChar: lslash
Encoding: 322 322 257
Width: 266
Flags: W
LayerCount: 2
Fore
SplineSet
183 0 m 1,0,-1
 193 49 l 1,1,-1
 112 49 l 1,2,-1
 173 355 l 1,3,-1
 277 388 l 1,4,-1
 284 438 l 1,5,-1
 183 404 l 1,6,-1
 250 740 l 1,7,-1
 195 740 l 1,8,-1
 124 385 l 1,9,-1
 52 362 l 1,10,-1
 44 313 l 1,11,-1
 114 335 l 1,12,13
 60 64 60 64 59 60.5 c 128,-1,14
 58 57 58 57 58 46 c 0,15,16
 58 0 58 0 109 0 c 2,17,-1
 183 0 l 1,0,-1
EndSplineSet
EndChar

StartChar: Nacute
Encoding: 323 323 258
Width: 681
Flags: W
LayerCount: 2
Fore
SplineSet
534 0 m 1,0,-1
 674 698 l 1,1,-1
 618 698 l 1,2,-1
 495 83 l 1,3,-1
 491 83 l 1,4,-1
 254 698 l 1,5,-1
 185 698 l 1,6,-1
 45 0 l 1,7,-1
 101 0 l 1,8,-1
 224 615 l 1,9,-1
 228 615 l 1,10,-1
 465 0 l 1,11,-1
 534 0 l 1,0,-1
449 760 m 1,12,-1
 582 916 l 1,13,-1
 534 943 l 1,14,-1
 415 780 l 1,15,-1
 449 760 l 1,12,-1
EndSplineSet
EndChar

StartChar: nacute
Encoding: 324 324 259
Width: 558
Flags: W
LayerCount: 2
Fore
SplineSet
347 586 m 1,0,-1
 480 742 l 1,1,-1
 432 769 l 1,2,-1
 312 605 l 1,3,-1
 347 586 l 1,0,-1
489 0 m 1,4,-1
 499 49 l 1,5,-1
 421 49 l 1,6,-1
 475 319 l 2,7,8
 482 357 482 357 482 385 c 0,9,10
 482 451 482 451 449 487.5 c 128,-1,11
 416 524 416 524 350 524 c 0,12,13
 291 524 291 524 251 495.5 c 128,-1,14
 211 467 211 467 184 409 c 1,15,-1
 180 409 l 1,16,-1
 201 512 l 1,17,-1
 145 512 l 1,18,-1
 43 0 l 1,19,-1
 98 0 l 1,20,-1
 157 297 l 1,21,22
 177 375 177 375 223 425 c 0,23,24
 273 474 273 474 333 474 c 0,25,26
 426 474 426 474 426 376 c 0,27,28
 426 351 426 351 420 319 c 0,29,30
 366 50 366 50 366 42 c 0,31,32
 366 0 366 0 415 0 c 2,33,-1
 489 0 l 1,4,-1
EndSplineSet
EndChar

StartChar: u0145
Encoding: 325 325 260
Width: 681
Flags: W
LayerCount: 2
Fore
SplineSet
534 0 m 1,0,-1
 674 698 l 1,1,-1
 618 698 l 1,2,-1
 495 83 l 1,3,-1
 491 83 l 1,4,-1
 254 698 l 1,5,-1
 185 698 l 1,6,-1
 45 0 l 1,7,-1
 101 0 l 1,8,-1
 224 615 l 1,9,-1
 228 615 l 1,10,-1
 465 0 l 1,11,-1
 534 0 l 1,0,-1
244 -232 m 1,12,13
 296 -181 296 -181 310 -116 c 0,14,15
 313 -100 313 -100 313 -94 c 0,16,17
 313 -66 313 -66 279 -66 c 0,18,19
 258 -66 258 -66 248 -75 c 0,20,21
 232 -88 232 -88 232 -122 c 0,22,23
 232 -144 232 -144 259 -148 c 1,24,25
 246 -186 246 -186 203 -232 c 1,26,-1
 244 -232 l 1,12,13
EndSplineSet
EndChar

StartChar: u0146
Encoding: 326 326 261
Width: 558
Flags: W
LayerCount: 2
Fore
SplineSet
197 -232 m 1,0,1
 249 -181 249 -181 263 -116 c 0,2,3
 266 -100 266 -100 266 -94 c 0,4,5
 266 -66 266 -66 232 -66 c 0,6,7
 211 -66 211 -66 201 -75 c 0,8,9
 185 -88 185 -88 185 -122 c 0,10,11
 185 -144 185 -144 212 -148 c 1,12,13
 199 -186 199 -186 156 -232 c 1,14,-1
 197 -232 l 1,0,1
489 0 m 1,15,-1
 499 49 l 1,16,-1
 421 49 l 1,17,-1
 475 319 l 2,18,19
 482 357 482 357 482 385 c 0,20,21
 482 451 482 451 449 487.5 c 128,-1,22
 416 524 416 524 350 524 c 0,23,24
 291 524 291 524 251 495.5 c 128,-1,25
 211 467 211 467 184 409 c 1,26,-1
 180 409 l 1,27,-1
 201 512 l 1,28,-1
 145 512 l 1,29,-1
 43 0 l 1,30,-1
 98 0 l 1,31,-1
 157 297 l 1,32,33
 177 375 177 375 223 425 c 0,34,35
 273 474 273 474 333 474 c 0,36,37
 426 474 426 474 426 376 c 0,38,39
 426 351 426 351 420 319 c 0,40,41
 366 50 366 50 366 42 c 0,42,43
 366 0 366 0 415 0 c 2,44,-1
 489 0 l 1,15,-1
EndSplineSet
EndChar

StartChar: Ncaron
Encoding: 327 327 262
Width: 681
Flags: W
LayerCount: 2
Fore
SplineSet
534 0 m 1,0,-1
 674 698 l 1,1,-1
 618 698 l 1,2,-1
 495 83 l 1,3,-1
 491 83 l 1,4,-1
 254 698 l 1,5,-1
 185 698 l 1,6,-1
 45 0 l 1,7,-1
 101 0 l 1,8,-1
 224 615 l 1,9,-1
 228 615 l 1,10,-1
 465 0 l 1,11,-1
 534 0 l 1,0,-1
484 774 m 1,12,-1
 627 913 l 1,13,-1
 597 937 l 1,14,-1
 454 816 l 1,15,-1
 358 937 l 1,16,-1
 326 914 l 1,17,-1
 417 774 l 1,18,-1
 484 774 l 1,12,-1
EndSplineSet
EndChar

StartChar: ncaron
Encoding: 328 328 263
Width: 558
Flags: W
LayerCount: 2
Fore
SplineSet
383 601 m 1,0,-1
 526 739 l 1,1,-1
 496 763 l 1,2,-1
 352 643 l 1,3,-1
 257 763 l 1,4,-1
 224 740 l 1,5,-1
 316 601 l 1,6,-1
 383 601 l 1,0,-1
489 0 m 1,7,-1
 499 49 l 1,8,-1
 421 49 l 1,9,-1
 475 319 l 2,10,11
 482 357 482 357 482 385 c 0,12,13
 482 451 482 451 449 487.5 c 128,-1,14
 416 524 416 524 350 524 c 0,15,16
 291 524 291 524 251 495.5 c 128,-1,17
 211 467 211 467 184 409 c 1,18,-1
 180 409 l 1,19,-1
 201 512 l 1,20,-1
 145 512 l 1,21,-1
 43 0 l 1,22,-1
 98 0 l 1,23,-1
 157 297 l 1,24,25
 177 375 177 375 223 425 c 0,26,27
 273 474 273 474 333 474 c 0,28,29
 426 474 426 474 426 376 c 0,30,31
 426 351 426 351 420 319 c 0,32,33
 366 50 366 50 366 42 c 0,34,35
 366 0 366 0 415 0 c 2,36,-1
 489 0 l 1,7,-1
EndSplineSet
EndChar

StartChar: napostrophe
Encoding: 329 329 264
Width: 782
Flags: W
LayerCount: 2
Fore
SplineSet
155 520 m 1,0,1
 202 555 202 555 230 603 c 128,-1,2
 258 651 258 651 268 692 c 0,3,4
 271 701 271 701 271 718 c 0,5,6
 271 750 271 750 230 750 c 0,7,8
 204 750 204 750 193.5 737 c 128,-1,9
 183 724 183 724 180 708 c 0,10,11
 176 698 176 698 176 682 c 0,12,13
 176 657 176 657 206 652 c 1,14,15
 184 589 184 589 107 520 c 1,16,-1
 155 520 l 1,0,1
713 0 m 1,17,-1
 723 49 l 1,18,-1
 645 49 l 1,19,-1
 699 319 l 2,20,21
 706 357 706 357 706 385 c 0,22,23
 706 451 706 451 673 487.5 c 128,-1,24
 640 524 640 524 574 524 c 0,25,26
 515 524 515 524 475 495.5 c 128,-1,27
 435 467 435 467 408 409 c 1,28,-1
 404 409 l 1,29,-1
 425 512 l 1,30,-1
 369 512 l 1,31,-1
 267 0 l 1,32,-1
 322 0 l 1,33,-1
 381 297 l 1,34,35
 401 375 401 375 447 425 c 0,36,37
 497 474 497 474 557 474 c 0,38,39
 650 474 650 474 650 376 c 0,40,41
 650 351 650 351 644 319 c 0,42,43
 590 50 590 50 590 42 c 0,44,45
 590 0 590 0 639 0 c 2,46,-1
 713 0 l 1,17,-1
EndSplineSet
EndChar

StartChar: Eng
Encoding: 330 330 265
Width: 682
Flags: W
LayerCount: 2
Fore
SplineSet
426 -200 m 2,0,1
 464 -200 464 -200 482.5 -182 c 128,-1,2
 501 -164 501 -164 509 -126 c 2,3,-1
 674 698 l 1,4,-1
 618 698 l 1,5,-1
 495 82 l 1,6,-1
 491 82 l 1,7,-1
 254 698 l 1,8,-1
 185 698 l 1,9,-1
 45 0 l 1,10,-1
 101 0 l 1,11,-1
 224 616 l 1,12,-1
 228 616 l 1,13,-1
 465 0 l 1,14,-1
 478 0 l 1,15,-1
 448 -150 l 1,16,-1
 365 -150 l 1,17,-1
 355 -200 l 1,18,-1
 426 -200 l 2,0,1
EndSplineSet
EndChar

StartChar: eng
Encoding: 331 331 266
Width: 556
Flags: W
LayerCount: 2
Fore
SplineSet
300 -200 m 2,0,1
 341 -200 341 -200 360.5 -182 c 128,-1,2
 380 -164 380 -164 387 -125 c 2,3,-1
 475 319 l 2,4,5
 482 357 482 357 482 385 c 0,6,7
 482 451 482 451 449 487.5 c 128,-1,8
 416 524 416 524 350 524 c 0,9,10
 291 524 291 524 251 495.5 c 128,-1,11
 211 467 211 467 184 409 c 1,12,-1
 180 409 l 1,13,-1
 201 512 l 1,14,-1
 145 512 l 1,15,-1
 43 0 l 1,16,-1
 98 0 l 1,17,-1
 157 297 l 1,18,19
 177 375 177 375 223 425 c 0,20,21
 273 474 273 474 333 474 c 0,22,23
 426 474 426 474 426 376 c 0,24,25
 426 366 426 366 424.5 349.5 c 128,-1,26
 423 333 423 333 326 -151 c 1,27,-1
 242 -151 l 1,28,-1
 232 -200 l 1,29,-1
 300 -200 l 2,0,1
EndSplineSet
EndChar

StartChar: Omacron
Encoding: 332 332 267
Width: 671
Flags: W
LayerCount: 2
Fore
SplineSet
295 -12 m 0,0,1
 381 -12 381 -12 446 29.5 c 128,-1,2
 511 71 511 71 554.5 139 c 128,-1,3
 598 207 598 207 619.5 289.5 c 128,-1,4
 641 372 641 372 641 454 c 0,5,6
 641 579 641 579 574.5 644.5 c 128,-1,7
 508 710 508 710 406 710 c 0,8,9
 320 710 320 710 255 668.5 c 128,-1,10
 190 627 190 627 147 559 c 128,-1,11
 104 491 104 491 82 408.5 c 128,-1,12
 60 326 60 326 60 244 c 0,13,14
 60 120 60 120 126.5 54 c 128,-1,15
 193 -12 193 -12 295 -12 c 0,0,1
300 40 m 0,16,17
 212 40 212 40 165 91 c 128,-1,18
 118 142 118 142 118 230 c 0,19,20
 118 265 118 265 126 314 c 2,21,-1
 143 397 l 2,22,23
 168 519 168 519 234.5 588.5 c 128,-1,24
 301 658 301 658 401 658 c 0,25,26
 489 658 489 658 536 607 c 128,-1,27
 583 556 583 556 583 468 c 0,28,29
 583 434 583 434 575 384 c 2,30,-1
 558 301 l 2,31,32
 533 179 533 179 466.5 109.5 c 128,-1,33
 400 40 400 40 300 40 c 0,16,17
568 820 m 1,34,-1
 577 868 l 1,35,-1
 311 868 l 1,36,-1
 301 820 l 1,37,-1
 568 820 l 1,34,-1
EndSplineSet
EndChar

StartChar: omacron
Encoding: 333 333 268
Width: 544
Flags: W
LayerCount: 2
Fore
SplineSet
231 -12 m 0,0,1
 291 -12 291 -12 339.5 15.5 c 128,-1,2
 388 43 388 43 422 90 c 0,3,4
 491 191 491 191 491 324 c 0,5,6
 491 418 491 418 442.5 471 c 128,-1,7
 394 524 394 524 313 524 c 0,8,9
 253 524 253 524 204.5 497 c 128,-1,10
 156 470 156 470 123 423 c 0,11,12
 53 322 53 322 53 188 c 0,13,14
 53 94 53 94 101.5 41 c 128,-1,15
 150 -12 150 -12 231 -12 c 0,0,1
238 37 m 0,16,17
 173 37 173 37 141 76 c 128,-1,18
 109 115 109 115 109 174 c 0,19,20
 109 204 109 204 114 230 c 2,21,-1
 126 291 l 2,22,23
 144 379 144 379 191.5 427 c 128,-1,24
 239 475 239 475 306 475 c 0,25,26
 372 475 372 475 403.5 436 c 128,-1,27
 435 397 435 397 435 338 c 0,28,29
 435 308 435 308 430 282 c 2,30,-1
 418 221 l 2,31,32
 400 133 400 133 352.5 85 c 128,-1,33
 305 37 305 37 238 37 c 0,16,17
470 646 m 1,34,-1
 480 694 l 1,35,-1
 213 694 l 1,36,-1
 203 646 l 1,37,-1
 470 646 l 1,34,-1
EndSplineSet
EndChar

StartChar: Obreve
Encoding: 334 334 269
Width: 671
Flags: W
LayerCount: 2
Fore
SplineSet
295 -12 m 0,0,1
 381 -12 381 -12 446 29.5 c 128,-1,2
 511 71 511 71 554.5 139 c 128,-1,3
 598 207 598 207 619.5 289.5 c 128,-1,4
 641 372 641 372 641 454 c 0,5,6
 641 579 641 579 574.5 644.5 c 128,-1,7
 508 710 508 710 406 710 c 0,8,9
 320 710 320 710 255 668.5 c 128,-1,10
 190 627 190 627 147 559 c 128,-1,11
 104 491 104 491 82 408.5 c 128,-1,12
 60 326 60 326 60 244 c 0,13,14
 60 120 60 120 126.5 54 c 128,-1,15
 193 -12 193 -12 295 -12 c 0,0,1
300 40 m 0,16,17
 212 40 212 40 165 91 c 128,-1,18
 118 142 118 142 118 230 c 0,19,20
 118 265 118 265 126 314 c 2,21,-1
 143 397 l 2,22,23
 168 519 168 519 234.5 588.5 c 128,-1,24
 301 658 301 658 401 658 c 0,25,26
 489 658 489 658 536 607 c 128,-1,27
 583 556 583 556 583 468 c 0,28,29
 583 434 583 434 575 384 c 2,30,-1
 558 301 l 2,31,32
 533 179 533 179 466.5 109.5 c 128,-1,33
 400 40 400 40 300 40 c 0,16,17
430 774 m 0,34,35
 463 774 463 774 487 785 c 0,36,37
 546 813 546 813 590 901 c 1,38,-1
 554 916 l 1,39,-1
 534 889 l 2,40,41
 506 850 506 850 483.5 834 c 128,-1,42
 461 818 461 818 431 818 c 0,43,44
 402 818 402 818 384 835.5 c 128,-1,45
 366 853 366 853 352 888 c 2,46,-1
 340 916 l 1,47,-1
 305 901 l 1,48,49
 315 852 315 852 341 814 c 0,50,51
 372 774 372 774 430 774 c 0,34,35
EndSplineSet
EndChar

StartChar: obreve
Encoding: 335 335 270
Width: 544
Flags: W
LayerCount: 2
Fore
SplineSet
231 -12 m 0,0,1
 291 -12 291 -12 339.5 15.5 c 128,-1,2
 388 43 388 43 422 90 c 0,3,4
 491 191 491 191 491 324 c 0,5,6
 491 418 491 418 442.5 471 c 128,-1,7
 394 524 394 524 313 524 c 0,8,9
 253 524 253 524 204.5 497 c 128,-1,10
 156 470 156 470 123 423 c 0,11,12
 53 322 53 322 53 188 c 0,13,14
 53 94 53 94 101.5 41 c 128,-1,15
 150 -12 150 -12 231 -12 c 0,0,1
238 37 m 0,16,17
 173 37 173 37 141 76 c 128,-1,18
 109 115 109 115 109 174 c 0,19,20
 109 204 109 204 114 230 c 2,21,-1
 126 291 l 2,22,23
 144 379 144 379 191.5 427 c 128,-1,24
 239 475 239 475 306 475 c 0,25,26
 372 475 372 475 403.5 436 c 128,-1,27
 435 397 435 397 435 338 c 0,28,29
 435 308 435 308 430 282 c 2,30,-1
 418 221 l 2,31,32
 400 133 400 133 352.5 85 c 128,-1,33
 305 37 305 37 238 37 c 0,16,17
331 600 m 0,34,35
 364 600 364 600 388 611 c 0,36,37
 447 639 447 639 491 727 c 1,38,-1
 455 742 l 1,39,-1
 435 715 l 2,40,41
 407 677 407 677 384.5 661 c 128,-1,42
 362 645 362 645 332 645 c 0,43,44
 303 645 303 645 285 662 c 128,-1,45
 267 679 267 679 253 714 c 2,46,-1
 241 742 l 1,47,-1
 206 727 l 1,48,49
 216 678 216 678 242 640 c 0,50,51
 273 600 273 600 331 600 c 0,34,35
EndSplineSet
EndChar

StartChar: Ohungarumlaut
Encoding: 336 336 271
Width: 671
Flags: W
LayerCount: 2
Fore
SplineSet
295 -12 m 0,0,1
 381 -12 381 -12 446 29.5 c 128,-1,2
 511 71 511 71 554.5 139 c 128,-1,3
 598 207 598 207 619.5 289.5 c 128,-1,4
 641 372 641 372 641 454 c 0,5,6
 641 579 641 579 574.5 644.5 c 128,-1,7
 508 710 508 710 406 710 c 0,8,9
 320 710 320 710 255 668.5 c 128,-1,10
 190 627 190 627 147 559 c 128,-1,11
 104 491 104 491 82 408.5 c 128,-1,12
 60 326 60 326 60 244 c 0,13,14
 60 120 60 120 126.5 54 c 128,-1,15
 193 -12 193 -12 295 -12 c 0,0,1
300 40 m 0,16,17
 212 40 212 40 165 91 c 128,-1,18
 118 142 118 142 118 230 c 0,19,20
 118 265 118 265 126 314 c 2,21,-1
 143 397 l 2,22,23
 168 519 168 519 234.5 588.5 c 128,-1,24
 301 658 301 658 401 658 c 0,25,26
 489 658 489 658 536 607 c 128,-1,27
 583 556 583 556 583 468 c 0,28,29
 583 434 583 434 575 384 c 2,30,-1
 558 301 l 2,31,32
 533 179 533 179 466.5 109.5 c 128,-1,33
 400 40 400 40 300 40 c 0,16,17
334 760 m 1,34,-1
 467 916 l 1,35,-1
 421 941 l 1,36,-1
 302 779 l 1,37,-1
 334 760 l 1,34,-1
493 760 m 1,38,-1
 624 916 l 1,39,-1
 579 941 l 1,40,-1
 460 779 l 1,41,-1
 493 760 l 1,38,-1
EndSplineSet
EndChar

